<ttFont>
          <CharString index="0">
            -106 callsubr
            -44 -40 -59 -75 -84 return
          </CharString>
          <CharString index="1">
            51 -22 24 -38 -29 -20 -14 -35 -24 10 -27 34 6 6 1 1 6 vhcurveto
            -2 return
          </CharString>
          <CharString index="2">
            hintmask 1101111101000000
            -101 callsubr
            hintmask 1110111010100000
            -71 callsubr
            hintmask 1110111101000000
            -83 callgsubr
            hintmask 1101111011000000
            19 22 18 32 13 -13 26 -30 -47 -24 -59 -37 hvcurveto
            -200 -52 -41 callsubr
            100 56 180 101 31 21 -15 -41 7 hvcurveto
            -25 -8 -15 -26 -23 vvcurveto
            hintmask 1110111101000000
            -21 12 -19 26 -2 -69 callgsubr
            return
          </CharString>
          <CharString index="3">
            hhcurveto
            -168 -88 -215 -135 -117 63 -44 65 64 57 44 54 31 hvcurveto
            -69 5 31 -29 44 hhcurveto
            44 65 18 167 65 hvcurveto
            -105 callgsubr
            return
          </CharString>
          <CharString index="4">
            -97 callgsubr
            rrcurveto
            return
          </CharString>
          <CharString index="5">
            rmoveto
            55 hlineto
            121 189 rlineto
            -85 hlineto
            return
          </CharString>
          <CharString index="6">
            66 -12 41 -13 257 vhcurveto
            -105 -20 -48 -106 -94 -58 -53 -4 rlinecurve
            105 -33 57 -80 -95 callsubr
            vhcurveto
            73 13 72 45 56 83 rrcurveto
            return
          </CharString>
          <CharString index="7">
            hstemhm
            55 72 83 116 hintmask 11011100
            708 748 rmoveto
            -67 -309 rlineto
            -327 -71 -58 -42 -97 hhcurveto
            -77 -12 41 68 87 42 134 93 345 hvcurveto
            hintmask 10111100
            4 -21 -10 1 -17 hhcurveto
            -174 -184 -124 -141 -61 41 -30 46 hvcurveto
            -4 9 -11 11 49 vvcurveto
            128 78 92 123 24 vhcurveto
            -36 -147 rlineto
            -42 -169 -40 -141 -95 vvcurveto
            -104 48 -58 145 225 58 139 304 64 vhcurveto
            hintmask 11011100
            66 312 rlineto
            return
          </CharString>
          <CharString index="8">
            -73 callsubr
            107 101 87 98 53 vhcurveto
            -32 hlineto
            -78 -52 -66 -31 -63 -93 callgsubr
            return
          </CharString>
          <CharString index="9">
            35 -22 15 -24 -23 -26 -14 -24 -7 5 -11 8 -3 vhcurveto
            return
          </CharString>
          <CharString index="10">
            hhcurveto
            -25 -6 22 23 16 2 17 3 12 hvcurveto
            return
          </CharString>
          <CharString index="11">
            -107 callsubr
            rrcurveto
            return
          </CharString>
          <CharString index="12">
            -206 -56 -238 -115 -114 69 -44 87 123 82 131 173 12 return
          </CharString>
          <CharString index="13">
            -5 -13 -10 -1 -9 hhcurveto
            -27 -8 19 28 13 1 15 3 15 hvcurveto
            return
          </CharString>
          <CharString index="14">
            -20 hstemhm
            5 107 173 91 hintmask 10111100
            353 36 callsubr
            -48 rlineto
            hintmask 11011100
            41 -10 -40 12 -32 -104 callsubr
            hintmask 10111100
            -70 callsubr
            hintmask 11011100
            -43 callsubr
            return
          </CharString>
          <CharString index="15">
            -64 -27 -35 -45 -33 hhcurveto
            -40 -6 64 45 -8 hvcurveto
            return
          </CharString>
          <CharString index="16">
            rmoveto
            -93 -67 -93 -123 -61 15 -51 67 110 50 125 93 69 -23 41 -59 hvcurveto
            -105 -223 rmoveto
            104 47 87 55 29 6 -28 -35 -105 -40 -89 -55 -34 -8 34 32 vhcurveto
            return
          </CharString>
          <CharString index="17">
            66 -12 41 -13 257 vhcurveto
            -105 -20 -42 -93 -77 -55 -54 -16 rlinecurve
            134 -3 -70 21 -61 hhcurveto
            -37 -29 -15 -24 -28 hvcurveto
            51 237 -102 -14 -109 -507 rlineto
            -5 -25 -3 -25 -22 vvcurveto
            -88 48 -25 70 152 108 162 147 16 vhcurveto
            65 18 63 44 51 74 rrcurveto
            return
          </CharString>
          <CharString index="18">
            hhcurveto
            -86 -40 47 78 103 63 104 118 25 hvcurveto
            -64 13 -16 57 54 vvcurveto
            113 78 59 60 30 37 -13 -59 -52 -33 -31 -25 -9 vhcurveto
            return
          </CharString>
          <CharString index="19">
            rlineto
            -4 -18 -2 -17 -16 vvcurveto
            -83 50 -51 60 return
          </CharString>
          <CharString index="20">
            -62 callgsubr
            -19 callgsubr
            return
          </CharString>
          <CharString index="21">
            -8 callgsubr
            -90 49 -27 39 36 27 19 63 16 vhcurveto
            -94 callsubr
            -72 callgsubr
            return
          </CharString>
          <CharString index="22">
            -74 callgsubr
            hvcurveto
            return
          </CharString>
          <CharString index="23">
            -94 -89 callsubr
            return
          </CharString>
          <CharString index="24">
            -20 hstemhm
            8 109 199 56 hintmask 11011100
            286 347 rmoveto
            -65 callsubr
            77 107 99 87 98 53 hvcurveto
            -34 hlineto
            -74 -44 -62 -35 -70 hhcurveto
            -65 -23 30 69 hvcurveto
            hintmask 10111100
            112 60 171 94 30 15 -17 -23 -22 -13 -32 -17 -11 vhcurveto
            return
          </CharString>
          <CharString index="25">
            rmoveto
            -98 callgsubr
            -164 -68 callsubr
          </CharString>
          <CharString index="26">
            100 61 181 63 callgsubr
            -22 4 vhcurveto
            -22 callsubr
            return
          </CharString>
          <CharString index="27">
            -85 callsubr
            -37 hlineto
            return
          </CharString>
          <CharString index="28">
            402 rmoveto
            82 -52 21 -55 -184 -69 15 callsubr
            -115 71 -45 77 return
          </CharString>
          <CharString index="29">
            -38 15 -21 28 27 24 19 14 return
          </CharString>
          <CharString index="30">
            rlineto
            -74 -30 -86 -88 callgsubr
            return
          </CharString>
          <CharString index="31">
            -52 -31 29 -66 hhcurveto
            -68 -53 -30 -58 -29 hvcurveto
            5 -2 rlineto
            16 17 19 8 24 hhcurveto
            return
          </CharString>
          <CharString index="32">
            -68 -321 -88 callsubr
            return
          </CharString>
          <CharString index="33">
            rmoveto
            -98 callgsubr
            7 callsubr
            return
          </CharString>
          <CharString index="34">
            368 -79 callsubr
            return
          </CharString>
          <CharString index="35">
            -20 hstemhm
            -1 96 29 105 100 125 -20 72 hintmask 1101111010000000
            506 632 rmoveto
            108 -107 10 -46 -127 -102 -75 -104 vhcurveto
            hintmask 1101111100000000
            -147 205 -61 -171 vvcurveto
            -97 -69 -46 -63 -53 -49 37 64 72 64 27 55 vhcurveto
            48 -8 -30 18 -35 hhcurveto
            -60 -82 -56 -109 -121 102 -47 103 134 116 79 163 hvcurveto
            227 -225 9 150 vvcurveto
            67 49 37 73 vhcurveto
            hintmask 1110111010000000
            64 19 -38 -38 -36 -19 -36 -27 -16 hvcurveto
            -14 11 10 -7 18 hhcurveto
            44 35 42 61 hvcurveto
            return
          </CharString>
          <CharString index="36">
            13 -193 8 -31 -49 vvcurveto
            -70 -36 -27 -51 vhcurveto
            return
          </CharString>
          <CharString index="37">
            -72 callgsubr
            -279 -430 rmoveto
            -38 -25 23 76 hvcurveto
            return
          </CharString>
          <CharString index="38">
            rmoveto
            -17 -11 -52 -4 -56 -49 -52 3 -30 hhcurveto
            351 697 rlineto
            -291 hlineto
            -74 -52 -41 -41 -40 28 -21 27 31 22 25 25 12 -5 12 -11 9 hvcurveto
            return
          </CharString>
          <CharString index="39">
            hmoveto
            -98 callgsubr
            endchar
          </CharString>
          <CharString index="40">
            -47 callsubr
            11 callsubr
            -54 callsubr
            -25 -20 -70 callgsubr
            return
          </CharString>
          <CharString index="41">
            -20 hstemhm
            84 108 191 110 hintmask 10101110
            400 71 -69 callsubr
            hintmask 10011110
            -55 callgsubr
            hintmask 01101110
            -16 callsubr
            return
          </CharString>
          <CharString index="42">
            -67 callgsubr
            -112 -116 71 -45 return
          </CharString>
          <CharString index="43">
            -89 callgsubr
            -68 -321 -6 callsubr
            -96 23 29 -87 callsubr
            110 122 36 66 72 vvcurveto
            return
          </CharString>
          <CharString index="44">
            rmoveto
            -85 hlineto
            61 -189 rlineto
            55 hlineto
            endchar
          </CharString>
          <CharString index="45">
            95 -93 -21 135 -21 286 168 -41 41 247 49 return
          </CharString>
          <CharString index="46">
            270 505 rmoveto
            -206 -56 -238 -115 -114 69 -44 87 124 82 132 175 11 hvcurveto
            52 22 36 54 21 46 rrcurveto
            -29 hlineto
            -20 -12 -18 -30 -39 hhcurveto
            -4 -3 0 1 -3 hvcurveto
            85 -7 -34 46 -71 hhcurveto
            -68 -435 -41 callsubr
            100 56 180 101 31 21 -14 -41 7 hvcurveto
            -24 -4 -18 -19 -33 vvcurveto
            return
          </CharString>
          <CharString index="47">
            41 -10 -40 12 -32 hhcurveto
            -168 -88 -203 -125 -117 63 -44 65 49 47 26 return
          </CharString>
          <CharString index="48">
            -4 -4 0 -1 -5 hvcurveto
            46 61 52 54 34 vhcurveto
            -129 9 callgsubr
            -9 49 rlineto
            112 116 -32 callsubr
            -106 callsubr
            -44 -40 -59 -76 -79 rrcurveto
            return
          </CharString>
          <CharString index="49">
            -50 callgsubr
            62 28 64 100 66 vvcurveto
            35 -18 25 -45 -33 -33 -23 -44 vhcurveto
            return
          </CharString>
          <CharString index="50">
            -250 52 192 76 return
          </CharString>
          <CharString index="51">
            72 32 27 35 42 hhcurveto
            25 16 -13 -37 -12 -1 -15 -4 -18 hvcurveto
            -71 -334 rlineto
            101 41 callgsubr
            27 34 -47 callgsubr
            return
          </CharString>
          <CharString index="52">
            92 -55 67 hstemhm
            62 73 hintmask 11101000
            548 646 rmoveto
            hintmask 11011000
            46 42 12 92 23 hvcurveto
            hintmask 11101000
            -9 -28 -30 -3 -33 hhcurveto
            hintmask 11011000
            -67 -43 12 -69 hhcurveto
            -223 -104 -127 -129 -76 32 -25 60 hvcurveto
            -11 11 -8 24 42 vvcurveto
            168 76 45 83 6 7 0 -1 7 vhcurveto
            -147 -682 rlineto
            return
          </CharString>
          <CharString index="53">
            -69 -14 -49 -40 -38 hhcurveto
            return
          </CharString>
          <CharString index="54">
            11 -10 6 11 vvcurveto
            return
          </CharString>
          <CharString index="55">
            -106 -500 rlineto
            100 hlineto
            69 322 rlineto
            return
          </CharString>
          <CharString index="56">
            -5 -13 -11 -1 -5 hhcurveto
            -42 -5 59 50 -9 hvcurveto
            -8 43 rlineto
            111 122 -32 callsubr
            return
          </CharString>
          <CharString index="57">
            402 122 rmoveto
            -61 44 -67 102 return
          </CharString>
          <CharString index="58">
            -57 callsubr
            430 -20 hstemhm
            10 98 -55 39 hintmask 11110000
            84 -47 callsubr
            -75 callsubr
            35 38 17 39 33 vhcurveto
            -13 -63 rlineto
            hintmask 11101000
            -75 -30 -85 -88 callgsubr
            return
          </CharString>
          <CharString index="59">
            17 40 9 1 12 3 12 hvcurveto
            return
          </CharString>
          <CharString index="60">
            500 rmoveto
            return
          </CharString>
          <CharString index="61">
            hintmask 01111010
            125 686 rmoveto
            59 callsubr
            45 212 rlineto
            52 30 34 25 37 hhcurveto
            34 8 -22 -33 hvcurveto
            hintmask 10111100
            -32 -22 -51 -44 -80 callgsubr
            return
          </CharString>
          <CharString index="62">
            322 -67 callsubr
            -101 hlineto
            return
          </CharString>
          <CharString index="63">
            -22 19 34 -4 16 hhcurveto
            51 19 41 47 104 -94 34 -94 -221 -138 -189 -204 -156 80 -92 118 68 60 30 60 45 hvcurveto
            -51 -233 rlineto
            -103 -23 -53 -31 -45 hhcurveto
            -47 -34 33 49 51 37 33 40 25 25 -12 -25 19 hvcurveto
            return
          </CharString>
          <CharString index="64">
            -81 callsubr
            -56 -48 -41 hhcurveto
            return
          </CharString>
          <CharString index="65">
            32 callgsubr
            36 73 34 hvcurveto
            -6 -29 rlineto
            -69 -15 -17 -47 -37 hhcurveto
            endchar
          </CharString>
          <CharString index="66">
            rmoveto
            -62 -22 31 69 return
          </CharString>
          <CharString index="67">
            18 39 10 1 11 -51 callgsubr
            return
          </CharString>
          <CharString index="68">
            402 122 rmoveto
            70 callgsubr
            return
          </CharString>
          <CharString index="69">
            -5 -24 -4 -26 -24 vvcurveto
            return
          </CharString>
          <CharString index="70">
            115 545 rlineto
            return
          </CharString>
          <CharString index="71">
            -27 callgsubr
            -5 -12 -10 -2 -9 hhcurveto
            -24 -12 16 37 hvcurveto
            return
          </CharString>
          <CharString index="72">
            72 9 66 30 37 43 -9 27 rcurveline
            return
          </CharString>
          <CharString index="73">
            30 40 32 32 vvcurveto
            6 -2 6 -7 5 vhcurveto
            -65 -28 -63 -93 -66 vvcurveto
            -35 19 -32 46 33 33 23 44 vhcurveto
            return
          </CharString>
          <CharString index="74">
            66 -12 41 -13 257 vhcurveto
            -105 -20 -31 -98 -36 -99 -56 -99 rlinecurve
            36 callgsubr
            return
          </CharString>
          <CharString index="75">
            44 66 72 vvcurveto
            return
          </CharString>
          <CharString index="76">
            11 callsubr
            -54 callsubr
            -25 -20 -40 callsubr
            -13 callgsubr
            vhcurveto
            -68 return
          </CharString>
          <CharString index="77">
            hstemhm
            8 110 174 89 return
          </CharString>
          <CharString index="78">
            70 -70 -14 callgsubr
            return
          </CharString>
          <CharString index="79">
            -28 -20 30 -26 hhcurveto
            -19 -12 -16 -16 -9 hvcurveto
            -15 29 27 -13 51 hhcurveto
            58 62 38 72 hvcurveto
            endchar
          </CharString>
          <CharString index="80">
            81 11 120 315 113 return
          </CharString>
          <CharString index="81">
            10 1 11 3 12 return
          </CharString>
          <CharString index="82">
            -20 hstem
            54 83 vstem
            445 738 rmoveto
            1 -13 -13 1 -15 hhcurveto
            -166 -184 61 callsubr
            15 callgsubr
            -12 13 -12 17 46 vvcurveto
            116 75 79 112 28 vhcurveto
            return
          </CharString>
          <CharString index="83">
            -262 -44 rmoveto
            32 5 -21 -23 -90 -73 -67 -111 -16 hvcurveto
            97 17 55 120 75 hhcurveto
            return
          </CharString>
          <CharString index="84">
            750 rmoveto
            -60 hlineto
            -386 -750 rlineto
            60 hlineto
            return
          </CharString>
          <CharString index="85">
            -48 -227 rlineto
            -61 -13 return
          </CharString>
          <CharString index="86">
            -76 -35 -88 -64 -75 vvcurveto
            -55 49 -28 64 62 43 callgsubr
            17 83 37 9 40 6 43 1 rlinecurve
            -57 -269 106 25 50 235 rlineto
            -7 30 21 -9 37 hhcurveto
            return
          </CharString>
          <CharString index="87">
            rlineto
            -68 callgsubr
            44 -74 callgsubr
            vhcurveto
            -105 callgsubr
            117 540 rlineto
            return
          </CharString>
          <CharString index="88">
            -6 1 callsubr
            return
          </CharString>
          <CharString index="89">
            440 hmoveto
            66 308 194 437 rlineto
            -46 hlineto
            -161 -386 -94 389 rlineto
            return
          </CharString>
          <CharString index="90">
            rmoveto
            216 195 -180 185 -40 -44 137 -140 -175 -151 rlineto
            return
          </CharString>
          <CharString index="91">
            31 -29 17 -25 -30 -26 -18 -31 -9 5 -15 12 -9 vhcurveto
            return
          </CharString>
          <CharString index="92">
            -22 -4 -16 -22 -22 vvcurveto
            -23 16 -21 32 vhcurveto
            return
          </CharString>
          <CharString index="93">
            -23 -12 callsubr
            return
          </CharString>
          <CharString index="94">
            rmoveto
            -32 -43 -52 -10 -26 hhcurveto
            -7 -25 rlineto
            55 hlineto
            -77 -337 rlineto
            58 hlineto
            endchar
          </CharString>
          <CharString index="95">
            -19 callsubr
            -5 -20 return
          </CharString>
          <CharString index="96">
            rmoveto
            -13 -13 -22 -7 -22 hhcurveto
            return
          </CharString>
          <CharString index="97">
            -20 hstemhm
            8 101 359 109 hintmask 10111100
            257 -47 callsubr
            58 -316 rlineto
            -64 -32 -74 -50 -50 hhcurveto
            -29 -21 -48 callsubr
            return
          </CharString>
          <CharString index="98">
            -251 185 165 hstem
            35 165 vstem
            35 267 rmoveto
            -46 36 -36 46 46 37 36 46 46 -37 37 -46 -46 -36 -37 -46 vhcurveto
            endchar
          </CharString>
          <CharString index="99">
            480 419 rmoveto
            -157 -43 -65 -83 -84 hhcurveto
            -77 -41 71 104 175 117 185 149 54 26 -29 -49 -69 -51 -17 -7 hvcurveto
            return
          </CharString>
          <CharString index="100">
            rmoveto
            48 76 166 55 126 vvcurveto
            52 -31 34 -79 -75 -39 -42 -37 -33 14 -18 18 12 14 4 12 13 vhcurveto
            -12 8 -5 21 13 vvcurveto
            return
          </CharString>
          <CharString index="101">
            rlineto
            -6 -30 -3 -25 -21 vvcurveto
            -96 57 -13 44 70 95 57 81 51 vhcurveto
            return
          </CharString>
          <CharString index="102">
            -38 callgsubr
            33 10 -3 -2 15 hvcurveto
            return
          </CharString>
          <CharString index="103">
            -6 -11 callgsubr
            return
          </CharString>
          <CharString index="104">
            4 15 2 14 11 vvcurveto
            62 -59 5 -27 -98 -36 -69 -69 -68 36 -69 119 140 67 96 153 33 vhcurveto
            82 376 rlineto
            return
          </CharString>
          <CharString index="105">
            57 -314 -28 -26 -59 -35 -48 -22 rlinecurve
            5 19 4 21 24 vvcurveto
            return
          </CharString>
          <CharString index="106">
            rmoveto
            -350 hlineto
            -16 -70 rlineto
            351 hlineto
            endchar
          </CharString>
          <CharString index="107">
            -89 -4 callsubr
            return
          </CharString>
          <CharString index="108">
            76 380 55 return
          </CharString>
          <CharString index="109">
            30 27 16 27 28 28 -17 -38 vhcurveto
            -126 -215 -67 -114 vvcurveto
            -6 1 -6 1 -6 vhcurveto
            11 21 20 4 18 hhcurveto
            return
          </CharString>
          <CharString index="110">
            rmoveto
            -38 -25 23 76 100 61 181 110 return
          </CharString>
          <CharString index="111">
            -57 callsubr
            430 -20 98 133 hstemhm
            9 83 -83 100 -56 39 1 133 104 133 hintmask 1111001110000000
            return
          </CharString>
          <CharString index="112">
            rmoveto
            -27 -36 -36 -20 -48 hhcurveto
            -61 -23 32 68 111 61 176 94 30 14 -22 -23 -22 -13 -32 -17 -11 hvcurveto
            return
          </CharString>
          <CharString index="113">
            11 -174 10 -29 -55 vvcurveto
            return
          </CharString>
          <CharString index="114">
            164 51 callgsubr
            return
          </CharString>
          <CharString index="115">
            158 137 92 137 118 59 -55 -157 -182 -70 -268 -148 -21 -22 8 18 -22 vhcurveto
            return
          </CharString>
          <CharString index="116">
            682 748 rmoveto
            -139 -634 -137 622 rlineto
            return
          </CharString>
          <CharString index="117">
            85 -47 callsubr
            11 callsubr
            return
          </CharString>
          <CharString index="118">
            -68 -321 rlineto
            return
          </CharString>
          <CharString index="119">
            185 55 216 128 122 -50 45 -70 -44 -38 -18 -27 -31 hvcurveto
            hintmask 1100101010000000
            17 77 rlineto
            return
          </CharString>
          <CharString index="120">
            50 -56 -62 -75 -72 -91 -92 vhcurveto
            -18 hlineto
            48 226 -112 -15 11 callgsubr
            return
          </CharString>
          <CharString index="121">
            -108 rmoveto
            31 -20 19 -42 -15 -18 -3 -5 -20 vhcurveto
            return
          </CharString>
          <CharString index="122">
            -238 -113 return
          </CharString>
          <CharString index="123">
            -2 -16 76 464 226 -36 36 return
          </CharString>
          <CharString index="124">
            -54 34 15 -37 vvcurveto
            return
          </CharString>
          <CharString index="125">
            164 -68 callsubr
          </CharString>
          <CharString index="126">
            rmoveto
            -22 -14 17 22 38 44 48 71 37 hvcurveto
            -9 -46 rlineto
            -71 -15 -18 -45 -37 hhcurveto
            endchar
          </CharString>
          <CharString index="127">
            2 callgsubr
            430 75 -48 100 hstemhm
            395 109 hintmask 01101000
            327 386 rmoveto
            return
          </CharString>
          <CharString index="128">
            3 callsubr
            31 16 -23 -21 3 hvcurveto
            -48 -227 rlineto
            return
          </CharString>
          <CharString index="129">
            rlineto
            -4 -19 -1 -18 -11 vvcurveto
            -79 47 -39 76 145 105 269 170 vhcurveto
            endchar
          </CharString>
          <CharString index="130">
            -6 76 -76 150 -123 -21 369 136 return
          </CharString>
          <CharString index="131">
            56 -18 14 -36 -36 vvcurveto
            -50 -38 -59 -52 -39 -22 27 28 24 14 29 36 8 vhcurveto
            return
          </CharString>
          <CharString index="132">
            rmoveto
            37 -29 29 -37 -36 -31 -29 -37 -36 31 -31 36 37 29 31 36 vhcurveto
            endchar
          </CharString>
          <CharString index="133">
            582 -21 189 -20 hstem
            93 561 rmoveto
            55 hlineto
            91 189 rlineto
            -85 hlineto
            return
          </CharString>
          <CharString index="134">
            -74 -7 -46 -29 -59 hhcurveto
            -57 -42 29 56 hvcurveto
            return
          </CharString>
          <CharString index="135">
            31 -43 -33 -18 -31 -27 -23 11 -20 19 vhcurveto
            return
          </CharString>
          <CharString index="136">
            284 36 hstemhm
            56 83 391 120 -99 81 -81 99 hintmask 01111001
            139 return
          </CharString>
          <CharString index="137">
            rmoveto
            33 -28 28 -33 -34 -27 -28 -33 -34 27 -27 34 33 28 27 34 vhcurveto
            return
          </CharString>
          <CharString index="138">
            40 41 73 32 hvcurveto
            -7 -32 rlineto
            return
          </CharString>
          <CharString index="139">
            hintmask 10111010
            66 37 36 63 60 vvcurveto
            82 -66 77 -147 -189 -174 return
          </CharString>
          <CharString index="140">
            -41 39 callsubr
            return
          </CharString>
          <CharString index="141">
            rlineto
            148 hlineto
            14 59 rlineto
            -149 hlineto
            return
          </CharString>
          <CharString index="142">
            -22 callsubr
            -55 -48 -42 hhcurveto
            return
          </CharString>
          <CharString index="143">
            -47 callsubr
            -10 return
          </CharString>
          <CharString index="144">
            hhcurveto
            -262 -217 rmoveto
            7 3 0 -1 7 hvcurveto
            -109 -14 return
          </CharString>
          <CharString index="145">
            80 48 104 89 vvcurveto
            61 -22 52 -81 return
          </CharString>
          <CharString index="146">
            2 callgsubr
            429 76 -5 -20 return
          </CharString>
          <CharString index="147">
            -140 45 callgsubr
            return
          </CharString>
          <CharString index="148">
            -229 -21 1000 -20 hstem
            return
          </CharString>
          <CharString index="149">
            hhcurveto
            -33 -45 -9 -60 -46 hvcurveto
            return
          </CharString>
          <CharString index="150">
            -6 76 644 36 return
          </CharString>
          <CharString index="151">
            -21 254 -20 hstemhm
            return
          </CharString>
          <CharString index="152">
            -41 223 rlineto
            -438 -430 -41 callsubr
            hvcurveto
            return
          </CharString>
          <CharString index="153">
            27 19 20 39 41 18 -22 -25 -35 -26 -55 -68 -16 vhcurveto
            return
          </CharString>
          <CharString index="154">
            0 39 257 32 46 39 257 32 48 -20 hstem
            return
          </CharString>
          <CharString index="155">
            21 -21 693 57 -5 -20 hstemhm
            59 66 188 105 return
          </CharString>
          <CharString index="156">
            -72 -31 -31 -37 -32 hhcurveto
            -24 -6 21 28 hvcurveto
            endchar
          </CharString>
          <CharString index="157">
            106 21 -21 745 -20 25 -20 return
          </CharString>
          <CharString index="158">
            36 27 19 63 16 vhcurveto
            -5 -13 -10 -1 -9 hhcurveto
            return
          </CharString>
          <CharString index="159">
            rmoveto
            34 35 -24 -80 -93 -39 -185 -119 -16 return
          </CharString>
          <CharString index="160">
            136 -55 55 -5 -20 return
          </CharString>
          <CharString index="161">
            -88 -35 -185 -131 -16 -17 2 3 -19 return
          </CharString>
          <CharString index="162">
            24 23 5 12 42 hvcurveto
            -24 9 -15 26 33 return
          </CharString>
          <CharString index="163">
            -292 -6 76 630 -20 hstem
            7 100 vstem
            return
          </CharString>
          <CharString index="164">
            301 745 rlineto
            -57 hlineto
            -255 -665 return
          </CharString>
          <CharString index="165">
            rlineto
            hintmask 11101000
            -9 43 44 -9 42 hhcurveto
            endchar
          </CharString>
          <CharString index="166">
            -147 -686 rlineto
            100 hlineto
            return
          </CharString>
          <CharString index="167">
            64 callgsubr
            392 101 return
          </CharString>
          <CharString index="168">
            -124 -141 -67 return
          </CharString>
          <CharString index="169">
            -109 -513 rlineto
            return
          </CharString>
          <CharString index="170">
            65 vhcurveto
            -37 hlineto
            return
          </CharString>
          <CharString index="171">
            50 hhcurveto
            70 93 57 81 50 hvcurveto
            -97 23 return
          </CharString>
          <CharString index="172">
            73 48 108 89 vvcurveto
            60 -22 52 -81 return
          </CharString>
          <CharString index="173">
            30 -30 170 110 127 -25 25 return
          </CharString>
          <CharString index="174">
            -47 -222 rlineto
            -53 -19 -55 -40 -37 hhcurveto
            return
          </CharString>
          <CharString index="175">
            -106 -500 rlineto
            100 hlineto
            79 369 rlineto
            return
          </CharString>
          <CharString index="176">
            -100 -470 -36 -4 -39 -7 -46 -12 rlinecurve
            return
          </CharString>
          <CharString index="177">
            -25 callgsubr
            endchar
          </CharString>
        <CharString name=".notdef">
          -123 endchar
        </CharString>
        <CharString name="A">
          -62 callsubr
          18 callgsubr
          hintmask 11101100
          -101 callgsubr
          hintmask 11011010
          -104 callgsubr
          endchar
        </CharString>
        <CharString name="A.salt">
          27 -93 -21 135 -21 380 38 283 49 hstem
          -32 104 vstem
          419 hmoveto
          157 736 rlineto
          10 -24 -33 4 -20 hhcurveto
          -242 -289 -559 -199 -92 63 -14 50 hvcurveto
          -6 19 -3 22 27 vvcurveto
          111 51 167 69 148 vhcurveto
          198 hlineto
          -80 -380 rlineto
          148 701 rmoveto
          -60 -283 rlineto
          -187 hlineto
          78 154 96 125 73 4 rrcurveto
          endchar
        </CharString>
        <CharString name="AE">
          325 -93 -21 114 70 216 168 -100 59 244 74 -74 93 hstemhm
          15 104 -29 104 hintmask 11100110
          805 657 rmoveto
          45 41 14 79 22 hvcurveto
          hintmask 11101010
          -9 -26 -54 -10 -35 hhcurveto
          hintmask 11100110
          -48 -72 19 -47 hhcurveto
          -127 -133 -136 -162 -103 hvcurveto
          1 -11 -12 1 -14 hhcurveto
          -86 -130 -25 -91 -39 27 -13 28 23 26 9 31 8 -2 11 -18 6 hvcurveto
          hintmask 11010101
          36 66 23 79 3 vhcurveto
          -92 -156 -62 -171 -93 vvcurveto
          -93 62 -14 51 vhcurveto
          -6 19 -3 22 27 vvcurveto
          119 57 182 77 154 vhcurveto
          66 -7 68 -18 46 -25 -76 -359 rcurveline
          329 hlineto
          15 70 rlineto
          -220 hlineto
          60 284 34 callsubr
          57 266 rlineto
          -11 37 41 -11 41 hhcurveto
          -460 -215 rmoveto
          74 138 88 110 73 11 -66 -311 rcurveline
          -40 21 -63 20 -66 11 rrcurveto
          endchar
        </CharString>
        <CharString name="Aacute">
          -62 callsubr
          250 -20 18 callgsubr
          hintmask 11101110
          -101 callgsubr
          hintmask 11011101
          -104 callgsubr
          167 369 -102 callsubr
          endchar
        </CharString>
        <CharString name="Acircumflex">
          -62 callsubr
          228 -20 18 callgsubr
          hintmask 11101110
          -101 callgsubr
          hintmask 11011101
          -104 callgsubr
          365 369 -96 callgsubr
        </CharString>
        <CharString name="Adieresis">
          -62 callsubr
          90 105 18 callgsubr
          258 105 59 105 hintmask 1110111011000000
          -101 callgsubr
          hintmask 1101110111000000
          -104 callgsubr
          270 450 -82 callsubr
        </CharString>
        <CharString name="Agrave">
          -62 callsubr
          250 -20 18 callgsubr
          hintmask 11101110
          -101 callgsubr
          hintmask 11011101
          -104 callgsubr
          199 558 -63 callsubr
        </CharString>
        <CharString name="Aogonek">
          95 -193 49 165 -21 286 168 -41 41 247 49 18 callgsubr
          167 69 hintmask 11101101
          -101 callgsubr
          hintmask 11011011
          36 66 23 80 3 vhcurveto
          -92 -157 -63 -171 -93 vvcurveto
          -92 63 -14 50 vhcurveto
          -6 19 -3 22 27 vvcurveto
          119 58 182 77 154 vhcurveto
          65 -7 69 -18 45 -25 -76 -359 rcurveline
          -46 -38 -25 -41 -36 -29 callgsubr
          35 28 34 28 15 hvcurveto
          -140 442 rmoveto
          75 143 90 113 69 3 -66 -311 rcurveline
          -40 21 -63 20 -65 11 rrcurveto
          endchar
        </CharString>
        <CharString name="Aring">
          -62 callsubr
          52 35 93 33 18 callgsubr
          316 40 80 37 hintmask 1110111101100000
          -101 callgsubr
          hintmask 1101111011100000
          -104 callgsubr
          249 521 rmoveto
          -58 callgsubr
        </CharString>
        <CharString name="Atilde">
          -62 callsubr
          75 70 -37 66 18 callgsubr
          hintmask 1110110100000000
          -101 callgsubr
          hintmask 1101110010000000
          -104 callgsubr
          431 473 -11 callsubr
          hintmask 1110101100000000
          -76 callsubr
          hintmask 1110110100000000
          -56 callgsubr
        </CharString>
        <CharString name="B">
          171 -17 81 -43 -21 394 36 29 callsubr
          461 rmoveto
          172 138 81 122 102 13 callsubr
          83 390 rlineto
          2 22 27 2 7 hhcurveto
          hintmask 10111100
          94 20 -59 -76 -80 -30 -115 -87 -27 -27 9 30 -16 hvcurveto
          -8 -16 -5 -21 -14 vvcurveto
          -45 41 -24 60 167 52 192 96 75 -43 68 -77 17 vhcurveto
          32 callsubr
          -127 -138 -67 37 -25 60 vhcurveto
          -3 9 -11 18 41 vvcurveto
          endchar
        </CharString>
        <CharString name="B.salt">
          170 -27 76 -28 -21 393 37 29 callsubr
          464 rmoveto
          168 138 82 123 101 13 callsubr
          8 38 rlineto
          hintmask 10111100
          -36 27 50 -29 62 hhcurveto
          162 64 200 96 78 -43 67 -77 17 hvcurveto
          32 callsubr
          -126 -140 -66 38 -25 59 vhcurveto
          -3 10 -11 14 47 vvcurveto
          279 -70 rmoveto
          hintmask 10111100
          90 22 -59 -69 -91 -38 -126 -98 -43 -33 23 21 -21 hvcurveto
          63 297 rlineto
          2 19 23 2 16 hhcurveto
          endchar
        </CharString>
        <CharString name="C">
          16 callsubr
          hstemhm
          45 121 326 69 hintmask 10111000
          526 180 rmoveto
          -81 -52 -61 -39 -91 hhcurveto
          -136 -20 88 93 201 93 272 159 46 28 -23 -44 -49 -25 -45 -18 -11 hvcurveto
          hintmask 11011000
          -12 9 17 -6 16 hhcurveto
          51 19 40 50 99 -74 37 -89 -269 -84 -340 -181 -171 75 -74 131 123 121 66 120 54 hvcurveto
          endchar
        </CharString>
        <CharString name="Cacute">
          16 callsubr
          250 -84 callgsubr
          -135 641 -102 callsubr
          endchar
        </CharString>
        <CharString name="Ccaron">
          16 callsubr
          242 -84 callgsubr
          -188 822 -73 callgsubr
        </CharString>
        <CharString name="Ccedilla">
          -2 61 callgsubr
          42 76 464 226 -36 36 hstemhm
          45 121 161 63 102 69 hintmask 1011011110000000
          390 14 callsubr
          21 53 107 14 98 64 48 105 rlinecurve
          -23 10 rlineto
          -81 -52 -61 -39 -91 hhcurveto
          -136 -20 88 93 201 93 272 159 46 28 -23 -44 -49 -25 -45 -18 -11 hvcurveto
          hintmask 1011101110000000
          -12 9 17 -6 16 hhcurveto
          51 19 40 50 99 -74 37 -89 -269 -84 -340 -181 -171 75 -74 133 hvcurveto
          -37 -103 -2 callgsubr
          hintmask 0111101110000000
          -28 callsubr
        </CharString>
        <CharString name="Ccircumflex">
          16 callsubr
          228 -84 callgsubr
          7 641 -96 callgsubr
        </CharString>
        <CharString name="D">
          196 -13 65 -31 -21 714 36 hstemhm
          56 73 451 115 hintmask 01111000
          309 641 rmoveto
          11 callgsubr
          9 45 rlineto
          hintmask 10111000
          -18 callgsubr
          8 callsubr
          124 578 rlineto
          endchar
        </CharString>
        <CharString name="E">
          0 callgsubr
          hstemhm
          12 117 7 94 205 63 hintmask 10111100
          466 180 rmoveto
          -63 -37 -80 -56 -84 callsubr
          hintmask 11011100
          -95 callgsubr
          119 122 70 118 52 vhcurveto
          endchar
        </CharString>
        <CharString name="E.salt">
          73 0 70 284 59 233 -55 callsubr
          342 hlineto
          15 70 rlineto
          -232 hlineto
          60 284 rlineto
          160 hlineto
          14 59 rlineto
          -161 hlineto
          54 251 58 callsubr
        </CharString>
        <CharString name="E_x">
          260 -18 79 -67 67 396 100 -34 229 -38 38 hstemhm
          13 117 7 94 205 63 166 109 hintmask 1010111110000000
          461 462 rmoveto
          51 -277 rlineto
          -62 -39 -125 -62 -95 hhcurveto
          -83 -40 47 80 100 63 105 118 25 hvcurveto
          -64 13 -16 57 52 vvcurveto
          116 78 58 60 30 37 -14 -57 -52 -31 -31 -27 -10 vhcurveto
          hintmask 1001011110000000
          -95 callgsubr
          108 139 58 99 77 vhcurveto
          hintmask 0110111110000000
          -102 22 30 -43 67 -87 callgsubr
          -97 callgsubr
          -35 190 rcurveline
          endchar
        </CharString>
        <CharString name="Eacute">
          0 callgsubr
          248 -91 callgsubr
          -133 641 -102 callsubr
          endchar
        </CharString>
        <CharString name="Ecircumflex">
          0 callgsubr
          226 -91 callgsubr
          17 641 -96 callgsubr
        </CharString>
        <CharString name="Edieresis">
          0 callgsubr
          88 105 hstemhm
          12 117 7 94 31 105 69 63 -63 95 hintmask 1011111100000000
          466 180 rmoveto
          -63 -37 -80 -56 -84 callsubr
          hintmask 1101111100000000
          -95 callgsubr
          119 122 70 118 52 vhcurveto
          -228 722 -74 callsubr
          vhcurveto
          hintmask 1101111010000000
          29 24 23 29 29 -24 24 -29 -29 -23 -24 -29 hvcurveto
          endchar
        </CharString>
        <CharString name="Egrave">
          0 callgsubr
          248 -91 callgsubr
          -137 830 -63 callsubr
        </CharString>
        <CharString name="Eogonek">
          -59 -193 51 124 79 462 229 -38 38 hstemhm
          12 117 7 94 -5 73 137 63 hintmask 11011101
          466 180 rmoveto
          -67 -31 -86 -52 -84 callsubr
          hintmask 11101101
          -95 callgsubr
          32 33 5 10 31 vhcurveto
          hintmask 11101011
          -44 -37 -23 -40 -35 vvcurveto
          -35 24 -43 55 52 32 39 23 25 vhcurveto
          2 31 rlineto
          -18 -19 -26 -24 -24 hhcurveto
          -35 -13 33 25 101 171 52 20 101 hvcurveto
          endchar
        </CharString>
        <CharString name="Eth">
          196 -13 65 -31 -21 352 61 301 36 hstemhm
          56 73 451 115 hintmask 10111100
          129 464 rmoveto
          8 callsubr
          59 274 rlineto
          82 hlineto
          16 61 rlineto
          -85 hlineto
          52 243 -112 -15 -49 -228 rlineto
          -63 hlineto
          -16 -61 rlineto
          66 hlineto
          hintmask 01111100
          -76 -352 1 callgsubr
          9 45 rlineto
          hintmask 10111100
          -18 callgsubr
          endchar
        </CharString>
        <CharString name="Euro">
          103 -16 76 234 40 75 40 75 226 -36 36 hstemhm
          102 121 309 69 hintmask 11101110
          31 334 rmoveto
          -11 -40 rlineto
          84 hlineto
          -2 -21 0 -19 -17 vvcurveto
          -179 74 -74 127 98 92 44 56 46 vhcurveto
          40 vlineto
          -43 -43 -50 -21 -67 hhcurveto
          -137 -19 88 98 15 0 16 1 17 hvcurveto
          198 hlineto
          11 40 rlineto
          -206 hlineto
          3 25 4 25 5 25 rrcurveto
          208 hlineto
          11 40 rlineto
          -211 hlineto
          141 34 70 124 108 hhcurveto
          45 28 -22 -48 -45 -25 -46 -18 -11 hvcurveto
          hintmask 11110110
          -12 9 16 -6 19 hhcurveto
          48 20 40 51 98 -75 37 -88 -178 -90 -150 -151 -40 hvcurveto
          -74 hlineto
          -11 -40 rlineto
          75 hlineto
          -5 -26 -4 -25 -3 -24 rrcurveto
          endchar
        </CharString>
        <CharString name="F">
          46 21 -21 376 59 211 -55 callsubr
          110 hlineto
          80 376 34 callsubr
          49 229 58 callsubr
        </CharString>
        <CharString name="F_i">
          260 2 callgsubr
          376 59 65 -20 135 115 -48 68 hstemhm
          118 72 369 100 hintmask 10111011
          686 615 rmoveto
          75 27 47 87 17 hvcurveto
          -14 -54 -48 -5 -43 hhcurveto
          hintmask 01110111
          16 callgsubr
          118 59 69 120 4 vhcurveto
          -146 -682 1 callgsubr
          80 376 34 callsubr
          50 234 rlineto
          hintmask 10111011
          -20 78 68 -34 64 hhcurveto
          -50 -115 rmoveto
          11 callsubr
          -17 callgsubr
          endchar
        </CharString>
        <CharString name="G">
          38 callgsubr
          hstemhm
          50 120 -70 220 196 81 hintmask 11101101
          -8 callsubr
          hintmask 11110101
          -44 callsubr
          hintmask 11110011
          -3 callsubr
          endchar
        </CharString>
        <CharString name="Gbreve">
          38 callgsubr
          65 35 -35 138 hstemhm
          50 120 -70 220 -8 69 135 81 -81 142 hintmask 1110110101100000
          -8 callsubr
          hintmask 1111010101100000
          -44 callsubr
          hintmask 1111001010100000
          -3 callsubr
          15 535 rmoveto
          hintmask 1111010101100000
          27 callsubr
          hintmask 1111001101010000
          -31 callgsubr
          endchar
        </CharString>
        <CharString name="H">
          21 -21 376 59 315 -20 hstem
          58 76 vstem
          624 717 rmoveto
          -61 -282 rlineto
          -215 hlineto
          67 313 rlineto
          1 -13 -13 1 -15 hhcurveto
          -150 -166 61 callsubr
          43 -25 57 hvcurveto
          -16 9 -8 17 43 vvcurveto
          116 66 87 95 33 vhcurveto
          -149 -698 1 callgsubr
          80 376 rlineto
          215 hlineto
          -80 -376 1 callgsubr
          159 748 rlineto
          endchar
        </CharString>
        <CharString name="I">
          -104 21 -21 750 -20 hstem
          56 83 vstem
          -94 callgsubr
          110 hlineto
          endchar
        </CharString>
        <CharString name="IJ">
          166 -207 40 186 -21 752 -20 hstemhm
          56 83 23 71 -71 204 hintmask 11111000
          -94 callgsubr
          -11 -21 -5 -25 -28 vvcurveto
          -73 41 -60 115 144 73 95 152 32 vhcurveto
          150 710 -117 -26 -160 -758 rlineto
          -104 -22 -68 -29 -38 hhcurveto
          -42 -37 35 44 37 25 49 46 25 21 -15 -13 9 hvcurveto
          hintmask 11110100
          4 12 3 12 9 vvcurveto
          22 -19 27 -47 5 vhcurveto
          endchar
        </CharString>
        <CharString name="Iacute">
          -104 21 -21 750 -20 270 -20 hstem
          56 83 vstem
          -94 callgsubr
          110 hlineto
          65 811 -102 callsubr
          endchar
        </CharString>
        <CharString name="Icircumflex">
          -104 21 -21 750 -20 248 -20 hstem
          56 83 vstem
          -94 callgsubr
          110 hlineto
          251 811 -96 callgsubr
        </CharString>
        <CharString name="Idieresis">
          -104 21 -21 750 -20 110 105 hstem
          56 83 117 105 59 105 vstem
          -94 callgsubr
          110 hlineto
          132 892 -82 callsubr
        </CharString>
        <CharString name="Igrave">
          -104 21 -21 750 -20 270 -20 hstem
          56 83 vstem
          -94 callgsubr
          110 hlineto
          75 1000 -63 callsubr
        </CharString>
        <CharString name="J">
          -68 -207 40 163 72 682 -20 hstemhm
          -72 71 -71 217 -53 83 hintmask 11110100
          443 750 rmoveto
          -167 -184 61 callsubr
          15 callgsubr
          -11 10 -13 16 52 vvcurveto
          107 68 88 117 26 vhcurveto
          -154 -726 rlineto
          -103 -22 -67 -30 -38 hhcurveto
          -43 -37 35 44 38 30 46 48 18 28 -14 -21 13 hvcurveto
          hintmask 11101000
          4 15 5 14 11 vvcurveto
          62 -51 5 -27 -99 -40 -65 -75 -75 41 -60 114 149 70 100 147 31 vhcurveto
          150 710 rlineto
          endchar
        </CharString>
        <CharString name="K">
          139 4 -21 38 -21 393 33 319 -20 25 -20 hstemhm
          56 77 292 121 -63 63 -63 112 hintmask 0110110100000000
          447 748 rmoveto
          1 -13 -13 1 -15 hhcurveto
          -166 -184 61 callsubr
          43 -25 55 hvcurveto
          -12 13 -9 17 46 vvcurveto
          116 79 79 114 28 vhcurveto
          -148 -692 1 callgsubr
          81 383 rlineto
          3 14 14 2 13 hhcurveto
          42 31 -19 -62 hvcurveto
          hintmask 1010111000000000
          56 callgsubr
          hintmask 0110111000000000
          55 callsubr
          vvcurveto
          hintmask 0111010010000000
          61 49 108 81 vvcurveto
          62 -29 46 -101 -11 -15 -1 -1 -17 vhcurveto
          292 321 rlineto
          -88 hlineto
          -248 -320 rlineto
          endchar
        </CharString>
        <CharString name="L">
          -60 -216 117 839 -25 callsubr
          -150 -705 rlineto
          1 8 7 0 8 144 114 -194 105 hhcurveto
          66 34 49 84 11 hvcurveto
          -13 -30 -28 -3 -25 hhcurveto
          -114 -91 95 23 -92 hvcurveto
          endchar
        </CharString>
        <CharString name="Lslash">
          -20 -226 117 849 -25 callsubr
          -64 -298 -115 -75 -2 -43 107 69 -76 -358 rlineto
          1 8 7 0 8 160 126 -204 117 hhcurveto
          66 34 49 84 11 hvcurveto
          -12 -29 -29 -4 -25 hhcurveto
          -130 -103 106 23 -104 hvcurveto
          85 397 127 83 3 44 -119 -78 rlineto
          endchar
        </CharString>
        <CharString name="M">
          242 21 -21 750 -20 hstem
          59 83 153 115 vstem
          423 736 rmoveto
          10 -16 -21 4 -22 hhcurveto
          -120 -185 -130 -137 -65 39 -25 58 hvcurveto
          -7 9 -7 12 48 vvcurveto
          126 62 88 112 24 vhcurveto
          -259 -700 rlineto
          60 hlineto
          190 512 -23 -512 rlineto
          107 hlineto
          218 522 -74 -522 rlineto
          114 hlineto
          105 736 rlineto
          -114 hlineto
          -243 -581 rlineto
          endchar
        </CharString>
        <CharString name="N">
          39 callgsubr
          hstemhm
          60 73 hintmask 11010000
          9 callsubr
          hintmask 10110000
          -66 callgsubr
          hintmask 11010000
          170 748 rlineto
          endchar
        </CharString>
        <CharString name="N.salt">
          194 2 callgsubr
          677 73 hstemhm
          56 83 342 115 -17 117 hintmask 01110100
          -94 callgsubr
          110 hlineto
          120 567 rlineto
          69 20 51 41 41 hhcurveto
          33 26 -27 -52 hvcurveto
          hintmask 10111000
          -102 -98 -293 -115 vvcurveto
          -60 27 -34 60 47 72 21 164 56 vhcurveto
          -24 hlineto
          -52 -17 -46 -57 -36 hhcurveto
          -13 -11 17 28 hvcurveto
          hintmask 10110100
          103 100 305 95 vvcurveto
          71 -44 61 -77 -56 -54 -33 -55 -37 vhcurveto
          endchar
        </CharString>
        <CharString name="Nacute">
          39 callgsubr
          270 -20 hstemhm
          60 73 hintmask 11011000
          9 callsubr
          hintmask 10111000
          -66 callgsubr
          hintmask 11011000
          170 748 rlineto
          -209 63 -102 callsubr
          endchar
        </CharString>
        <CharString name="Ntilde">
          39 callgsubr
          95 70 -37 66 hstemhm
          60 73 hintmask 11010100
          9 callsubr
          hintmask 10110100
          -66 callgsubr
          hintmask 11010100
          170 748 rlineto
          -35 167 -11 callsubr
          hintmask 10101100
          -76 callsubr
          hintmask 10110100
          -56 callgsubr
        </CharString>
        <CharString name="O">
          43 callsubr
          hstem
          54 -27 callsubr
          vstem
          -107 callgsubr
          endchar
        </CharString>
        <CharString name="OE">
          356 0 70 -55 -21 360 59 233 92 -24 36 hstemhm
          54 -27 callsubr
          hintmask 01110111
          469 656 rmoveto
          6 -18 -18 2 -15 hhcurveto
          -182 -90 -307 -162 -146 73 -55 109 hvcurveto
          hintmask 10110111
          21 20 2 4 19 hvcurveto
          396 hlineto
          15 70 rlineto
          -273 hlineto
          79 70 49 109 23 105 rrcurveto
          126 hlineto
          14 59 rlineto
          -129 hlineto
          4 29 2 28 27 vvcurveto
          73 -16 63 -37 44 vhcurveto
          -10 63 70 -21 65 hhcurveto
          hintmask 10101111
          46 42 12 92 23 hvcurveto
          hintmask 10110111
          -9 -28 -30 -3 -33 hhcurveto
          hintmask 10101111
          -67 -43 12 -69 hhcurveto
          -46 -35 -8 -11 -32 hvcurveto
          12 -32 -38 7 -45 hhcurveto
          -99 callgsubr
          endchar
        </CharString>
        <CharString name="Oacute">
          43 callsubr
          250 -20 hstem
          54 -27 callsubr
          vstem
          -107 callgsubr
          -3 155 -102 callsubr
          endchar
        </CharString>
        <CharString name="Ocircumflex">
          43 callsubr
          228 -20 hstem
          54 -27 callsubr
          vstem
          -107 callgsubr
          169 155 -96 callgsubr
        </CharString>
        <CharString name="Odieresis">
          43 callsubr
          90 105 hstemhm
          54 81 11 120 139 105 59 105 -93 113 hintmask 11111101
          -107 callgsubr
          -64 236 rmoveto
          -98 callgsubr
          hintmask 11111110
          18 callsubr
        </CharString>
        <CharString name="Ograve">
          43 callsubr
          250 -20 hstem
          54 -27 callsubr
          vstem
          -107 callgsubr
          -3 344 -63 callsubr
        </CharString>
        <CharString name="Ohungarumlaut">
          43 callsubr
          61 189 hstem
          54 -27 callsubr
          vstem
          -107 callgsubr
          -37 155 -102 callsubr
          39 -189 -102 callsubr
          endchar
        </CharString>
        <CharString name="Oslash">
          178 -50 -21 785 36 3 -20 hstemhm
          52 -27 callsubr
          hintmask 10111100
          340 -71 rmoveto
          14 67 rlineto
          237 21 101 291 189 vvcurveto
          129 -48 96 -131 23 vhcurveto
          1 8 rlineto
          -32 -4 hlineto
          hintmask 11011100
          1 -11 -10 0 -11 hhcurveto
          -203 -195 -133 -140 -61 34 -23 57 hvcurveto
          -8 10 -2 11 34 vvcurveto
          164 144 102 149 17 16 -1 -3 14 vhcurveto
          -11 -53 rlineto
          5 -16 -17 2 -13 hhcurveto
          -182 -90 -307 -162 -144 71 -55 107 -2 hvcurveto
          -14 -65 rlineto
          271 610 rmoveto
          -211 -105 -230 -104 -26 vhcurveto
          134 630 rlineto
          56 -21 19 -52 -90 vvcurveto
          -315 -348 rmoveto
          151 93 250 104 61 vhcurveto
          -123 -582 rlineto
          -55 6 -19 43 71 vvcurveto
          endchar
        </CharString>
        <CharString name="Otilde">
          43 callsubr
          75 70 -37 66 hstemhm
          54 -27 callsubr
          hintmask 11101110
          -107 callgsubr
          235 259 -11 callsubr
          hintmask 11011110
          -76 callsubr
          hintmask 11101110
          -56 callgsubr
        </CharString>
        <CharString name="P">
          93 21 -21 285 31 398 36 hstem
          56 76 420 91 vstem
          299 641 rmoveto
          11 callgsubr
          61 285 rlineto
          22 hlineto
          180 109 142 125 104 -75 94 -154 -177 -181 61 callsubr
          37 -25 60 hvcurveto
          -6 7 -15 19 44 vvcurveto
          162 123 89 136 128 33 -67 -75 -115 -70 -139 -144 -2 vhcurveto
          -72 callgsubr
          endchar
        </CharString>
        <CharString name="Q">
          205 -91 62 23 76 50 30 564 36 hstem
          54 81 11 120 315 111 vstem
          469 656 rmoveto
          6 -18 -18 2 -15 hhcurveto
          -182 -90 -307 -162 -146 74 -55 104 40 36 8 14 34 hvcurveto
          -53 23 27 -54 76 hhcurveto
          43 26 18 46 21 hvcurveto
          -1 -8 -6 -1 -10 hhcurveto
          -66 -35 38 42 -32 hvcurveto
          133 98 66 204 145 vvcurveto
          140 -62 112 -182 -198 -196 -133 -141 -60 35 -23 56 vhcurveto
          -8 9 -2 17 21 vvcurveto
          178 144 96 153 113 36 -52 -125 -164 -62 -175 -81 -82 vhcurveto
          20 -23 -28 14 -39 hhcurveto
          -18 -28 -3 -9 -31 hvcurveto
          -4 16 -1 19 21 vvcurveto
          150 97 257 106 55 vhcurveto
          -136 -536 rmoveto
          30 20 -14 -21 15 hvcurveto
          -10 -17 -18 -5 -18 hhcurveto
          -29 -21 14 25 -13 hvcurveto
          8 19 18 3 14 hhcurveto
          endchar
        </CharString>
        <CharString name="R">
          147 4 -21 38 -21 388 35 291 36 hstemhm
          56 83 286 121 -63 63 3 46 -46 85 hintmask 0111101100000000
          299 641 rmoveto
          11 callgsubr
          81 381 rlineto
          4 17 26 3 15 hhcurveto
          42 31 -19 -62 hvcurveto
          hintmask 1011110100000000
          56 callgsubr
          hintmask 0111110100000000
          55 callsubr
          61 49 108 81 vvcurveto
          50 -18 39 -58 13 vhcurveto
          hintmask 0111110010000000
          74 38 41 69 62 vvcurveto
          86 -76 75 -142 -185 -175 -127 -138 -67 48 -25 47 vhcurveto
          -6 9 -6 13 46 vvcurveto
          158 121 95 143 114 32 -54 -58 -81 -69 -98 -93 vhcurveto
          -26 hlineto
          50 233 rlineto
          endchar
        </CharString>
        <CharString name="S">
          23 callgsubr
          hstemhm
          -1 96 29 105 100 125 -20 72 hintmask 11011101
          506 632 rmoveto
          108 -107 10 -46 -127 -102 -75 -104 vhcurveto
          hintmask 11011110
          -147 205 -61 -171 vvcurveto
          -97 -69 -46 -63 -53 -49 37 64 72 64 27 55 vhcurveto
          48 -8 -30 18 -35 hhcurveto
          -60 -82 -56 -109 -121 102 -47 103 134 116 79 163 hvcurveto
          227 -225 9 150 vvcurveto
          67 49 37 73 vhcurveto
          hintmask 11101101
          64 19 -38 -38 -36 -19 -36 -27 -16 hvcurveto
          -14 11 10 -7 18 hhcurveto
          44 35 42 61 hvcurveto
          endchar
        </CharString>
        <CharString name="Sacute">
          23 callgsubr
          250 -72 callsubr
          -135 179 -102 callsubr
          endchar
        </CharString>
        <CharString name="Scaron">
          23 callgsubr
          242 -72 callsubr
          -200 360 -73 callgsubr
        </CharString>
        <CharString name="T">
          163 21 -21 630 96 -54 77 hstemhm
          62 71 hintmask 11010000
          647 630 rmoveto
          84 42 37 80 2 hvcurveto
          -11 -27 -40 -10 -55 hhcurveto
          hintmask 10110000
          -83 -55 -20 callgsubr
          139 653 rlineto
          hintmask 11010000
          -11 57 54 -12 48 hhcurveto
          endchar
        </CharString>
        <CharString name="T_h">
          474 0 70 -55 -21 435 76 167 77 hstemhm
          62 71 636 4 callgsubr
          hintmask 10111010
          875 119 rmoveto
          hintmask 10111001
          -39 callgsubr
          37 193 14 61 27 59 rrcurveto
          -11 -27 -37 -1 -55 -83 -45 -20 callgsubr
          142 662 50 -9 48 -7 43 -2 rlinecurve
          -139 -644 rlineto
          100 41 callgsubr
          37 34 -47 callgsubr
          hintmask 01111100
          -71 -48 -108 -88 vvcurveto
          -64 27 -49 69 41 65 17 168 63 callsubr
          hintmask 10111010
          49 callsubr
        </CharString>
        <CharString name="T_i">
          211 2 callgsubr
          500 -20 135 115 -48 68 hstemhm
          61 72 377 100 hintmask 01101110
          322 682 rmoveto
          20 19 -2 -3 20 hvcurveto
          -146 -677 1 callgsubr
          139 652 rlineto
          hintmask 10110110
          -18 61 56 -19 48 hhcurveto
          75 27 47 87 17 hvcurveto
          -14 -54 -68 -5 -43 hhcurveto
          hintmask 10101110
          16 callgsubr
          121 63 70 126 vhcurveto
          265 -182 rmoveto
          11 callsubr
          -17 callgsubr
          endchar
        </CharString>
        <CharString name="Thorn">
          93 21 -21 175 30 398 37 109 -20 hstem
          34 71 433 81 vstem
          305 734 rmoveto
          -24 -109 rlineto
          -134 -37 -113 -99 -114 vvcurveto
          -60 31 -29 54 vhcurveto
          -3 9 -11 8 50 vvcurveto
          123 67 84 102 31 vhcurveto
          -127 -591 1 callgsubr
          37 176 rlineto
          -1 13 21 0 2 hhcurveto
          180 109 142 125 103 -74 93 -151 2 hvcurveto
          23 109 rlineto
          121 -288 rmoveto
          -118 -92 -138 -123 vhcurveto
          -23 hlineto
          86 398 rlineto
          117 -5 35 -65 -72 vvcurveto
          endchar
        </CharString>
        <CharString name="U">
          -12 callgsubr
          hstemhm
          55 72 83 116 hintmask 11011000
          708 748 rmoveto
          -67 -309 rlineto
          -327 -71 -58 -42 -97 hhcurveto
          -77 -12 41 68 87 42 134 93 345 hvcurveto
          hintmask 10111000
          4 -21 -10 1 -17 hhcurveto
          -174 -184 -124 -141 -61 41 -30 46 hvcurveto
          -4 9 -11 11 49 vvcurveto
          128 78 92 123 24 vhcurveto
          -36 -147 rlineto
          -42 -169 -40 -141 -95 vvcurveto
          -104 48 -58 145 225 58 139 304 64 vhcurveto
          hintmask 11011000
          66 312 rlineto
          endchar
        </CharString>
        <CharString name="Uacute">
          -12 callgsubr
          270 -20 -100 callsubr
          -259 63 -102 callsubr
          endchar
        </CharString>
        <CharString name="Ucircumflex">
          -12 callgsubr
          248 -20 -100 callsubr
          -79 63 -96 callgsubr
        </CharString>
        <CharString name="Udieresis">
          -12 callgsubr
          110 105 hstemhm
          55 72 83 116 168 105 59 105 hintmask 11011111
          708 748 rmoveto
          -67 -309 rlineto
          -327 -71 -58 -42 -97 hhcurveto
          -77 -12 41 68 87 42 134 93 345 hvcurveto
          hintmask 10111111
          4 -21 -10 1 -17 hhcurveto
          -174 -184 -124 -141 -61 41 -30 46 hvcurveto
          -4 9 -11 11 49 vvcurveto
          128 78 92 123 24 vhcurveto
          -36 -147 rlineto
          -42 -169 -40 -141 -95 vvcurveto
          -104 48 -58 145 225 58 139 304 64 vhcurveto
          hintmask 11011111
          66 312 rlineto
          -158 144 -82 callsubr
        </CharString>
        <CharString name="Ugrave">
          -12 callgsubr
          270 -20 -100 callsubr
          -229 252 -63 callsubr
        </CharString>
        <CharString name="Uhungarumlaut">
          -12 callgsubr
          81 189 -100 callsubr
          -182 63 -102 callsubr
          -221 -189 -102 callsubr
          endchar
        </CharString>
        <CharString name="V">
          152 48 callsubr
          hintmask 11011000
          410 746 rmoveto
          2 -13 -14 2 -15 hhcurveto
          -186 -123 -124 -141 -71 43 -20 44 hvcurveto
          -14 26 -7 32 33 vvcurveto
          99 50 109 125 vhcurveto
          27 -693 rlineto
          111 hlineto
          hintmask 10111000
          57 callsubr
          rlineto
          endchar
        </CharString>
        <CharString name="W">
          498 48 callsubr
          245 101 hintmask 11011100
          410 746 rmoveto
          2 -13 -14 2 -15 hhcurveto
          -186 -123 -124 -141 -71 43 -20 44 hvcurveto
          -14 26 -7 32 33 vvcurveto
          99 50 109 125 vhcurveto
          27 -693 rlineto
          111 hlineto
          216 534 19 -534 rlineto
          111 hlineto
          hintmask 10111100
          57 callsubr
          -17 665 rlineto
          -74 hlineto
          -255 -665 rlineto
          endchar
        </CharString>
        <CharString name="X">
          125 21 -21 745 -20 26 -20 hstemhm
          60 68 hintmask 11010000
          582 hmoveto
          -85 348 196 397 rlineto
          -47 hlineto
          -163 -338 -83 341 rlineto
          hintmask 10110000
          2 -13 -14 1 -14 hhcurveto
          -147 -152 -108 -158 -67 33 -15 51 hvcurveto
          -7 9 -9 16 48 vvcurveto
          109 74 105 93 24 vhcurveto
          87 -349 -192 -365 rlineto
          47 hlineto
          160 306 77 -306 rlineto
          endchar
        </CharString>
        <CharString name="Y">
          50 callsubr
          hstemhm
          59 63 hintmask 11010000
          -18 callsubr
          hintmask 10110000
          1 -13 -13 1 -15 hhcurveto
          -166 -133 61 callsubr
          33 -25 54 hvcurveto
          -16 25 -8 33 37 vvcurveto
          89 51 106 120 31 vhcurveto
          104 -406 -66 -308 rlineto
          endchar
        </CharString>
        <CharString name="Yacute">
          50 callsubr
          270 -20 hstemhm
          59 63 hintmask 11011000
          -18 callsubr
          hintmask 10111000
          1 -13 -13 1 -15 hhcurveto
          -166 -133 61 callsubr
          33 -25 54 hvcurveto
          -16 25 -8 33 37 vvcurveto
          89 51 106 120 31 vhcurveto
          104 -406 -66 -308 rlineto
          217 811 -102 callsubr
          endchar
        </CharString>
        <CharString name="Ydieresis">
          50 callsubr
          110 105 hstemhm
          59 63 286 105 59 105 hintmask 11011110
          -18 callsubr
          hintmask 10111110
          1 -13 -13 1 -15 hhcurveto
          -166 -133 61 callsubr
          33 -25 54 hvcurveto
          -16 25 -8 33 37 vvcurveto
          89 51 106 120 31 vhcurveto
          104 -406 -66 -308 rlineto
          241 892 -82 callsubr
        </CharString>
        <CharString name="Z">
          -4 callgsubr
          hstemhm
          84 108 191 110 hintmask 10101100
          400 71 -69 callsubr
          hintmask 10011100
          -55 callgsubr
          hintmask 01101100
          -16 callsubr
          endchar
        </CharString>
        <CharString name="Zacute">
          -4 callgsubr
          250 -66 callsubr
          -43 740 -102 callsubr
          endchar
        </CharString>
        <CharString name="Zcaron">
          -4 callgsubr
          242 -66 callsubr
          -70 921 -73 callgsubr
        </CharString>
        <CharString name="Zdotaccent">
          -4 callgsubr
          73 122 hstemhm
          84 108 116 122 -47 110 hintmask 10101110
          430 884 30 callsubr
          -30 -813 -69 callsubr
          hintmask 10011101
          -55 callgsubr
          hintmask 01101101
          -16 callsubr
          endchar
        </CharString>
        <CharString name="a">
          -14 callsubr
          hstemhm
          5 107 173 91 hintmask 10111000
          353 36 callsubr
          -48 rlineto
          hintmask 11011000
          41 -10 -40 12 -32 -104 callsubr
          hintmask 10111000
          -70 callsubr
          hintmask 11011000
          -81 callsubr
          -55 -48 -42 hhcurveto
          endchar
        </CharString>
        <CharString name="a.end">
          -11 -12 callsubr
          hstemhm
          5 107 173 92 hintmask 10111000
          353 36 callsubr
          -48 rlineto
          hintmask 11011000
          -43 callgsubr
          36 27 19 63 16 hvcurveto
          -94 callsubr
          hintmask 10111000
          -70 callsubr
          hintmask 11011000
          -81 callsubr
          -55 -48 -42 hhcurveto
          endchar
        </CharString>
        <CharString name="a_x">
          331 -19 callsubr
          -55 107 -57 -20 hstemhm
          5 107 624 109 hintmask 10011100
          525 -89 callgsubr
          -10 -48 rlineto
          hintmask 11001100
          38 -9 -34 15 -42 hhcurveto
          -164 -89 -216 -136 -114 63 -45 65 64 57 44 54 31 hvcurveto
          -69 6 39 -29 64 callsubr
          30 -41 65 -87 callgsubr
          -19 callgsubr
          111 122 -32 callsubr
          hintmask 10101100
          -96 callsubr
          hintmask 10011100
          -25 callgsubr
          -467 -430 rmoveto
          -35 -25 28 66 hvcurveto
          hintmask 11001100
          104 62 182 105 35 16 -21 -22 3 vhcurveto
          -48 -228 rlineto
          -62 -13 -54 -47 -46 hhcurveto
          endchar
        </CharString>
        <CharString name="a_x.end">
          338 -19 callsubr
          -55 107 -57 -20 hstemhm
          5 107 624 109 hintmask 10011100
          525 -89 callgsubr
          -10 -48 rlineto
          hintmask 11001100
          38 -9 -34 15 -42 hhcurveto
          -164 -89 -216 -136 -114 63 -45 65 64 57 44 54 31 hvcurveto
          -69 6 39 -29 64 callsubr
          29 -41 59 40 callgsubr
          -51 callsubr
          hintmask 10101100
          -96 callsubr
          hintmask 10011100
          -25 callgsubr
          -467 -430 rmoveto
          -35 -25 28 66 hvcurveto
          hintmask 11001100
          104 62 182 105 35 16 -21 -22 3 vhcurveto
          -48 -228 rlineto
          -62 -13 -54 -47 -46 hhcurveto
          endchar
        </CharString>
        <CharString name="a_z">
          364 23 callsubr
          -55 55 -5 -20 hstemhm
          5 107 173 92 133 -21 callgsubr
          hintmask 1000011111000000
          353 36 callsubr
          -48 rlineto
          hintmask 1001001111000000
          -43 callgsubr
          36 27 19 63 16 hvcurveto
          -94 callsubr
          hintmask 1000011111000000
          -72 callgsubr
          324 -415 -106 callgsubr
          hvcurveto
          hintmask 0011001111000000
          -77 callgsubr
          hintmask 0101001111000000
          -98 callsubr
          hintmask 1000101111000000
          -603 -15 3 callsubr
          30 16 -22 -22 4 hvcurveto
          26 callgsubr
        </CharString>
        <CharString name="aacute">
          -14 callsubr
          270 -93 callsubr
          78 491 -102 callsubr
          endchar
        </CharString>
        <CharString name="aacute.end">
          -11 -12 callsubr
          270 -20 hstemhm
          5 107 173 92 hintmask 10111100
          353 36 callsubr
          -48 rlineto
          hintmask 11011100
          -43 callgsubr
          36 27 19 63 16 hvcurveto
          -94 callsubr
          hintmask 10111100
          -70 callsubr
          hintmask 11011100
          -81 callsubr
          -55 -48 -42 hhcurveto
          87 491 -102 callsubr
          endchar
        </CharString>
        <CharString name="acircumflex">
          -14 callsubr
          248 -93 callsubr
          256 491 -96 callgsubr
        </CharString>
        <CharString name="acute">
          -221 582 -21 189 -20 hstem
          111 561 -102 callsubr
          endchar
        </CharString>
        <CharString name="adieresis">
          -14 callsubr
          110 105 hstemhm
          5 107 94 105 -26 91 -6 105 hintmask 10111101
          353 36 callsubr
          -48 rlineto
          hintmask 11011010
          41 -10 -40 12 -32 -104 callsubr
          hintmask 10111101
          -70 callsubr
          hintmask 11011010
          -81 callsubr
          -55 -48 -42 hhcurveto
          hintmask 11011101
          31 572 -82 callgsubr
        </CharString>
        <CharString name="ae">
          113 -6 76 169 51 167 48 hstem
          9 105 446 61 vstem
          94 427 rmoveto
          28 -29 rlineto
          33 29 32 26 60 hhcurveto
          49 21 -36 -47 -23 -9 -37 -12 -28 hvcurveto
          2 -14 -18 2 -29 hhcurveto
          -126 -96 -7 callgsubr
          -64 -23 31 68 10 2 22 1 11 hvcurveto
          155 12 93 66 112 vvcurveto
          82 -52 21 -55 -47 -44 -22 -24 -33 vhcurveto
          32 -42 -43 14 -43 hhcurveto
          -71 -49 -28 -50 -48 hvcurveto
          429 29 rmoveto
          32 5 -21 -23 -90 -71 -59 -111 -12 hvcurveto
          103 18 53 102 74 37 callsubr
          -46 -59 -47 hhcurveto
          -33 -24 21 50 60 74 38 73 hvcurveto
          endchar
        </CharString>
        <CharString name="agrave">
          -14 callsubr
          270 -93 callsubr
          118 680 -63 callsubr
        </CharString>
        <CharString name="ampersand">
          138 -18 79 237 77 148 229 -38 38 hstemhm
          8 117 7 94 205 63 hintmask 11011110
          653 413 rmoveto
          -30 -17 -41 -13 -37 -25 -23 5 -28 hhcurveto
          -98 -66 -51 -70 -19 hvcurveto
          7 -1 rlineto
          30 19 32 15 43 hhcurveto
          23 25 -4 -2 25 hvcurveto
          -120 -26 -64 -111 -132 -89 callsubr
          hintmask 11101110
          -95 callgsubr
          161 117 141 169 32 vhcurveto
          84 7 73 63 51 vvcurveto
          endchar
        </CharString>
        <CharString name="aogonek">
          -23 -193 49 138 1 callsubr
          -5 -20 hstemhm
          5 107 166 69 -69 98 hintmask 11011100
          353 36 callsubr
          -48 rlineto
          hintmask 11101100
          41 -10 -40 12 -32 hhcurveto
          -168 -88 -215 -135 -117 63 -44 65 64 57 44 54 31 hvcurveto
          4 -58 22 -30 33 -7 rrcurveto
          -43 -37 -23 -40 -35 -29 callgsubr
          36 29 34 29 14 hvcurveto
          39 14 47 43 48 122 rrcurveto
          -37 hlineto
          -68 -29 -34 -41 -32 hhcurveto
          hintmask 11011010
          -25 -6 22 23 16 2 17 3 12 hvcurveto
          -70 callsubr
          hintmask 11101100
          -81 callsubr
          -55 -48 -42 hhcurveto
          endchar
        </CharString>
        <CharString name="aring">
          -14 callsubr
          72 35 93 33 hstemhm
          5 107 139 40 -6 91 -5 37 hintmask 1011111010000000
          353 36 callsubr
          -48 rlineto
          hintmask 1101110100000000
          41 -10 -40 12 -32 -104 callsubr
          hintmask 1011111010000000
          -70 callsubr
          hintmask 1101110100000000
          -81 callsubr
          -55 -48 -42 hhcurveto
          161 643 rmoveto
          hintmask 1101111010000000
          -58 callgsubr
        </CharString>
        <CharString name="asciicircum">
          -87 582 -21 167 -20 hstem
          338 561 -96 callgsubr
        </CharString>
        <CharString name="asciitilde">
          -103 581 70 -37 66 hstemhm
          hintmask 10000000
          446 671 -11 callsubr
          hintmask 01000000
          -76 callsubr
          hintmask 10000000
          -56 callgsubr
        </CharString>
        <CharString name="asterisk">
          -100 397 -21 376 -20 hstem
          229 52 vstem
          229 752 rmoveto
          -146 vlineto
          -116 67 -24 -40 119 -69 -119 -69 24 -40 116 67 rlineto
          -146 52 146 vlineto
          116 -67 24 40 -120 69 120 69 -24 40 -116 -67 rlineto
          146 vlineto
          endchar
        </CharString>
        <CharString name="at">
          41 -38 71 87 56 -40 40 223 33 82 43 hstemhm
          16 80 68 52 251 48 hintmask 11011111
          220 -38 rmoveto
          124 80 46 63 16 -5 19 -18 8 hvcurveto
          -48 -22 -60 -33 -70 hhcurveto
          -117 -36 65 86 142 105 188 153 87 26 -62 -61 -87 -55 -128 -52 -11 -4 9 11 13 5 15 2 8 hvcurveto
          45 192 -55 6 -4 -15 rlineto
          9 -7 -13 8 -19 hhcurveto
          -72 -63 -136 -88 -60 27 -28 36 28 23 18 23 14 hvcurveto
          hintmask 10111111
          -15 9 16 -10 24 hhcurveto
          97 77 134 130 138 -97 19 -61 -186 -155 -175 -218 -154 110 -48 94 hvcurveto
          64 235 rmoveto
          -14 -9 -11 -11 -18 hhcurveto
          -24 -6 33 19 51 40 124 53 9 7 -7 -8 5 hvcurveto
          -43 -168 rlineto
          -2 -6 -1 -7 -6 vvcurveto
          endchar
        </CharString>
        <CharString name="atilde">
          -14 callsubr
          95 70 -37 66 hstemhm
          5 107 173 91 hintmask 10110110
          353 36 callsubr
          -48 rlineto
          hintmask 11010110
          41 -10 -40 12 -32 -104 callsubr
          hintmask 10110110
          -70 callsubr
          hintmask 11010110
          -43 callsubr
          306 595 -11 callsubr
          hintmask 11001110
          -76 callsubr
          hintmask 11010110
          -56 callgsubr
        </CharString>
        <CharString name="b">
          -90 -6 69 387 52 198 -20 hstem
          9 96 208 92 vstem
          17 179 rmoveto
          -5 -25 -3 -25 -22 vvcurveto
          -88 48 -25 70 165 113 190 155 141 -71 22 -63 -37 -29 -15 -24 -28 vhcurveto
          51 237 -102 -14 rlineto
          187 -358 rmoveto
          -129 -69 -136 -89 -33 -17 18 34 12 2 12 3 14 vhcurveto
          59 263 rlineto
          20 24 22 14 26 hhcurveto
          48 24 -46 -76 hvcurveto
          endchar
        </CharString>
        <CharString name="b_s">
          251 -6 75 60 89 232 52 198 -41 callgsubr
          hintmask 1111100100100000
          -50 callsubr
          48 63 23 63 31 vhcurveto
          40 23 45 29 43 47 rrcurveto
          -42 hlineto
          -19 -16 -26 -19 -26 -17 rrcurveto
          2 12 1 14 14 vvcurveto
          -85 callgsubr
        </CharString>
        <CharString name="b_s.end">
          261 -6 75 60 89 232 52 198 -41 callgsubr
          hintmask 1111100100100000
          -39 callsubr
          -85 callgsubr
        </CharString>
        <CharString name="b_s_x">
          583 -6 76 59 89 239 45 -45 100 -57 -20 220 -41 callgsubr
          280 109 hintmask 1101011001100100
          -50 callsubr
          35 44 13 32 33 vhcurveto
          42 17 84 41 56 50 rrcurveto
          -107 23 29 -46 69 -92 callgsubr
          hintmask 1100111100001100
          -25 callgsubr
          -114 hlineto
          -2 callsubr
          hintmask 1110011100100100
          -90 callsubr
          hintmask 1110011100010100
          -71 callsubr
          hintmask 1110011010100100
          -83 callgsubr
          hintmask 1110011001100100
          19 22 18 32 13 -13 26 -30 -47 -24 -59 -37 hvcurveto
          -108 215 rmoveto
          hintmask 1110011100100100
          -79 callgsubr
        </CharString>
        <CharString name="b_s_z">
          606 -6 75 -75 150 -123 -21 129 89 151 131 -54 54 2 -20 218 -41 callgsubr
          44 -21 callgsubr
          hintmask 100110011001001110000000
          -39 callsubr
          hintmask 100100111100100110000000
          -90 callsubr
          hintmask 100110011100010110000000
          -71 callsubr
          hintmask 100110011010100110000000
          -83 callgsubr
          hintmask 100110011001100110000000
          19 22 18 32 13 -13 26 -30 -47 -24 -59 -37 hvcurveto
          618 -37 -106 callgsubr
          -78 callsubr
          hvcurveto
          -53 callsubr
          hintmask 001101011100100110000000
          -103 callgsubr
          hintmask 010010011100100110000000
          -98 callsubr
          -726 252 rmoveto
          -79 callgsubr
        </CharString>
        <CharString name="backslash">
          -4 41 callsubr
          318 -250 rmoveto
          50 hlineto
          -212 1000 rlineto
          -50 hlineto
          endchar
        </CharString>
        <CharString name="bar">
          -234 -229 -21 1001 -20 hstem
          95 53 vstem
          148 751 rmoveto
          -53 -1001 53 hlineto
          endchar
        </CharString>
        <CharString name="braceleft">
          -239 -249 45 432 51 471 -20 hstemhm
          -6 66 25 65 -35 63 hintmask 11110100
          318 750 rmoveto
          -43 hlineto
          -119 -41 -125 -76 hvcurveto
          -51 7 -53 -55 vvcurveto
          -47 -3 -64 -64 -9 -10 1 2 -12 vhcurveto
          -12 -57 rlineto
          2 13 10 1 9 hhcurveto
          hintmask 11111000
          32 9 -13 -18 hvcurveto
          -101 -91 -125 -111 vvcurveto
          -66 39 -43 74 vhcurveto
          29 hlineto
          9 45 rlineto
          -82 -3 30 50 hvcurveto
          100 90 153 89 vvcurveto
          16 -5 12 -7 8 vhcurveto
          hintmask 11110100
          24 20 16 33 58 57 -6 57 57 vvcurveto
          54 10 44 36 40 vhcurveto
          24 22 28 2 41 hhcurveto
          endchar
        </CharString>
        <CharString name="braceright">
          -241 -228 -21 471 51 432 45 hstemhm
          60 63 -35 65 25 66 hintmask 11110100
          -80 -249 rmoveto
          43 hlineto
          119 41 125 76 hvcurveto
          51 -7 53 55 vvcurveto
          47 3 64 64 9 10 -1 -2 12 vhcurveto
          12 57 rlineto
          -2 -13 -10 -1 -9 hhcurveto
          hintmask 11101100
          -32 -9 13 18 hvcurveto
          101 91 125 111 vvcurveto
          66 -39 43 -74 vhcurveto
          -29 hlineto
          -9 -45 rlineto
          82 3 -30 -50 hvcurveto
          -100 -90 -153 -89 vvcurveto
          -16 5 -12 7 -8 vhcurveto
          hintmask 11110100
          -24 -20 -16 -33 -58 -57 6 -57 -57 vvcurveto
          -54 -10 -44 -36 -40 vhcurveto
          -24 -22 -28 -2 -41 hhcurveto
          endchar
        </CharString>
        <CharString name="bracketleft">
          -221 -250 62 876 62 hstem
          158 -188 rmoveto
          -121 hlineto
          186 876 rlineto
          121 hlineto
          13 62 rlineto
          -193 hlineto
          -212 -1000 rlineto
          193 hlineto
          endchar
        </CharString>
        <CharString name="bracketright">
          -222 -250 62 876 62 hstem
          99 688 rmoveto
          121 hlineto
          -186 -876 rlineto
          -121 hlineto
          -13 -62 rlineto
          193 hlineto
          212 1000 rlineto
          -193 hlineto
          endchar
        </CharString>
        <CharString name="breve">
          -77 565 35 -35 138 hstemhm
          75 69 hintmask 01100000
          355 703 rmoveto
          hintmask 10100000
          27 callsubr
          hintmask 01100000
          -31 callgsubr
          endchar
        </CharString>
        <CharString name="brokenbar">
          -230 -229 -21 1001 -20 hstem
          97 53 vstem
          150 222 rmoveto
          -53 -472 53 hlineto
          551 vmoveto
          450 -53 -450 vlineto
          endchar
        </CharString>
        <CharString name="bullet">
          -9 callsubr
        </CharString>
        <CharString name="c">
          10 callgsubr
          hstemhm
          8 109 199 56 hintmask 11011000
          286 347 rmoveto
          -65 callsubr
          77 107 99 87 98 53 hvcurveto
          -34 hlineto
          -74 -44 -62 -35 -70 hhcurveto
          -65 -23 30 69 hvcurveto
          hintmask 10111000
          112 60 171 94 30 15 -17 -23 -22 -13 -32 -17 -11 vhcurveto
          endchar
        </CharString>
        <CharString name="c.end">
          -126 -6 76 256 179 -48 48 hstemhm
          6 109 199 56 hintmask 10111000
          319 117 5 callsubr
          hintmask 11011000
          -65 callsubr
          76 55 98 26 97 13 hvcurveto
          endchar
        </CharString>
        <CharString name="c_x">
          224 -7 77 -55 -21 332 179 -53 53 -53 105 -57 -20 hstemhm
          8 109 199 56 257 109 hintmask 1000011110000000
          418 -47 callsubr
          58 -316 rlineto
          -54 -40 -101 -60 -105 hhcurveto
          -67 -46 25 85 hvcurveto
          hintmask 1001001110000000
          97 60 175 94 30 15 -17 -23 -22 -13 -32 -17 -11 vhcurveto
          hintmask 1010001110000000
          -67 callgsubr
          -113 -118 73 -43 89 123 122 83 65 69 hvcurveto
          hintmask 0110001110000000
          -103 23 29 -44 68 -87 callgsubr
          hintmask 1000101110000000
          -103 callsubr
          hintmask 1000011110000000
          70 callsubr
        </CharString>
        <CharString name="c_z">
          221 0 64 -64 44 callgsubr
          332 174 -131 131 -43 43 5 -20 hstemhm
          8 109 199 56 33 94 123 95 hintmask 1001000111100000
          635 27 callgsubr
          -200 -53 callgsubr
          hvcurveto
          hintmask 1000100111100000
          -32 callgsubr
          14 29 2 31 vhcurveto
          38 hlineto
          -255 -446 rlineto
          252 hlineto
          77 56 52 42 hvcurveto
          hintmask 0100010111100000
          -98 callsubr
          -314 32 5 callsubr
          hintmask 1001000111100000
          -13 7 10 -8 16 hhcurveto
          34 19 38 46 hvcurveto
          hintmask 0010001111100000
          65 -37 30 -68 -193 -66 -238 -112 -116 71 -45 76 55 98 26 97 13 vhcurveto
          endchar
        </CharString>
        <CharString name="cacute">
          10 callgsubr
          245 -83 callsubr
          -14 214 -102 callsubr
          endchar
        </CharString>
        <CharString name="caron">
          -214 596 -21 167 -20 hstem
          103 742 -73 callgsubr
        </CharString>
        <CharString name="ccaron">
          10 callgsubr
          237 -83 callsubr
          -55 395 -73 callgsubr
        </CharString>
        <CharString name="ccedilla">
          -144 61 callgsubr
          52 76 256 179 -53 53 hstemhm
          8 109 74 63 62 56 hintmask 1011011110000000
          254 14 callsubr
          24 60 104 4 96 85 52 96 rlinecurve
          -34 hlineto
          -74 -44 -62 -35 -70 hhcurveto
          -65 -23 30 69 112 60 171 94 30 15 -17 -23 -22 -13 -32 -17 -11 hvcurveto
          hintmask 1011101110000000
          -67 callgsubr
          -112 -99 51 -47 62 -12 hvcurveto
          -41 -116 -2 callgsubr
          hintmask 0111101110000000
          -28 callsubr
        </CharString>
        <CharString name="ccircumflex">
          10 callgsubr
          223 -83 callsubr
          131 214 -96 callgsubr
        </CharString>
        <CharString name="cedilla">
          -281 61 callgsubr
          87 -20 hstemhm
          164 63 hintmask 10111000
          227 14 callsubr
          29 72 -35 23 -53 -148 -2 callgsubr
          hintmask 01111000
          -28 callsubr
        </CharString>
        <CharString name="cent">
          -132 -6 -21 745 -20 hstem
          31 98 199 51 vstem
          329 255 rmoveto
          -26 -32 -39 -18 -43 hhcurveto
          -9 hlineto
          77 348 rlineto
          25 -2 20 -19 -19 vvcurveto
          -20 -11 -29 -16 -10 vhcurveto
          -11 7 9 -8 14 hhcurveto
          32 16 35 41 52 -35 27 -52 5 hvcurveto
          26 117 rlineto
          -58 hlineto
          -22 -119 rlineto
          -158 -26 -49 -192 -94 vvcurveto
          -96 59 -42 66 -6 vhcurveto
          -30 -170 rlineto
          27 hlineto
          38 171 52 5 75 28 11 78 rlinecurve
          -200 46 rmoveto
          80 35 119 64 43 vhcurveto
          -58 -325 rlineto
          -29 12 -12 28 43 vvcurveto
          endchar
        </CharString>
        <CharString name="circumflex">
          -215 582 -21 167 -20 hstem
          288 561 -96 callgsubr
        </CharString>
        <CharString name="circunflex">
          -215 582 -21 167 -20 hstem
          288 561 -96 callgsubr
        </CharString>
        <CharString name="colon">
          -254 79 133 108 133 hstemhm
          25 133 -85 133 hintmask 11010000
          73 386 rmoveto
          -102 callgsubr
          hintmask 11100000
          -48 -241 rmoveto
          -102 callgsubr
          endchar
        </CharString>
        <CharString name="comma">
          -296 -105 44 callsubr
          -18 135 -95 95 hintmask 11010000
          -12 61 rmoveto
          17 callsubr
          hintmask 11100000
          -58 callsubr
          endchar
        </CharString>
        <CharString name="copyright">
          56 76 21 85 42 216 44 81 22 hstem
          42 26 75 44 316 23 vstem
          143 336 rmoveto
          -83 59 -71 81 49 52 26 42 28 vhcurveto
          -34 23 rlineto
          -34 -22 -37 -15 -30 hhcurveto
          -66 -36 57 56 51 36 52 67 40 39 -22 -43 9 hvcurveto
          37 14 rlineto
          65 -20 -51 30 -52 hhcurveto
          -73 -76 -58 -90 hvcurveto
          141 -260 -49 callgsubr
          endchar
        </CharString>
        <CharString name="currency">
          -29 185 -21 26 40 232 40 27 -20 hstem
          87 41 232 40 vstem
          59 492 rmoveto
          57 -57 rlineto
          -18 -25 -11 -31 -34 vvcurveto
          -33 11 -31 18 -25 vhcurveto
          -56 -56 36 -36 56 56 rlineto
          -19 26 32 -11 34 hhcurveto
          34 31 11 18 25 hvcurveto
          55 -55 36 36 -55 55 rlineto
          19 26 11 31 34 vvcurveto
          34 -11 32 -19 26 vhcurveto
          55 55 -36 36 -56 -56 rlineto
          18 -25 -31 11 -33 hhcurveto
          -34 -31 -11 -19 -26 hvcurveto
          -56 56 rlineto
          147 -66 rmoveto
          64 52 -52 -64 -64 -52 -52 -64 -64 -52 52 64 64 52 52 64 hvcurveto
          endchar
        </CharString>
        <CharString name="d">
          -23 48 callgsubr
          91 vstem
          393 686 rmoveto
          -50 -235 rlineto
          42 -10 -39 12 -33 -104 callsubr
          116 540 rlineto
          -322 -630 3 callgsubr
        </CharString>
        <CharString name="d.end">
          -12 48 callgsubr
          92 vstem
          393 686 rmoveto
          -50 -235 rlineto
          42 -10 -39 12 -33 hhcurveto
          -168 -88 -215 -135 -117 63 -44 65 64 57 44 54 31 hvcurveto
          -69 5 31 -29 44 hhcurveto
          36 27 19 63 16 hvcurveto
          -94 callsubr
          116 540 rlineto
          -322 -630 21 callsubr
          -62 -13 -56 -47 -41 hhcurveto
          endchar
        </CharString>
        <CharString name="dagger">
          -98 -229 -21 586 92 322 -20 hstem
          330 750 rmoveto
          -72 hlineto
          -69 -322 rlineto
          -145 hlineto
          -20 -92 rlineto
          146 hlineto
          -124 -586 rlineto
          72 hlineto
          124 586 rlineto
          151 hlineto
          19 92 rlineto
          -151 hlineto
          endchar
        </CharString>
        <CharString name="daggerdbl">
          -81 -229 -21 351 92 143 92 322 -20 hstem
          338 750 rmoveto
          -72 hlineto
          -68 -322 rlineto
          -146 hlineto
          -20 -92 rlineto
          146 hlineto
          -30 -143 rlineto
          -144 hlineto
          -20 -92 rlineto
          144 hlineto
          -74 -351 rlineto
          72 hlineto
          74 351 rlineto
          153 hlineto
          19 92 rlineto
          -152 hlineto
          30 143 rlineto
          151 hlineto
          19 92 rlineto
          -150 hlineto
          endchar
        </CharString>
        <CharString name="dcroat">
          -24 -19 callsubr
          70 35 90 -20 hstem
          5 107 173 91 vstem
          393 686 rmoveto
          -16 -76 rlineto
          -34 hlineto
          -7 -35 rlineto
          33 hlineto
          -26 -124 rlineto
          42 -10 -39 12 -33 -104 callsubr
          89 415 rlineto
          77 hlineto
          7 35 rlineto
          -77 hlineto
          20 90 rlineto
          -322 -630 21 callsubr
          -61 -13 -56 -48 -41 hhcurveto
          endchar
        </CharString>
        <CharString name="degree">
          -190 374 39 257 32 hstem
          84 55 137 50 vstem
          244 702 -91 callsubr
          endchar
        </CharString>
        <CharString name="dieresis">
          -116 590 105 hstem
          72 105 59 105 vstem
          72 642 -82 callgsubr
        </CharString>
        <CharString name="divide">
          -88 1 133 81 70 77 133 hstemhm
          118 133 -73 133 hintmask 11101000
          178 428 rmoveto
          -102 callgsubr
          hintmask 11110000
          -60 -361 rmoveto
          -102 callgsubr
          259 218 -1 callsubr
        </CharString>
        <CharString name="dollar">
          -124 -6 -21 134 34 577 -20 hstemhm
          21 65 -14 75 109 85 -35 54 hintmask 11110100
          114 -27 rmoveto
          13 hlineto
          29 134 rlineto
          102 83 51 95 83 -63 39 -55 35 hvcurveto
          38 170 rlineto
          hintmask 11101010
          30 -8 15 -22 -25 vvcurveto
          -18 -7 -22 -16 -16 vhcurveto
          -15 14 14 -3 7 hhcurveto
          29 13 46 28 52 -45 25 -47 7 hvcurveto
          24 109 rlineto
          -44 hlineto
          -19 -106 rlineto
          -83 -2 -74 -50 -75 vvcurveto
          -66 58 -34 51 -38 vhcurveto
          -36 -204 rlineto
          hintmask 11110100
          -32 7 -27 24 42 vvcurveto
          26 11 37 29 4 vhcurveto
          16 -13 -14 7 -15 hhcurveto
          -32 -31 -31 -55 -70 48 -36 69 -6 hvcurveto
          118 128 rmoveto
          -57 -42 -38 -50 vhcurveto
          41 188 rlineto
          29 -25 22 -28 -40 vvcurveto
          hintmask 11101100
          -109 264 rmoveto
          32 21 45 55 5 vhcurveto
          -27 -154 rlineto
          -28 20 -21 22 30 vvcurveto
          endchar
        </CharString>
        <CharString name="dotlessi">
          29 callgsubr
          hstem
          8 100 vstem
          10 callsubr
          -17 callgsubr
          endchar
        </CharString>
        <CharString name="dotlessi.end">
          -279 -26 callgsubr
          hstem
          9 100 vstem
          10 callsubr
          -86 callsubr
          endchar
        </CharString>
        <CharString name="e">
          40 callsubr
          hstem
          8 109 190 61 vstem
          -99 callsubr
          endchar
        </CharString>
        <CharString name="e.end">
          -120 45 callgsubr
          hstem
          8 109 190 61 vstem
          -73 callsubr
          80 70 26 98 17 vhcurveto
          -31 -33 -42 -17 -44 -93 callgsubr
          endchar
        </CharString>
        <CharString name="e_x">
          217 -63 callgsubr
          -103 23 29 -44 68 -87 callgsubr
          hintmask 10010111
          -103 callsubr
          hintmask 10001111
          -25 callgsubr
          hintmask 10100111
          -24 callsubr
          endchar
        </CharString>
        <CharString name="e_x.end">
          231 -63 callgsubr
          -104 23 30 -43 60 40 callgsubr
          hintmask 10010111
          -51 callsubr
          -96 callsubr
          hintmask 10001111
          -25 callgsubr
          hintmask 10100111
          -24 callsubr
          endchar
        </CharString>
        <CharString name="e_z">
          246 23 callsubr
          -59 59 -5 -20 hstemhm
          8 109 190 61 24 -21 callgsubr
          hintmask 1001001111000000
          -73 callsubr
          80 70 26 98 17 vhcurveto
          -31 -33 -42 -17 -44 hhcurveto
          -64 -23 31 68 10 0 10 1 11 hvcurveto
          155 16 95 74 112 vvcurveto
          292 -317 rmoveto
          -12 -4 -17 -9 -24 hhcurveto
          -27 -74 5 1 -17 hvcurveto
          hintmask 1000011111000000
          249 430 rlineto
          -238 -53 callgsubr
          hvcurveto
          hintmask 1001001111000000
          -32 callgsubr
          hintmask 0010101111000000
          -103 callgsubr
          hintmask 0101001111000000
          -98 callsubr
          -390 371 rmoveto
          32 5 -21 -23 -90 -73 -66 -111 -17 hvcurveto
          103 18 55 114 74 hhcurveto
          endchar
        </CharString>
        <CharString name="eacute">
          40 callsubr
          245 -20 hstem
          8 109 190 61 vstem
          -99 callsubr
          -23 105 -102 callsubr
          endchar
        </CharString>
        <CharString name="eacute.end">
          -119 45 callgsubr
          245 -20 hstem
          9 109 190 61 vstem
          369 -79 callsubr
          80 70 26 98 17 vhcurveto
          -31 -33 -42 -17 -44 -93 callgsubr
          -55 105 -102 callsubr
          endchar
        </CharString>
        <CharString name="eacute_x">
          224 -7 77 -55 -21 462 49 -49 101 -57 -20 270 -20 hstemhm
          8 109 190 61 261 109 hintmask 1000111110000000
          418 -47 callsubr
          58 -316 rlineto
          -54 -40 -101 -60 -104 hhcurveto
          -75 -39 31 78 6 0 7 1 8 hvcurveto
          154 16 96 74 112 vvcurveto
          hintmask 1010011110000000
          82 -52 21 -55 -184 -69 15 callsubr
          -115 72 -46 91 121 122 81 67 70 vhcurveto
          hintmask 0110011110000000
          -103 23 29 -44 68 -87 callgsubr
          hintmask 1001011110000000
          -103 callsubr
          hintmask 1000111110000000
          -25 callgsubr
          hintmask 1010011110000000
          -24 callsubr
          -38 105 -102 callsubr
          endchar
        </CharString>
        <CharString name="ecircumflex">
          40 callsubr
          223 -20 hstem
          8 109 190 61 vstem
          -99 callsubr
          140 105 -96 callgsubr
        </CharString>
        <CharString name="edieresis">
          40 callsubr
          85 105 hstemhm
          8 109 38 105 47 61 -49 105 hintmask 11111100
          -99 callsubr
          -115 186 rmoveto
          -98 callgsubr
          hintmask 11111010
          18 callsubr
        </CharString>
        <CharString name="egrave">
          40 callsubr
          245 -20 hstem
          8 109 190 61 vstem
          -99 callsubr
          -8 294 -63 callsubr
        </CharString>
        <CharString name="eight">
          18 -6 72 643 41 hstemhm
          22 100 -5 99 146 116 -71 90 hintmask 11101000
          221 66 rmoveto
          -69 -30 66 55 77 58 87 89 29 hvcurveto
          58 -42 35 -44 -60 vvcurveto
          -80 -62 -88 -79 vhcurveto
          hintmask 11011000
          -5 -72 rmoveto
          153 109 141 119 62 -30 72 -85 29 hvcurveto
          hintmask 11010100
          89 45 45 75 67 vvcurveto
          78 -60 68 -107 -132 -81 -101 -96 -52 24 -50 55 -34 vhcurveto
          hintmask 11101000
          -118 -36 -56 -101 -91 vvcurveto
          hintmask 11010100
          -102 69 -93 125 vhcurveto
          70 454 rmoveto
          -47 29 -23 49 47 vvcurveto
          69 51 67 65 52 23 -42 -42 -59 -44 -75 -77 -43 vhcurveto
          endchar
        </CharString>
        <CharString name="ellipsis">
          187 -5 133 hstem
          -12 133 104 133 112 133 vstem
          -12 61 rmoveto
          -102 callgsubr
          237 hmoveto
          -102 callgsubr
          245 hmoveto
          -102 callgsubr
          endchar
        </CharString>
        <CharString name="emdash">
          -37 231 70 hstem
          407 301 -1 callsubr
        </CharString>
        <CharString name="endash">
          -127 231 70 hstem
          317 301 rmoveto
          -260 hlineto
          -16 -70 rlineto
          261 hlineto
          endchar
        </CharString>
        <CharString name="eogonek">
          -140 -193 49 138 76 386 49 hstem
          8 109 3 69 118 61 vstem
          -73 callsubr
          10 10 1 2 10 vhcurveto
          -43 -37 -23 -40 -35 vvcurveto
          -35 24 -43 55 52 34 26 23 25 vhcurveto
          2 31 rlineto
          -21 -22 -24 -10 -27 hhcurveto
          -32 -18 32 28 33 28 44 33 23 hvcurveto
          70 32 60 62 37 69 rrcurveto
          -32 hlineto
          -78 -52 -66 -31 -63 -93 callgsubr
          endchar
        </CharString>
        <CharString name="equal">
          -36 133 80 103 80 hstem
          421 396 66 callgsubr
          -21 -103 66 callgsubr
          endchar
        </CharString>
        <CharString name="eth">
          -23 -19 callsubr
          195 -20 hstemhm
          5 107 173 91 -91 176 hintmask 11111000
          502 179 rmoveto
          -68 -29 -34 -41 -32 -97 callsubr
          75 347 rlineto
          hintmask 11110100
          3 15 2 14 13 vvcurveto
          18 -3 17 -6 14 vhcurveto
          55 8 rlineto
          30 vlineto
          -69 -10 -22 32 -33 23 -29 19 rlinecurve
          -35 hlineto
          21 -29 13 -27 6 -29 -69 -10 rcurveline
          -30 vlineto
          72 10 rlineto
          -7 vlineto
          -26 -5 -31 -7 -36 vhcurveto
          -7 -34 rlineto
          42 -10 -39 12 -33 hhcurveto
          -168 -88 -215 -135 -117 63 -44 65 64 57 44 54 31 hvcurveto
          -69 5 31 -29 44 hhcurveto
          44 -85 callsubr
          -364 -109 3 callgsubr
        </CharString>
        <CharString name="exclam">
          -266 0 133 567 -20 hstem
          6 133 vstem
          124 231 rmoveto
          130 469 rlineto
          -112 hlineto
          -71 -469 rlineto
          -65 -165 rmoveto
          -102 callgsubr
          endchar
        </CharString>
        <CharString name="exclamdown">
          -278 -227 -21 567 133 hstem
          59 133 vstem
          74 221 rmoveto
          -130 -469 rlineto
          112 hlineto
          71 469 rlineto
          65 165 25 callsubr
        </CharString>
        <CharString name="f">
          -269 34 callgsubr
          -184 39 500 40 vstem
          195 548 59 callgsubr
          36 15 -31 -31 -9 -1 -8 -2 -7 hvcurveto
          40 hlineto
          2 11 1 12 11 vvcurveto
          64 -38 51 -77 -130 -35 -109 -79 -17 vhcurveto
          -71 callgsubr
          endchar
        </CharString>
        <CharString name="f_f_t">
          207 -57 callsubr
          395 35 186 63 hstem
          -183 39 630 100 vstem
          153 -250 rmoveto
          63 60 46 124 26 hvcurveto
          -37 callsubr
          139 62 callgsubr
          -68 callgsubr
          50 71 18 167 73 vhcurveto
          -37 hlineto
          -68 -35 -42 -41 -38 -97 callsubr
          66 305 rlineto
          77 hlineto
          7 35 rlineto
          -77 hlineto
          44 200 rlineto
          28 -65 -31 21 -92 hhcurveto
          -65 -42 -27 -37 -27 hvcurveto
          38 -15 -35 26 -55 -54 callgsubr
          -68 273 rmoveto
          93 442 rlineto
          139 hlineto
          -87 -409 -41 -7 -51 -11 -53 -15 rlinecurve
          29 -221 -45 callgsubr
          321 746 rmoveto
          -5 callsubr
          -39 -181 rlineto
          -138 hlineto
          -229 48 -35 callgsubr
        </CharString>
        <CharString name="f_i_x">
          293 -57 callsubr
          387 43 -43 100 7 185 -45 45 60 callsubr
          -10 106 -68 68 254 109 hintmask 1110101101100000
          496 -64 callsubr
          hintmask 1101101101100000
          -106 callsubr
          -44 -34 -59 -73 -83 rrcurveto
          hintmask 1110101101100000
          -41 227 rlineto
          -224 64 rmoveto
          38 20 31 45 64 -39 45 -88 -132 -69 -102 -86 -18 hvcurveto
          -122 -574 rlineto
          -84 -35 -76 -46 -72 vvcurveto
          -57 49 -27 63 60 callgsubr
          -37 callsubr
          -30 callgsubr
          10 48 rlineto
          hintmask 1110011101100000
          -23 callgsubr
          hintmask 1110101010100000
          -15 callsubr
          -495 -762 -44 callgsubr
        </CharString>
        <CharString name="f_i_z">
          312 -250 52 198 64 -64 -14 callgsubr
          -35 35 64 185 -45 45 64 callgsubr
          393 100 -10 106 -68 68 14 -21 callgsubr
          hintmask 1100001011101110
          386 564 rmoveto
          38 20 31 45 64 -39 45 -88 -132 -69 -102 -86 -18 hvcurveto
          -122 -574 rlineto
          -84 -35 -76 -46 -72 vvcurveto
          -57 49 -27 63 60 callgsubr
          -37 callsubr
          -30 callgsubr
          10 48 rlineto
          -23 callgsubr
          hintmask 1100100101010110
          -15 callsubr
          340 -479 -106 callgsubr
          -78 callsubr
          hvcurveto
          -53 callsubr
          hintmask 1100010101101110
          -103 callgsubr
          hintmask 1010100101101110
          -98 callsubr
          -402 415 rmoveto
          11 callsubr
          -8 callgsubr
          hintmask 1001100101101110
          -90 49 -27 39 36 27 19 63 16 vhcurveto
          -94 callsubr
          -72 callgsubr
          -534 -698 -44 callgsubr
        </CharString>
        <CharString name="f_l_x">
          302 -57 callsubr
          395 35 -35 92 129 63 60 callsubr
          359 109 hintmask 11101111
          496 -47 callsubr
          58 -316 rlineto
          -64 -32 -74 -50 -50 hhcurveto
          -29 -21 -48 callsubr
          116 540 rlineto
          28 -65 -31 21 -92 -42 callgsubr
          -90 callgsubr
          -30 callgsubr
          10 48 rlineto
          -38 callgsubr
          33 11 -3 -2 15 hvcurveto
          -107 -502 -6 callsubr
          -96 23 29 -9 callgsubr
          hintmask 11011111
          -96 callsubr
          hintmask 11101111
          -25 callgsubr
          -718 -52 callgsubr
        </CharString>
        <CharString name="f_l_z">
          309 -250 52 198 -29 callsubr
          -35 35 190 59 60 callsubr
          107 -21 callgsubr
          hintmask 1001100111110000
          195 548 rmoveto
          84 18 21 58 70 hhcurveto
          31 12 -4 -5 16 hvcurveto
          -107 -502 rlineto
          -6 -26 -3 -23 -19 vvcurveto
          -90 50 -57 callgsubr
          hintmask 1100001111110000
          -94 callsubr
          116 540 rlineto
          28 -65 -31 21 -92 -42 callgsubr
          -71 callgsubr
          831 283 -106 callgsubr
          hvcurveto
          hintmask 1100100111110000
          -32 callgsubr
          hintmask 1100010111110000
          -103 callgsubr
          hintmask 1010100111110000
          -98 callsubr
          endchar
        </CharString>
        <CharString name="f_t">
          -33 -57 callsubr
          395 35 186 63 hstem
          -184 39 391 100 vstem
          246 105 rmoveto
          -60 21 -51 68 50 71 18 167 73 vhcurveto
          -37 hlineto
          -68 -35 -42 -41 -38 -97 callsubr
          66 305 rlineto
          77 hlineto
          7 35 rlineto
          -77 hlineto
          44 200 rlineto
          28 -65 -31 21 -92 -42 callgsubr
          -90 callgsubr
          139 62 callgsubr
          -38 callsubr
          -51 443 rmoveto
          -5 callsubr
          -39 -181 rlineto
          -138 hlineto
          -293 -52 callgsubr
        </CharString>
        <CharString name="f_u">
          167 -57 callsubr
          395 35 186 63 hstem
          -184 39 376 98 26 40 80 91 vstem
          543 -67 callsubr
          -221 hlineto
          10 48 rlineto
          -38 callgsubr
          36 15 -31 -31 -9 -1 -8 -2 -7 hvcurveto
          40 hlineto
          2 11 1 12 11 vvcurveto
          64 -38 51 -77 -130 -35 -109 -79 -17 vhcurveto
          -90 callgsubr
          120 hlineto
          -60 -286 30 callgsubr
          5 32 -28 43 hhcurveto
          44 65 18 167 65 hvcurveto
          -105 callgsubr
          -72 callgsubr
          -752 -52 callgsubr
        </CharString>
        <CharString name="f_u.end">
          179 -57 callsubr
          395 35 186 63 hstem
          -184 39 376 98 26 40 80 92 vstem
          543 -67 callsubr
          -221 hlineto
          10 48 rlineto
          -38 callgsubr
          36 15 -31 -31 -9 -1 -8 -2 -7 hvcurveto
          40 hlineto
          2 11 1 12 11 vvcurveto
          64 -38 51 -77 -130 -35 -109 -79 -17 vhcurveto
          -90 callgsubr
          120 hlineto
          -60 -286 30 callgsubr
          5 32 -28 43 hhcurveto
          36 27 19 63 16 hvcurveto
          -94 callsubr
          -72 callgsubr
          -752 -52 callgsubr
        </CharString>
        <CharString name="f_x">
          106 -250 52 154 91 -53 53 -53 76 395 35 -35 92 129 63 64 callgsubr
          322 62 -62 119 59 40 116 109 hintmask 1100101110110000
          195 548 59 callgsubr
          36 15 -31 -31 -9 -1 -8 -2 -7 hvcurveto
          40 hlineto
          2 11 1 12 11 vvcurveto
          64 -38 51 -77 -130 -35 -109 -79 -17 vhcurveto
          -90 callgsubr
          129 hlineto
          46 -247 58 callgsubr
          vhcurveto
          hintmask 1010101101110000
          30 21 8 37 25 -10 21 -34 hvcurveto
          hintmask 1001011110110000
          -4 -4 0 -1 -5 hvcurveto
          46 64 50 56 33 vhcurveto
          -127 24 28 -54 75 -92 callgsubr
          hintmask 1100101110110000
          -25 callgsubr
          -229 hlineto
          -293 -52 callgsubr
        </CharString>
        <CharString name="ff">
          -29 34 callgsubr
          -183 39 739 40 vstem
          435 548 59 callgsubr
          36 15 -31 -31 -9 -1 -8 -2 -7 hvcurveto
          40 hlineto
          2 11 1 12 11 vvcurveto
          64 -38 51 -77 -65 -42 -27 -37 -27 vhcurveto
          38 -15 -35 26 -55 -54 callgsubr
          63 60 46 124 26 hvcurveto
          -37 callsubr
          79 hlineto
          7 35 rlineto
          -78 hlineto
          -340 -477 rmoveto
          93 442 rlineto
          139 hlineto
          -87 -409 -41 -7 -51 -11 -53 -15 rlinecurve
          29 -221 -45 callgsubr
          82 746 -35 callgsubr
        </CharString>
        <CharString name="ffi">
          -57 callsubr
          395 35 64 185 -63 63 -45 45 hstemhm
          -183 39 632 100 -10 106 -68 68 hintmask 1111001101000000
          626 564 rmoveto
          38 20 31 45 64 -39 45 -88 -75 -55 -33 -44 -36 hvcurveto
          45 -13 -36 32 -61 -54 callgsubr
          63 60 46 124 26 hvcurveto
          -37 callsubr
          82 hlineto
          7 35 rlineto
          -81 hlineto
          10 48 rlineto
          hintmask 1110011101000000
          -23 callgsubr
          hintmask 1111001010000000
          -15 callsubr
          -430 -16 rmoveto
          hintmask 1110101101000000
          -38 callgsubr
          36 15 -31 -31 hvcurveto
          -9 vlineto
          -9 -18 -5 -18 -4 -18 -108 -505 rcurveline
          -41 -7 -51 -11 -53 -15 93 442 rcurveline
          -30 callgsubr
          379 hmoveto
          11 callsubr
          -17 callgsubr
          -552 -698 -45 callgsubr
          -221 hmoveto
          -42 callsubr
        </CharString>
        <CharString name="ffl">
          185 -57 callsubr
          395 35 186 63 hstem
          -183 39 628 100 vstem
          600 681 rmoveto
          -107 -502 -20 callsubr
          28 -65 -31 21 -92 hhcurveto
          -64 -41 -27 -36 -27 hvcurveto
          37 -16 -35 26 -54 -42 callgsubr
          -123 -576 rlineto
          -88 -37 -71 -48 -60 vvcurveto
          -65 49 -25 61 43 32 12 48 25 vhcurveto
          -38 35 45 -22 44 hhcurveto
          63 60 46 124 26 hvcurveto
          -37 callsubr
          -30 callgsubr
          10 48 rlineto
          -5 callsubr
          -404 -133 59 callgsubr
          33 16 -27 -28 2 hvcurveto
          -9 -24 -6 -24 -5 -22 -108 -505 rcurveline
          -40 -7 -51 -11 -52 -15 93 442 rcurveline
          -30 callgsubr
          -74 -698 rmoveto
          -22 -26 12 25 -24 hvcurveto
          8 21 8 27 7 33 14 66 rcurveline
          42 13 48 11 54 11 -22 -103 rcurveline
          -79 -17 -32 -37 -38 hhcurveto
          -219 hmoveto
          -42 callsubr
        </CharString>
        <CharString name="fi">
          -52 -57 callsubr
          395 35 64 185 -45 45 64 callgsubr
          392 100 -9 106 -68 68 hintmask 1110111010000000
          386 564 rmoveto
          38 20 31 45 64 -39 45 -88 -132 -69 -102 -86 -18 hvcurveto
          -122 -574 rlineto
          -84 -35 -76 -46 -72 vvcurveto
          -57 49 -27 63 60 callgsubr
          -37 callsubr
          -30 callgsubr
          10 48 rlineto
          -23 callgsubr
          hintmask 1111010100000000
          -15 callsubr
          -62 -64 rmoveto
          11 callsubr
          hintmask 1111011010000000
          -17 callgsubr
          -534 -698 -44 callgsubr
        </CharString>
        <CharString name="fi.end">
          -40 -57 callsubr
          395 35 64 185 -45 45 64 callgsubr
          393 100 -10 106 -68 68 hintmask 1110111010000000
          386 564 rmoveto
          38 20 31 45 64 -39 45 -88 -132 -69 -102 -86 -18 hvcurveto
          -122 -574 rlineto
          -84 -35 -76 -46 -72 vvcurveto
          -57 49 -27 63 60 callgsubr
          -37 callsubr
          -30 callgsubr
          10 48 rlineto
          -23 callgsubr
          hintmask 1111010100000000
          -15 callsubr
          -62 -64 rmoveto
          11 callsubr
          hintmask 1111011010000000
          -86 callsubr
          -534 -698 -44 callgsubr
        </CharString>
        <CharString name="five">
          3 -6 64 172 51 110 74 151 100 33 -20 hstem
          10 86 254 114 vstem
          483 749 rmoveto
          -25 -58 -51 -8 -53 hhcurveto
          -49 -51 7 9 -60 hvcurveto
          -82 -385 rlineto
          21 32 51 23 46 hhcurveto
          85 57 -51 -88 -91 -53 -103 -108 -51 -42 28 61 50 32 30 50 3 hvcurveto
          35 -8 -26 16 -30 hhcurveto
          -53 -51 -54 -85 -118 90 -30 76 202 86 136 138 106 -56 91 -122 -37 -42 -9 -22 -46 hvcurveto
          45 207 rlineto
          -5 41 73 -20 53 hhcurveto
          84 28 42 58 11 -1 11 -1 11 hvcurveto
          endchar
        </CharString>
        <CharString name="fl">
          -53 -57 callsubr
          395 35 186 63 hstem
          -184 39 391 100 vstem
          195 548 rmoveto
          -5 callsubr
          -107 -502 -20 callsubr
          28 -65 -31 21 -92 -42 callgsubr
          -71 callgsubr
          endchar
        </CharString>
        <CharString name="fl.end">
          -41 -57 callsubr
          395 35 190 59 hstem
          -184 39 392 101 vstem
          195 548 rmoveto
          84 18 21 58 70 hhcurveto
          31 12 -4 -5 16 hvcurveto
          -107 -502 rlineto
          -6 -26 -3 -23 -19 vvcurveto
          -90 50 -27 39 36 27 19 63 16 vhcurveto
          -94 callsubr
          116 540 rlineto
          28 -65 -31 21 -92 -42 callgsubr
          -71 callgsubr
          endchar
        </CharString>
        <CharString name="florin">
          -237 34 callgsubr
          -179 33 508 40 vstem
          41 465 rmoveto
          43 hlineto
          -97 -461 rlineto
          -150 -62 -16 -58 -40 vvcurveto
          -58 37 -36 79 60 42 27 143 30 vhcurveto
          -37 callsubr
          -30 callgsubr
          10 48 rlineto
          74 16 21 64 66 hhcurveto
          45 12 -30 -32 -9 -1 -8 -2 -7 hvcurveto
          40 hlineto
          2 11 1 12 11 vvcurveto
          64 -36 51 -84 -125 -36 -114 -74 -16 vhcurveto
          -13 -61 rlineto
          -44 hlineto
          -150 -698 rmoveto
          -25 -19 20 30 48 41 37 84 34 hvcurveto
          -11 -53 rlineto
          -70 -15 -17 -46 -38 hhcurveto
          endchar
        </CharString>
        <CharString name="four">
          -25 21 -21 290 59 399 -20 22 -20 hstemhm
          168 79 hintmask 11101000
          362 735 rmoveto
          -83 -386 rlineto
          -187 hlineto
          46 94 109 79 120 vvcurveto
          80 -43 26 -48 vhcurveto
          5 -23 7 -41 -20 vvcurveto
          -146 -123 -118 -36 -110 vhcurveto
          258 hlineto
          -62 -290 rlineto
          108 hlineto
          62 290 rlineto
          81 hlineto
          15 59 rlineto
          -84 hlineto
          hintmask 11011000
          86 401 rlineto
          endchar
        </CharString>
        <CharString name="g">
          -23 28 callgsubr
          hstemhm
          5 107 -28 28 hintmask 11011000
          353 36 callsubr
          -48 rlineto
          hintmask 11101000
          -60 callsubr
          37 34 hvcurveto
          -19 -92 rlineto
          hintmask 11010100
          -81 callgsubr
          -278 -408 rmoveto
          -38 -25 23 76 hvcurveto
          hintmask 11101000
          -15 callgsubr
          vhcurveto
          -47 -219 rlineto
          -55 -17 -56 -41 -38 hhcurveto
          -15 -290 rmoveto
          -78 callgsubr
          endchar
        </CharString>
        <CharString name="g.end">
          -48 28 callgsubr
          hstemhm
          5 107 -28 28 hintmask 11010100
          84 -60 callgsubr
          -10 -48 rlineto
          hintmask 11101000
          -60 callsubr
          36 34 hvcurveto
          -20 -91 rlineto
          hintmask 11100100
          -74 -30 -85 -51 -66 vvcurveto
          91 252 -36 callgsubr
        </CharString>
        <CharString name="g_p">
          399 -250 52 192 64 -42 76 358 55 -55 87 -37 -20 hstemhm
          4 107 -28 28 683 99 hintmask 1100101010000000
          576 537 rmoveto
          69 callsubr
          hintmask 1100011010000000
          97 456 rlineto
          -100 hlineto
          -10 -47 rlineto
          hintmask 1011001010000000
          42 -11 -39 10 -36 hhcurveto
          -163 -89 -203 -130 -109 63 -47 65 49 47 26 36 34 hvcurveto
          -15 -71 rlineto
          hintmask 1101000110000000
          -21 callsubr
          12 callsubr
          49 -97 rmoveto
          33 35 -22 -87 54 callsubr
          hvcurveto
          68 callgsubr
          hintmask 1011001010000000
          -554 -348 rmoveto
          -36 -25 28 65 106 66 159 100 36 15 -22 -21 4 hvcurveto
          -47 -221 rlineto
          -52 -18 -52 -42 -43 hhcurveto
          -14 -290 19 callsubr
        </CharString>
        <CharString name="g_x">
          330 -57 callsubr
          -54 76 358 55 -55 107 -57 -20 hstemhm
          5 107 -28 28 623 109 hintmask 1100011010000000
          524 -10 callgsubr
          -10 -48 rlineto
          hintmask 1011001010000000
          -60 callsubr
          36 34 hvcurveto
          -20 -91 rlineto
          hintmask 1100100110000000
          -75 -30 -84 -49 -74 vvcurveto
          -56 48 -28 64 60 callgsubr
          13 65 84 23 92 28 73 98 rlinecurve
          -98 22 30 -42 66 -92 callgsubr
          hintmask 1010011010000000
          -25 callgsubr
          -463 -408 rmoveto
          -38 -25 23 76 hvcurveto
          hintmask 1011001010000000
          -15 callgsubr
          vhcurveto
          67 callsubr
          -16 -290 20 callgsubr
        </CharString>
        <CharString name="g_z">
          356 -250 52 198 64 -64 144 -128 76 277 53 callsubr
          hstemhm
          5 107 -28 28 390 -21 callgsubr
          hintmask 1100001011100000
          84 -60 callgsubr
          -10 -48 rlineto
          hintmask 1001100101100000
          -60 callsubr
          36 34 hvcurveto
          -20 -91 rlineto
          hintmask 1100001011100000
          -74 -30 -85 -51 -66 vvcurveto
          686 245 -106 callgsubr
          hvcurveto
          hintmask 1100100101100000
          -77 callgsubr
          hintmask 1010100101100000
          -98 callsubr
          hintmask 1001010101100000
          -595 7 -36 callgsubr
        </CharString>
        <CharString name="gbreve">
          -23 28 callgsubr
          85 35 -35 138 hstemhm
          5 107 -28 28 55 69 hintmask 1101101010000000
          353 36 callsubr
          -48 rlineto
          hintmask 1110101010000000
          -60 callsubr
          37 34 hvcurveto
          -19 -92 rlineto
          hintmask 1101100110000000
          -81 callgsubr
          -278 -408 rmoveto
          -38 -25 23 76 hvcurveto
          hintmask 1110011010000000
          -15 callgsubr
          vhcurveto
          -47 -219 rlineto
          -55 -17 -56 -41 -38 hhcurveto
          272 611 rmoveto
          hintmask 1110101010000000
          27 callsubr
          hintmask 1110011010000000
          -31 callgsubr
          -353 -901 rmoveto
          -78 callgsubr
          endchar
        </CharString>
        <CharString name="germandbls">
          -58 -229 -21 250 41 599 60 hstemhm
          351 71 -54 54 hintmask 11101000
          209 530 rmoveto
          72 15 48 38 40 hhcurveto
          31 25 -23 -51 -50 -36 -60 -68 -15 hvcurveto
          -12 -38 rlineto
          hintmask 11110000
          70 -16 29 -48 -49 vvcurveto
          -99 -38 -150 -106 vhcurveto
          -8 -39 rlineto
          -1 11 11 -1 11 hhcurveto
          72 118 81 204 60 -26 58 -71 24 hvcurveto
          60 28 32 61 57 vvcurveto
          66 -44 61 -93 -66 -86 -27 -143 -30 vhcurveto
          -166 -780 118 36 rlineto
          endchar
        </CharString>
        <CharString name="grave">
          -307 582 -21 189 -20 hstem
          116 750 -63 callsubr
        </CharString>
        <CharString name="greater">
          -146 122 -21 328 -20 hstem
          71 374 rmoveto
          194 -120 -240 -96 -14 -57 304 124 11 54 -246 150 rlineto
          endchar
        </CharString>
        <CharString name="guillemotleft">
          8 90 -21 380 -20 hstem
          224 449 -16 callgsubr
          166 45 -16 callgsubr
          endchar
        </CharString>
        <CharString name="guillemotright">
          11 90 -21 380 -20 hstem
          267 69 -17 callsubr
          -166 -45 -17 callsubr
          endchar
        </CharString>
        <CharString name="guilsinglleft">
          -200 90 -21 380 -20 hstem
          224 449 -16 callgsubr
          endchar
        </CharString>
        <CharString name="guilsinglright">
          -197 90 -21 380 -20 hstem
          59 69 -17 callsubr
          endchar
        </CharString>
        <CharString name="h">
          -41 24 callgsubr
          119 rmoveto
          hintmask 01110100
          -39 callgsubr
          59 275 -103 -14 -147 -686 rlineto
          100 41 callgsubr
          37 34 -47 callgsubr
          hintmask 10111000
          -71 -48 -108 -88 -80 callgsubr
          endchar
        </CharString>
        <CharString name="h.end">
          -29 24 callgsubr
          123 rmoveto
          hintmask 01110100
          -1 callgsubr
          59 275 -103 -14 -147 -686 rlineto
          100 41 callgsubr
          37 34 -47 callgsubr
          hintmask 10111000
          -36 callsubr
          endchar
        </CharString>
        <CharString name="hungarumlaut">
          -72 561 189 hstem
          120 561 -102 callsubr
          39 -189 -102 callsubr
          endchar
        </CharString>
        <CharString name="hyphen">
          19 callgsubr
        </CharString>
        <CharString name="i">
          29 callgsubr
          98 133 hstemhm
          8 100 -15 133 hintmask 11101000
          93 644 rmoveto
          -102 callgsubr
          -8 -144 rmoveto
          11 callsubr
          hintmask 11110000
          -17 callgsubr
          endchar
        </CharString>
        <CharString name="i.end">
          -279 -26 callgsubr
          98 133 hstemhm
          9 100 -16 133 hintmask 11110000
          10 callsubr
          -86 callsubr
          hintmask 11101000
          -93 25 callgsubr
          endchar
        </CharString>
        <CharString name="i_x">
          55 42 callgsubr
          98 133 hstemhm
          8 101 -16 133 233 109 hintmask 10111010
          257 -64 callsubr
          hintmask 11011010
          -106 callsubr
          -44 -34 -59 -73 -83 rrcurveto
          hintmask 10110110
          -41 227 rlineto
          -278 25 callgsubr
          endchar
        </CharString>
        <CharString name="i_x.end">
          70 42 callgsubr
          98 133 hstemhm
          8 101 -16 133 242 109 hintmask 10111010
          257 -89 callgsubr
          -68 -321 -6 callsubr
          -97 23 29 -41 59 40 callgsubr
          -51 callsubr
          hintmask 11011010
          -96 callsubr
          hintmask 10110110
          -25 callgsubr
          -278 25 callgsubr
          endchar
        </CharString>
        <CharString name="i_z">
          85 0 -29 callsubr
          78 133 hstemhm
          9 100 -16 133 5 -21 callgsubr
          hintmask 0011011011000000
          10 callsubr
          -8 callgsubr
          -90 49 -57 callgsubr
          hintmask 1001011011000000
          -94 callsubr
          -72 callgsubr
          hintmask 1001010111000000
          -93 25 callgsubr
          406 -559 -106 callgsubr
          -78 callsubr
          hvcurveto
          -53 callsubr
          hintmask 1000111011000000
          -103 callgsubr
          hintmask 0101011011000000
          -98 callsubr
          endchar
        </CharString>
        <CharString name="iacute">
          29 callgsubr
          270 -20 hstem
          8 100 vstem
          10 callsubr
          -17 callgsubr
          -67 61 -102 callsubr
          endchar
        </CharString>
        <CharString name="iacute.end">
          -279 -26 callgsubr
          270 -20 hstem
          9 100 vstem
          10 callsubr
          -86 callsubr
          -67 61 -102 callsubr
          endchar
        </CharString>
        <CharString name="iacute_x">
          63 42 callgsubr
          270 -10 callsubr
          -72 callgsubr
          -101 hlineto
          -68 -321 -6 callsubr
          -96 23 29 -9 callgsubr
          hintmask 11011100
          -96 callsubr
          hintmask 10111100
          -25 callgsubr
          -252 61 -102 callsubr
          endchar
        </CharString>
        <CharString name="iacute_z">
          85 0 -29 callsubr
          250 -20 hstemhm
          9 100 122 -21 callgsubr
          hintmask 0011011110000000
          10 callsubr
          -8 callgsubr
          -90 49 -57 callgsubr
          hintmask 1001011110000000
          -94 callsubr
          -72 callgsubr
          313 -415 -106 callgsubr
          -78 callsubr
          hvcurveto
          -53 callsubr
          hintmask 1000111110000000
          -103 callgsubr
          hintmask 0101011110000000
          -98 callsubr
          -380 476 -102 callsubr
          endchar
        </CharString>
        <CharString name="icircumflex">
          29 callgsubr
          248 -20 hstem
          8 100 vstem
          10 callsubr
          -17 callgsubr
          109 61 -96 callgsubr
        </CharString>
        <CharString name="idieresis">
          29 callgsubr
          110 105 hstemhm
          8 100 -85 105 59 105 hintmask 11110100
          10 callsubr
          -17 callgsubr
          hintmask 11101100
          -163 142 -82 callgsubr
        </CharString>
        <CharString name="igrave">
          29 callgsubr
          270 -20 hstem
          8 100 vstem
          10 callsubr
          -17 callgsubr
          -57 250 -63 callsubr
        </CharString>
        <CharString name="ij">
          -54 4 callsubr
          322 -47 callsubr
          62 callsubr
          -81 callgsubr
          -337 hmoveto
          11 callsubr
          hintmask 1111010010000000
          -86 callsubr
          hintmask 1111100110000000
          -93 25 callgsubr
          237 hmoveto
          -102 callgsubr
          -201 -842 rmoveto
          -78 callgsubr
          endchar
        </CharString>
        <CharString name="ij.end">
          -79 4 callsubr
          53 -60 callgsubr
          62 callsubr
          -75 -30 -85 -51 -66 vvcurveto
          32 660 rmoveto
          11 callsubr
          hintmask 1111010010000000
          -86 callsubr
          hintmask 1111100110000000
          -93 25 callgsubr
          237 hmoveto
          -102 callgsubr
          -201 -842 rmoveto
          -78 callgsubr
          endchar
        </CharString>
        <CharString name="j">
          -291 31 callgsubr
          85 -47 callsubr
          -109 -513 rlineto
          -74 -30 -86 -86 callgsubr
          -92 25 callgsubr
          -201 -842 -37 callgsubr
          31 callsubr
          -69 -15 -17 -47 -37 hhcurveto
          endchar
        </CharString>
        <CharString name="j.end">
          -316 31 callgsubr
          -184 -60 callgsubr
          62 callsubr
          -74 -30 -86 -51 -66 vvcurveto
          277 804 rmoveto
          -102 callgsubr
          -201 -842 -37 callgsubr
          31 callsubr
          -69 -15 -17 -47 -37 hhcurveto
          endchar
        </CharString>
        <CharString name="j_x">
          50 -250 52 192 53 callgsubr
          98 133 64 callgsubr
          238 133 241 109 hintmask 11011111
          256 -10 callgsubr
          62 callsubr
          -75 -30 -85 -49 -74 vvcurveto
          -56 48 -28 64 60 callgsubr
          13 65 84 23 92 28 73 98 rlinecurve
          -98 22 30 -9 callgsubr
          hintmask 11101111
          -96 callsubr
          hintmask 11011111
          -25 callgsubr
          -277 25 callgsubr
          -202 -842 rmoveto
          -22 -14 16 24 41 39 35 74 31 hvcurveto
          -7 -31 rlineto
          -70 -15 -17 -46 -38 hhcurveto
          endchar
        </CharString>
        <CharString name="j_z">
          63 -250 52 198 -22 callgsubr
          78 133 64 callgsubr
          238 133 -17 -21 callgsubr
          hintmask 1101011011000000
          -184 -60 callgsubr
          62 callsubr
          -74 -30 -86 -51 -66 vvcurveto
          661 245 -106 callgsubr
          -78 callsubr
          hvcurveto
          -53 callsubr
          hintmask 1100111101000000
          -103 callgsubr
          hintmask 1011011101000000
          -98 callsubr
          -384 559 rmoveto
          -102 callgsubr
          -201 -842 -37 callgsubr
          31 callsubr
          -69 -15 -17 -47 -37 hhcurveto
          endchar
        </CharString>
        <CharString name="k">
          -51 33 callgsubr
          -84 84 -84 106 -46 callsubr
          hintmask 10111001
          38 22 48 47 vvcurveto
          61 -20 52 -81 vhcurveto
          -5 -5 -1 -5 hhcurveto
          197 136 50 callgsubr
        </CharString>
        <CharString name="k.end">
          -27 33 callgsubr
          -106 183 -161 84 -84 106 hintmask 0111100100000000
          125 686 rmoveto
          59 callsubr
          45 212 rlineto
          52 30 34 25 37 hhcurveto
          27 15 -15 -36 hvcurveto
          hintmask 1011101000000000
          -43 -22 -38 -53 vvcurveto
          -59 27 -51 68 53 32 32 51 3 vhcurveto
          -6 -14 -14 -1 -8 hhcurveto
          hintmask 1011110000000000
          -25 -16 11 36 hvcurveto
          hintmask 1011100010000000
          43 22 40 56 vvcurveto
          54 -20 55 -78 -6 -7 -1 -1 -6 vhcurveto
          198 137 50 callgsubr
        </CharString>
        <CharString name="k.salt">
          -51 2 callgsubr
          289 76 60 81 194 -20 hstemhm
          244 106 -84 84 -46 callsubr
          38 22 48 47 vvcurveto
          61 -20 52 -81 -12 -13 -2 -4 -14 vhcurveto
          46 53 36 20 39 16 15 -10 21 hhcurveto
          20 27 15 32 18 -15 26 -33 -52 -61 -38 -139 -150 hvcurveto
          80 371 rlineto
          endchar
        </CharString>
        <CharString name="l">
          56 callsubr
          125 686 rmoveto
          -109 -507 -20 callsubr
          endchar
        </CharString>
        <CharString name="l.end">
          -280 -6 76 630 -20 hstem
          8 101 vstem
          8 callgsubr
          -94 callsubr
          116 540 rlineto
          endchar
        </CharString>
        <CharString name="l_x">
          63 42 callgsubr
          220 -10 callsubr
          116 540 -104 -14 -108 -507 -6 callsubr
          -96 23 29 -9 callgsubr
          hintmask 11011100
          -96 callsubr
          hintmask 10111100
          70 callsubr
        </CharString>
        <CharString name="l_z">
          84 0 -29 callsubr
          200 -20 hstemhm
          8 101 121 -21 callgsubr
          hintmask 0011011110000000
          8 callgsubr
          hintmask 1001011110000000
          -94 callsubr
          116 540 rlineto
          269 -615 -106 callgsubr
          -78 callsubr
          hvcurveto
          -53 callsubr
          hintmask 1000111110000000
          -103 callgsubr
          hintmask 0101011110000000
          -98 callsubr
          endchar
        </CharString>
        <CharString name="less">
          -150 122 -21 328 -20 hstem
          323 429 rmoveto
          -307 -150 -9 -41 247 -137 12 57 -194 96 241 120 rlineto
          endchar
        </CharString>
        <CharString name="logicalnot">
          -55 51 250 -70 70 hstemhm
          hintmask 01000000
          386 301 rmoveto
          -349 hlineto
          -16 -70 rlineto
          270 hlineto
          hintmask 10000000
          -37 -180 rlineto
          81 hlineto
          endchar
        </CharString>
        <CharString name="lslash">
          56 callsubr
          -17 306 rmoveto
          -43 vlineto
          59 38 -26 -122 rlineto
          -68 callgsubr
          44 -74 callgsubr
          vhcurveto
          -105 callgsubr
          47 216 150 97 3 44 -142 -91 59 274 -104 -14 -72 -335 rlineto
          endchar
        </CharString>
        <CharString name="m">
          185 21 callgsubr
          119 rmoveto
          hintmask 10100010
          38 callsubr
          -36 -50 -10 -74 -49 vhcurveto
          48 -7 -27 36 -67 42 callsubr
          hintmask 10011000
          14 64 rlineto
          -101 hlineto
          -52 callsubr
          hintmask 10100100
          -56 callsubr
          hintmask 01101000
          -71 -48 -108 -88 vvcurveto
          -64 27 -49 69 41 65 17 168 63 callsubr
          hintmask 10100100
          49 callsubr
        </CharString>
        <CharString name="m.end">
          197 21 callgsubr
          123 rmoveto
          hintmask 10100010
          65 callsubr
          -36 -49 -10 -74 -50 vhcurveto
          47 -7 -26 37 -68 42 callsubr
          hintmask 10011000
          14 64 rlineto
          -101 hlineto
          -52 callsubr
          hintmask 10100100
          -56 callsubr
          hintmask 01101000
          -27 callgsubr
          hintmask 10100100
          -5 -12 -10 -2 -9 hhcurveto
          -24 -12 16 37 hvcurveto
          endchar
        </CharString>
        <CharString name="m_x">
          529 0 70 -55 -21 435 76 -48 100 -57 -20 hstemhm
          480 4 callgsubr
          300 109 hintmask 1000101010000000
          723 -47 callsubr
          58 -317 rlineto
          -75 -49 -65 -38 -48 hhcurveto
          -19 -14 6 43 hvcurveto
          hintmask 1010000110000000
          38 callsubr
          -36 -50 -10 -74 -49 vhcurveto
          48 -7 -27 36 -67 42 callsubr
          hintmask 1000110010000000
          14 64 rlineto
          -101 hlineto
          -52 callsubr
          hintmask 1010001010000000
          72 32 27 35 42 hhcurveto
          26 15 -13 -38 -10 -1 -16 -4 -18 hvcurveto
          -71 -334 rlineto
          101 41 callgsubr
          27 34 -47 callgsubr
          hintmask 0110010010000000
          -73 -48 -101 -97 vvcurveto
          -66 22 -43 83 36 58 8 134 111 vhcurveto
          -100 23 30 -62 callgsubr
          hintmask 1001010010000000
          -103 callsubr
          hintmask 1000110010000000
          70 callsubr
        </CharString>
        <CharString name="m_z">
          563 0 70 -70 7 callgsubr
          136 -76 76 -59 59 -5 -20 hstemhm
          480 4 callgsubr
          75 -21 callgsubr
          hintmask 1001000010110000
          586 123 rmoveto
          hintmask 1001000001110000
          65 callsubr
          -36 -49 -10 -74 -50 vhcurveto
          47 -7 -26 37 -68 42 callsubr
          hintmask 1000001100110000
          14 64 rlineto
          -101 hlineto
          -52 callsubr
          hintmask 1000100010110000
          -56 callsubr
          hintmask 0011000100110000
          -27 callgsubr
          hintmask 1000001010110000
          -5 -12 -10 -2 -9 hhcurveto
          -24 -12 16 37 hvcurveto
          391 -38 -106 callgsubr
          hvcurveto
          hintmask 1001000100110000
          -32 callgsubr
          hintmask 1000010100110000
          -103 callgsubr
          hintmask 0101000100110000
          -98 callsubr
          endchar
        </CharString>
        <CharString name="minus">
          -37 231 70 hstem
          407 301 -1 callsubr
        </CharString>
        <CharString name="mu">
          -54 -145 -21 160 -3 callgsubr
          hstemhm
          108 146 0 91 hintmask 11110000
          -45 callsubr
          -141 -666 102 24 31 145 rlineto
          -6 14 14 -3 16 hhcurveto
          -13 callgsubr
          hvcurveto
          -68 5 32 -28 43 hhcurveto
          44 -80 callsubr
          -68 -29 -34 -41 -32 hhcurveto
          hintmask 11101000
          -25 -6 22 23 16 2 17 3 12 hvcurveto
          -72 callgsubr
          endchar
        </CharString>
        <CharString name="multiply">
          -107 123 -21 316 -20 hstem
          340 166 rmoveto
          -94 93 96 96 -48 48 -96 -96 -109 111 -51 -52 109 -110 -106 -106 48 -48 106 106 95 -94 rlineto
          endchar
        </CharString>
        <CharString name="n">
          33 callsubr
          hstemhm
          254 4 callgsubr
          hintmask 01011000
          84 -47 callsubr
          -52 callsubr
          hintmask 10100100
          72 33 36 35 -47 callgsubr
          hintmask 10101000
          -71 -48 -108 -88 -80 callgsubr
          hintmask 10100010
          -39 callgsubr
          hintmask 10011000
          16 75 rlineto
          endchar
        </CharString>
        <CharString name="n.end">
          -29 39 callsubr
          hstemhm
          254 4 callgsubr
          hintmask 10100100
          360 123 rmoveto
          hintmask 10100010
          -1 callgsubr
          hintmask 01011000
          16 75 rlineto
          -101 hlineto
          -52 callsubr
          hintmask 10100100
          72 33 36 35 -47 callgsubr
          -36 callsubr
          endchar
        </CharString>
        <CharString name="n_z">
          330 23 callsubr
          -76 76 -59 59 -5 -20 hstemhm
          254 4 callgsubr
          68 -21 callgsubr
          hintmask 1001000010110000
          360 123 rmoveto
          hintmask 1000100001110000
          -1 callgsubr
          hintmask 0010001100110000
          16 75 rlineto
          -101 hlineto
          -52 callsubr
          hintmask 1000100010110000
          72 33 36 35 -47 callgsubr
          hintmask 1000001010110000
          -36 callsubr
          384 -38 -106 callgsubr
          hvcurveto
          hintmask 1001000100110000
          -32 callgsubr
          hintmask 0010010100110000
          -103 callgsubr
          hintmask 0101000100110000
          -98 callsubr
          endchar
        </CharString>
        <CharString name="nacute">
          33 callsubr
          270 -20 hstemhm
          254 4 callgsubr
          hintmask 01011100
          84 -47 callsubr
          -52 callsubr
          hintmask 10101010
          72 33 36 35 -47 callgsubr
          hintmask 10101100
          -71 -48 -108 -88 -80 callgsubr
          hintmask 10101001
          -39 callgsubr
          hintmask 10011100
          16 75 rlineto
          67 61 -102 callsubr
          endchar
        </CharString>
        <CharString name="nine">
          39 -5 75 -75 174 136 60 344 41 hstemhm
          56 62 -47 94 253 109 hintmask 10110110
          325 444 rmoveto
          -50 -16 -31 -29 -32 hhcurveto
          -72 -9 79 40 112 63 113 92 57 43 -38 -131 -20 -1 -14 -1 -19 hvcurveto
          -411 -29 -183 -6 -18 hhcurveto
          hintmask 01111010
          -56 -14 43 25 12 1 9 10 10 hvcurveto
          -57 -2 -16 -38 -35 vvcurveto
          -50 35 -49 92 202 142 261 261 144 -48 89 -145 vhcurveto
          hintmask 10110110
          -161 -102 -121 -145 -92 41 -87 103 68 66 38 53 13 -4 23 -20 12 hvcurveto
          endchar
        </CharString>
        <CharString name="ntilde">
          33 callsubr
          95 70 -37 66 hstemhm
          254 4 callgsubr
          hintmask 0101101000000000
          84 -47 callsubr
          -52 callsubr
          hintmask 1010100100000000
          72 33 36 35 -47 callgsubr
          hintmask 1010101000000000
          -71 -48 -108 -88 -80 callgsubr
          hintmask 1010100010000000
          -39 callgsubr
          hintmask 1001101000000000
          16 75 rlineto
          276 165 -11 callsubr
          hintmask 1010011000000000
          -76 callsubr
          hintmask 1010101000000000
          -56 callgsubr
        </CharString>
        <CharString name="numbersign">
          17 -6 -21 168 66 126 66 319 -20 hstem
          265 -27 rmoveto
          27 hlineto
          37 168 rlineto
          126 hlineto
          13 66 rlineto
          -124 hlineto
          28 126 rlineto
          123 hlineto
          13 66 rlineto
          -122 57 callgsubr
          -132 57 callgsubr
          -114 hlineto
          -14 -66 rlineto
          116 hlineto
          -22 -126 rlineto
          -120 hlineto
          -14 -66 rlineto
          122 hlineto
          -30 -168 rlineto
          27 hlineto
          37 168 rlineto
          143 hlineto
          -100 192 rmoveto
          134 hlineto
          -22 -126 rlineto
          -140 hlineto
          endchar
        </CharString>
        <CharString name="o">
          0 callsubr
          -30 callsubr
          hintmask 10111000
          270 505 rmoveto
          -95 callsubr
          hvcurveto
          -35 callsubr
          -40 -50 -54 -20 -60 hhcurveto
          102 -1 -33 56 -79 hhcurveto
          -68 -435 -41 callsubr
          35 callgsubr
          hvcurveto
          -25 -3 -18 -14 -34 vvcurveto
          hintmask 11011000
          -24 7 -17 33 -69 callgsubr
          endchar
        </CharString>
        <CharString name="o.end">
          -40 -6 76 222 213 -55 55 -30 callsubr
          hintmask 10111000
          -61 callsubr
          hintmask 11011000
          47 callgsubr
          endchar
        </CharString>
        <CharString name="o_ae">
          543 -6 76 169 51 -51 129 89 48 hstemhm
          8 110 174 91 -48 48 57 105 446 61 hintmask 1011110110000000
          382 368 rmoveto
          96 -6 -34 41 -80 hhcurveto
          -192 -62 -237 -112 -118 70 -44 78 142 80 148 177 5 hvcurveto
          22 136 31 116 114 hhcurveto
          63 17 -36 -42 -30 -9 -35 -12 -28 hvcurveto
          hintmask 1101110110000000
          2 -14 -18 2 -28 hhcurveto
          -128 -95 -7 callgsubr
          -62 -25 30 65 13 1 12 2 22 hvcurveto
          157 12 91 68 109 vvcurveto
          83 -53 21 -51 -52 -42 -22 -24 -33 vhcurveto
          32 -42 -42 14 -47 hhcurveto
          hintmask 1011110110000000
          -136 -44 -137 -128 hhcurveto
          -191 -298 rmoveto
          -51 -22 38 63 99 54 180 107 28 16 -14 -28 7 hvcurveto
          -22 -4 -16 -15 -33 vvcurveto
          hintmask 1101101110000000
          -36 18 -4 25 vhcurveto
          -107 -7 -38 -139 -99 hhcurveto
          763 386 rmoveto
          32 5 -20 -24 -90 -71 -59 -111 -12 hvcurveto
          104 18 54 101 73 37 callsubr
          -45 -59 -50 hhcurveto
          -33 -22 27 38 71 77 33 70 hvcurveto
          endchar
        </CharString>
        <CharString name="o_s">
          251 17 callgsubr
          26 -20 hstemhm
          8 110 176 87 21 -76 callgsubr
          hintmask 1110111010010000
          -50 callsubr
          48 63 23 63 31 vhcurveto
          40 23 45 29 43 47 rrcurveto
          -42 hlineto
          -19 -16 -26 -19 -26 -17 rrcurveto
          2 12 1 14 14 vvcurveto
          -105 callsubr
          endchar
        </CharString>
        <CharString name="o_s.end">
          261 17 callgsubr
          26 -20 hstemhm
          8 110 176 87 21 -76 callgsubr
          hintmask 1110111010010000
          -39 callsubr
          -105 callsubr
          endchar
        </CharString>
        <CharString name="o_s_x">
          583 -6 76 59 89 77 12 callgsubr
          -55 107 -57 -20 hstemhm
          8 110 176 87 21 -76 callgsubr
          280 109 hintmask 1100101101100100
          -50 callsubr
          35 44 13 32 33 vhcurveto
          42 17 84 41 56 50 rrcurveto
          -107 23 29 -46 69 -92 callgsubr
          hintmask 1100011110001100
          -25 callgsubr
          -114 hlineto
          -2 callsubr
          hintmask 1101001110100100
          -101 callsubr
          hintmask 1110001101010100
          -71 callsubr
          hintmask 1110001110100100
          -83 callgsubr
          hintmask 1101001101100100
          19 22 18 32 13 -13 26 -30 -47 -24 -59 -37 hvcurveto
          -200 -52 -41 callsubr
          100 56 180 101 31 21 -15 -41 7 hvcurveto
          -25 -8 -15 -26 -23 vvcurveto
          hintmask 1110001110100100
          -21 12 -19 26 -2 -69 callgsubr
          endchar
        </CharString>
        <CharString name="o_s_z">
          597 -6 75 -75 150 -123 -21 129 89 77 210 -136 53 callsubr
          51 -20 hstemhm
          8 110 176 87 21 49 -49 114 66 101 -80 105 35 -21 callgsubr
          hintmask 100110001110101110000000
          -39 callsubr
          hintmask 100101001111010110000000
          -101 callsubr
          hintmask 100110001110101110000000
          -71 callsubr
          hintmask 100110001111010110000000
          -83 callgsubr
          hintmask 100100011110110110000000
          19 22 18 32 13 -13 26 -30 -47 -24 -59 -37 hvcurveto
          609 -37 -106 callgsubr
          hvcurveto
          hintmask 001101001111001110000000
          -77 callgsubr
          hintmask 010000101111010110000000
          -98 callsubr
          -809 -15 -41 callsubr
          100 56 180 101 31 21 -15 -41 7 hvcurveto
          -25 -8 -15 -26 -23 vvcurveto
          hintmask 100110001111010110000000
          -21 12 -19 26 -2 -69 callgsubr
          endchar
        </CharString>
        <CharString name="o_x">
          331 -45 91 -52 52 -52 -11 callgsubr
          -55 107 -57 -20 -30 callsubr
          30 59 -59 110 216 109 hintmask 1000001111010000
          46 callgsubr
          hintmask 0100100110110000
          -24 callgsubr
          hintmask 1001000110110000
          49 callgsubr
          hintmask 0010010111010000
          -59 callsubr
          hintmask 0010001111010000
          45 callsubr
          hintmask 1000100111010000
          -5 callgsubr
          hintmask 0011000111010000
          -24 7 -17 33 -69 callgsubr
          endchar
        </CharString>
        <CharString name="oacute">
          0 callsubr
          245 -20 -30 callsubr
          hintmask 10111100
          270 505 rmoveto
          -95 callsubr
          hvcurveto
          -35 callsubr
          -26 -32 -70 -36 -45 hhcurveto
          -6 -6 0 2 -5 -6 callgsubr
          hintmask 11011100
          -24 7 -17 33 -69 callgsubr
          45 491 -102 callsubr
          endchar
        </CharString>
        <CharString name="oacute.end">
          -40 -6 76 222 213 -55 55 245 -20 -30 callsubr
          hintmask 10111100
          -61 callsubr
          hintmask 11011100
          47 callgsubr
          74 491 -102 callsubr
          endchar
        </CharString>
        <CharString name="oacute_s">
          251 17 callgsubr
          245 -20 hstemhm
          8 110 176 87 21 -76 callgsubr
          hintmask 1110111010010000
          -50 callsubr
          48 63 23 63 31 vhcurveto
          40 23 45 29 43 47 rrcurveto
          -42 hlineto
          -19 -16 -26 -19 -26 -17 rrcurveto
          2 12 1 14 14 vvcurveto
          -105 callsubr
          24 491 -102 callsubr
          endchar
        </CharString>
        <CharString name="oacute_s.end">
          261 17 callgsubr
          245 -20 hstemhm
          8 110 176 87 21 -76 callgsubr
          hintmask 1110111010010000
          -39 callsubr
          -105 callsubr
          24 491 -102 callsubr
          endchar
        </CharString>
        <CharString name="oacute_s_x">
          603 -100 callgsubr
        </CharString>
        <CharString name="oacute_s_z">
          598 -100 callgsubr
        </CharString>
        <CharString name="oacute_x">
          331 -45 91 -52 52 -52 -11 callgsubr
          -55 107 -57 -20 270 -20 -30 callsubr
          30 59 -59 110 216 109 hintmask 1000001111101000
          46 callgsubr
          hintmask 0100100111011000
          -24 callgsubr
          hintmask 1001000111011000
          49 callgsubr
          hintmask 0010010111101000
          -59 callsubr
          hintmask 0010001111101000
          45 callsubr
          hintmask 1000100111101000
          -5 callgsubr
          hintmask 0011000111101000
          -24 7 -17 33 -69 callgsubr
          84 491 -102 callsubr
          endchar
        </CharString>
        <CharString name="ocircumflex">
          0 callsubr
          223 -20 -30 callsubr
          hintmask 10111100
          270 505 rmoveto
          -95 callsubr
          hvcurveto
          -35 callsubr
          -27 -33 -75 -34 -45 hhcurveto
          -4 -4 0 1 -3 -6 callgsubr
          hintmask 11011100
          -24 7 -17 33 -69 callgsubr
          204 491 -96 callgsubr
        </CharString>
        <CharString name="odieresis">
          0 callsubr
          85 105 hstemhm
          8 110 26 105 43 89 -73 105 hintmask 10111110
          270 505 rmoveto
          -95 callsubr
          hvcurveto
          -35 callsubr
          -25 -31 -69 -38 -46 hhcurveto
          -6 -7 1 2 -5 -6 callgsubr
          hintmask 11011101
          -24 7 -17 33 -69 callgsubr
          -58 572 -82 callgsubr
        </CharString>
        <CharString name="oe">
          166 -4 callsubr
          hstemhm
          8 110 499 56 hintmask 11011000
          270 505 rmoveto
          -206 -56 -238 -115 -114 69 -44 87 67 56 39 64 38 hvcurveto
          -73 19 59 -30 63 hhcurveto
          107 101 87 98 53 hvcurveto
          -32 hlineto
          -78 -52 -66 -31 -63 hhcurveto
          -64 -23 31 68 10 0 10 1 11 hvcurveto
          154 16 91 74 112 vvcurveto
          82 -52 21 -55 -86 -60 -52 -67 -39 vhcurveto
          77 -9 -34 42 -68 hhcurveto
          -68 -435 -41 callsubr
          hvcurveto
          hintmask 10111000
          -5 callgsubr
          hintmask 11011000
          -24 7 -17 33 -69 callgsubr
          373 386 rmoveto
          32 10 -23 -23 -90 -73 -65 -111 -16 hvcurveto
          103 17 50 114 75 hhcurveto
          endchar
        </CharString>
        <CharString name="ogonek">
          -217 -193 49 -49 198 hstemhm
          45 69 hintmask 10100000
          122 5 rmoveto
          -50 -39 -27 -44 -37 -29 callgsubr
          hvcurveto
          hintmask 01100000
          40 37 38 31 11 vhcurveto
          endchar
        </CharString>
        <CharString name="ograve">
          0 callsubr
          245 -20 -30 callsubr
          hintmask 10111100
          270 505 rmoveto
          -95 callsubr
          hvcurveto
          -35 callsubr
          -26 -32 -71 -36 -45 hhcurveto
          -6 -5 1 1 -5 -6 callgsubr
          hintmask 11011100
          -24 7 -17 33 -69 callgsubr
          62 680 -63 callsubr
        </CharString>
        <CharString name="ohungarumlaut">
          0 callsubr
          56 189 -30 callsubr
          hintmask 10111100
          270 505 rmoveto
          -95 callsubr
          hvcurveto
          -35 callsubr
          -40 -50 -54 -20 -60 hhcurveto
          102 -1 -33 56 -79 hhcurveto
          -68 -435 -41 callsubr
          35 callgsubr
          hvcurveto
          -25 -3 -18 -14 -34 vvcurveto
          hintmask 11011100
          -24 7 -17 33 -69 callgsubr
          -8 491 -102 callsubr
          39 -189 -102 callsubr
          endchar
        </CharString>
        <CharString name="one">
          -199 21 -21 618 52 78 -20 hstem
          322 748 rmoveto
          -68 -110 -73 -10 -51 hhcurveto
          -14 -52 rlineto
          111 hlineto
          -130 -618 rlineto
          108 hlineto
          endchar
        </CharString>
        <CharString name="onehalf">
          164 0 55 callgsubr
          341 -20 hstemhm
          385 54 110 46 -46 60 hintmask 1001011100000000
          511 -23 callsubr
          hintmask 0011011010000000
          270 66 -7 callsubr
          hintmask 0100111100000000
          2 callsubr
          hintmask 1001011100000000
          22 callgsubr
          hintmask 0011011100000000
          -34 -36 12 -42 hhcurveto
          -174 641 -13 callsubr
        </CharString>
        <CharString name="onequarter">
          153 1 180 -160 -21 150 31 569 -20 hstemhm
          433 46 hintmask 01111000
          534 -23 callsubr
          411 398 rmoveto
          hintmask 10011000
          14 callgsubr
          hintmask 01111000
          -79 -61 -85 -20 -59 vhcurveto
          151 hlineto
          hintmask 10011000
          -34 -149 rlineto
          61 hlineto
          hintmask 01111000
          37 callgsubr
          -404 301 -13 callsubr
        </CharString>
        <CharString name="onesuperior">
          -307 366 -21 404 -20 hstem
          231 749 -13 callsubr
        </CharString>
        <CharString name="ordfeminine">
          -175 466 43 205 31 -5 -20 hstemhm
          95 60 hintmask 10110000
          290 740 rmoveto
          -6 -28 rlineto
          hintmask 11010000
          24 -5 -23 9 -18 hhcurveto
          -99 -44 -117 -71 -66 35 -25 36 36 32 25 31 17 hvcurveto
          -40 2 19 -16 24 hhcurveto
          21 15 11 35 9 hvcurveto
          -2 -8 -5 -1 -5 hhcurveto
          -17 -4 14 14 8 1 8 1 6 hvcurveto
          hintmask 10110000
          42 181 rlineto
          -154 -231 rmoveto
          -21 -16 13 42 hvcurveto
          hintmask 11010000
          52 27 98 68 17 9 -13 -12 2 vhcurveto
          -27 -119 rlineto
          -34 -7 -29 -27 -23 hhcurveto
          endchar
        </CharString>
        <CharString name="ordmasculine">
          -204 465 42 209 30 hstem
          94 60 102 49 vstem
          242 746 rmoveto
          -113 -35 -131 -63 -63 42 -24 48 67 47 73 95 7 hvcurveto
          25 9 14 22 11 25 -7 12 rcurveline
          -11 -7 -16 -17 -16 hhcurveto
          -1 5 -1 3 -3 2 rrcurveto
          41 -6 -19 22 -37 hhcurveto
          -37 -239 rmoveto
          -34 -17 17 38 55 35 99 56 17 12 -9 -23 4 hvcurveto
          -12 -4 -10 -11 -17 vvcurveto
          -17 6 -6 15 vhcurveto
          -76 -8 -32 -46 -32 hhcurveto
          endchar
        </CharString>
        <CharString name="oslash">
          -89 -82 -21 173 225 155 54 101 -20 hstem
          8 110 174 89 vstem
          162 -103 rmoveto
          21 98 112 13 75 126 11 164 rlinecurve
          -35 callsubr
          -26 -32 -69 -36 -45 hhcurveto
          -7 -6 0 2 -5 hvcurveto
          -1 86 -24 53 -55 15 22 104 rcurveline
          -52 hlineto
          -21 -101 rlineto
          -191 -13 -53 -228 -111 vvcurveto
          -100 52 -46 71 -10 vhcurveto
          -21 -99 rlineto
          92 173 -41 callsubr
          35 callgsubr
          hvcurveto
          -25 -3 -18 -14 -34 vvcurveto
          -24 7 -17 33 -69 callgsubr
          endchar
        </CharString>
        <CharString name="otilde">
          0 callsubr
          70 70 -37 66 -30 callsubr
          hintmask 10110110
          270 505 rmoveto
          -95 callsubr
          hvcurveto
          -35 callsubr
          -26 -32 -72 -36 -45 hhcurveto
          -6 -5 1 1 -4 -6 callgsubr
          hintmask 11010110
          -24 7 -17 33 -69 callgsubr
          246 595 -11 callsubr
          hintmask 11001110
          -76 callsubr
          hintmask 11010110
          -56 callgsubr
        </CharString>
        <CharString name="p">
          -85 -229 -21 244 64 382 65 -65 97 hstemhm
          310 99 hintmask 11011000
          92 537 rmoveto
          -167 -787 106 25 57 268 rlineto
          -29 18 26 -20 36 hhcurveto
          186 55 215 129 hvcurveto
          hintmask 11101000
          122 -50 45 -70 -44 -38 -18 -27 -31 vhcurveto
          hintmask 11011000
          17 77 rlineto
          48 -97 52 callsubr
          -23 10 25 -15 hvcurveto
          64 298 rlineto
          31 22 27 18 30 hhcurveto
          endchar
        </CharString>
        <CharString name="p.calt">
          -40 -229 -21 244 76 359 76 -76 108 hstemhm
          302 58 -58 106 hintmask 11101000
          360 119 rmoveto
          hintmask 11100100
          38 callsubr
          -35 -48 -10 -70 -53 vhcurveto
          hintmask 11011000
          24 112 rlineto
          -101 hlineto
          -167 -787 106 25 116 548 rlineto
          72 33 36 34 -47 callgsubr
          hintmask 11101000
          -71 -48 -108 -88 -80 callgsubr
          endchar
        </CharString>
        <CharString name="p.salt">
          -70 -229 -21 244 71 375 64 -64 97 hstemhm
          124 57 128 98 hintmask 11101100
          92 537 rmoveto
          -167 -787 106 25 116 546 rlineto
          64 18 30 55 46 hhcurveto
          48 20 -48 -59 -30 -5 -37 -8 -37 hvcurveto
          -95 -34 -77 -51 -75 vvcurveto
          -47 24 -28 57 81 77 106 128 30 vhcurveto
          37 10 37 7 32 2 8 35 rcurveline
          -33 -6 -37 -7 -37 -9 rrcurveto
          4 27 3 28 28 vvcurveto
          88 -38 73 -74 -35 -44 -8 -48 -42 vhcurveto
          hintmask 11011100
          19 89 rlineto
          6 -472 rmoveto
          -9 -9 17 7 32 44 36 59 30 hvcurveto
          -66 -20 -31 -56 -34 hhcurveto
          endchar
        </CharString>
        <CharString name="paragraph">
          11 -60 -21 830 -20 hstem
          224 -81 rmoveto
          77 368 26 4 27 6 20 7 rlinecurve
          -81 -385 rlineto
          72 hlineto
          127 593 rlineto
          5 26 3 24 22 vvcurveto
          121 -85 44 -100 -165 -85 -134 -124 -99 54 -93 111 -14 vhcurveto
          -77 -366 rlineto
          endchar
        </CharString>
        <CharString name="parenleft">
          -236 41 callsubr
          12 61 vstem
          338 750 rmoveto
          -198 -95 -128 -294 -261 vvcurveto
          -136 35 -128 78 -86 vhcurveto
          28 24 rlineto
          -59 75 -21 109 118 vvcurveto
          256 116 317 155 74 vhcurveto
          endchar
        </CharString>
        <CharString name="parenright">
          -236 41 callsubr
          170 61 vstem
          -95 -250 rmoveto
          198 95 128 294 261 vvcurveto
          136 -35 128 -78 86 vhcurveto
          -28 -24 rlineto
          59 -75 21 -109 -118 vvcurveto
          -256 -116 -317 -155 -74 vhcurveto
          endchar
        </CharString>
        <CharString name="percent">
          107 47 callsubr
          68 55 137 50 11 55 137 50 vstem
          542 -23 callsubr
          72 702 -91 callsubr
          358 -151 -91 callsubr
          endchar
        </CharString>
        <CharString name="period">
          -295 -5 133 hstem
          -12 133 vstem
          -12 61 rmoveto
          -102 callgsubr
          endchar
        </CharString>
        <CharString name="periodcentered">
          -9 callsubr
        </CharString>
        <CharString name="perthousand">
          385 47 callsubr
          69 55 137 50 11 55 137 50 36 55 137 50 vstem
          543 -23 callsubr
          72 702 -91 callsubr
          358 -151 -91 callsubr
          383 223 -91 callsubr
          endchar
        </CharString>
        <CharString name="plus">
          -79 104 213 -70 70 -70 192 hstemhm
          hintmask 10000000
          398 317 rmoveto
          -143 hlineto
          hintmask 00100000
          27 122 rlineto
          -83 hlineto
          hintmask 10000000
          -27 -122 rlineto
          -141 hlineto
          hintmask 01000000
          -16 -70 rlineto
          142 hlineto
          hintmask 10000000
          -31 -143 rlineto
          83 hlineto
          31 143 rlineto
          143 hlineto
          endchar
        </CharString>
        <CharString name="plusminus">
          -29 77 70 61 213 -70 70 -70 192 hstemhm
          hintmask 11000000
          447 421 rmoveto
          -143 hlineto
          hintmask 10010000
          27 122 rlineto
          -83 hlineto
          hintmask 11000000
          -27 -122 rlineto
          -141 hlineto
          hintmask 10100000
          -16 -70 rlineto
          142 hlineto
          hintmask 11000000
          -31 -143 rlineto
          83 hlineto
          hintmask 10100000
          31 143 rlineto
          143 hlineto
          -45 -204 rmoveto
          -368 hlineto
          -16 -70 rlineto
          369 hlineto
          endchar
        </CharString>
        <CharString name="q">
          -63 -229 -21 244 1 callsubr
          -5 -20 hstemhm
          5 107 hintmask 11011000
          352 36 callsubr
          -46 rlineto
          hintmask 11101000
          40 -11 -38 11 -32 hhcurveto
          -168 -88 -215 -135 -117 63 -44 65 48 44 24 35 32 hvcurveto
          -64 -303 106 25 rlineto
          hintmask 11011000
          154 725 rlineto
          -278 -430 rmoveto
          -38 -25 23 76 hvcurveto
          hintmask 11101000
          100 61 181 110 29 16 -21 -20 4 vhcurveto
          -52 -246 rlineto
          -53 -18 -50 -40 -37 hhcurveto
          endchar
        </CharString>
        <CharString name="question">
          -90 0 133 322 245 -44 44 hstemhm
          73 81 -81 140 136 94 hintmask 11010100
          443 579 rmoveto
          67 -49 54 -111 -151 -59 -93 -68 -56 37 -28 39 28 28 14 28 17 vhcurveto
          -50 8 -18 35 23 vvcurveto
          hintmask 10101100
          56 58 37 52 45 40 -23 -56 vhcurveto
          -159 -202 -45 -141 vvcurveto
          46 hlineto
          39 147 211 27 173 vvcurveto
          -363 -513 rmoveto
          -102 callgsubr
          endchar
        </CharString>
        <CharString name="questiondown">
          -82 -247 44 -44 245 322 133 hstemhm
          -48 94 136 140 -81 81 hintmask 01110100
          -48 -126 rmoveto
          -67 49 -54 111 151 59 93 68 56 -37 28 -39 -28 -28 -14 -28 -17 vhcurveto
          50 -8 18 -35 -23 vvcurveto
          hintmask 10111000
          -56 -58 -37 -52 -45 -40 23 56 vhcurveto
          159 202 45 141 vvcurveto
          -46 hlineto
          -39 -147 -211 -27 -173 vvcurveto
          363 513 25 callsubr
        </CharString>
        <CharString name="quotedbl">
          -173 26 callsubr
          98 -189 rmoveto
          55 hlineto
          91 189 rlineto
          -85 hlineto
          endchar
        </CharString>
        <CharString name="quotedblbase">
          -75 -105 44 callsubr
          -18 135 -95 95 86 135 -95 95 hintmask 11011000
          -12 61 rmoveto
          17 callsubr
          hintmask 11100100
          -58 callsubr
          221 hmoveto
          17 callsubr
          hintmask 11101000
          -58 callsubr
          endchar
        </CharString>
        <CharString name="quotedblleft">
          -79 515 44 callsubr
          91 97 -97 137 82 97 -97 137 hintmask 11101000
          65 callgsubr
          hintmask 11011000
          -34 callsubr
          219 hmoveto
          54 -34 -15 37 vvcurveto
          hintmask 11100100
          -34 callsubr
          endchar
        </CharString>
        <CharString name="quotedblright">
          -82 515 44 callsubr
          107 137 -97 97 82 137 -97 97 hintmask 11100100
          332 681 rmoveto
          17 callsubr
          hintmask 11011000
          -33 callgsubr
          -219 hmoveto
          17 callsubr
          hintmask 11101000
          -33 callgsubr
          endchar
        </CharString>
        <CharString name="quoteleft">
          -298 515 44 callsubr
          91 97 -97 137 hintmask 11100000
          65 callgsubr
          hintmask 11010000
          -34 callsubr
          endchar
        </CharString>
        <CharString name="quoteright">
          -301 515 44 callsubr
          107 137 -97 97 hintmask 11010000
          113 681 rmoveto
          17 callsubr
          hintmask 11100000
          -33 callgsubr
          endchar
        </CharString>
        <CharString name="quotesinglbase">
          -296 -105 44 callsubr
          -18 135 -95 95 hintmask 11010000
          -12 61 rmoveto
          17 callsubr
          hintmask 11100000
          -58 callsubr
          endchar
        </CharString>
        <CharString name="quotesingle">
          -332 26 callsubr
          endchar
        </CharString>
        <CharString name="r">
          -172 21 -21 418 87 -5 -20 hstemhm
          hintmask 10100000
          84 -47 callsubr
          68 callsubr
          hintmask 11000000
          24 28 35 25 29 29 -2 -25 23 hhcurveto
          18 40 14 51 27 -16 20 -40 -55 -41 -45 -42 -38 hvcurveto
          hintmask 10100000
          18 82 rlineto
          endchar
        </CharString>
        <CharString name="r_x">
          211 -44 91 -53 76 -49 -21 393 107 -82 82 -43 100 -52 -20 hstemhm
          282 62 -62 119 215 109 hintmask 1001000011000000
          405 -47 callsubr
          52 -282 58 callgsubr
          30 21 8 37 25 -10 21 -34 vhcurveto
          hintmask 0100010101000000
          -4 -4 0 -1 -5 hvcurveto
          46 64 50 56 33 vhcurveto
          -127 24 28 -54 75 -92 callgsubr
          hintmask 0011000101000000
          -25 callgsubr
          -435 hmoveto
          68 callsubr
          hintmask 1000100101000000
          24 28 35 25 29 hhcurveto
          hintmask 1001000101000000
          29 -2 -25 23 hhcurveto
          18 40 14 51 hvcurveto
          hintmask 1000001101000000
          27 -16 20 -40 vhcurveto
          hintmask 1000100101000000
          -55 -41 -45 -42 -38 hvcurveto
          18 82 rlineto
          endchar
        </CharString>
        <CharString name="r_z">
          98 0 -22 callgsubr
          hstemhm
          499 95 hintmask 10101000
          512 27 callgsubr
          -258 hlineto
          -66 -66 -49 -38 -42 hvcurveto
          19 87 rlineto
          -101 hlineto
          -106 -500 rlineto
          100 hlineto
          78 367 33 23 40 25 35 3 rlinecurve
          -32 3 14 -17 26 hhcurveto
          32 20 26 27 8 -2 8 -3 7 hvcurveto
          hintmask 10011000
          1 9 13 0 12 hhcurveto
          76 hlineto
          -255 -446 rlineto
          252 hlineto
          77 56 52 42 hvcurveto
          hintmask 01101000
          -98 callsubr
          endchar
        </CharString>
        <CharString name="registered">
          56 79 21 215 35 95 38 85 22 hstem
          43 26 124 36 127 36 112 23 vstem
          285 79 -49 callgsubr
          124 -142 rmoveto
          36 123 70 hlineto
          62 -124 37 6 -63 125 rlineto
          35 10 22 26 41 vvcurveto
          59 -38 25 -62 vhcurveto
          -98 hlineto
          35 -38 rmoveto
          64 hlineto
          33 30 -11 -35 -37 -32 -12 -29 hvcurveto
          -66 hlineto
          endchar
        </CharString>
        <CharString name="ring">
          -352 552 35 93 33 hstem
          0 40 80 37 vstem
          85 713 rmoveto
          -58 callgsubr
        </CharString>
        <CharString name="s">
          -166 -6 75 0 60 402 -75 callgsubr
          endchar
        </CharString>
        <CharString name="s.end">
          -156 -6 75 0 60 402 -20 hstemhm
          -15 -76 callgsubr
          hintmask 10101001
          5 callgsubr
          hintmask 01101010
          66 -12 41 -13 257 vhcurveto
          -80 -365 rmoveto
          -70 -36 -27 -51 vhcurveto
          hintmask 01110100
          -83 callgsubr
          hintmask 10101100
          -59 callgsubr
          hintmask 10110010
          6 callsubr
          endchar
        </CharString>
        <CharString name="s_x">
          166 42 callgsubr
          hstemhm
          -15 -76 callgsubr
          280 109 hintmask 1011000110000000
          360 -47 callsubr
          -2 callsubr
          hintmask 1100101010000000
          -33 callsubr
          35 44 13 32 33 vhcurveto
          42 17 84 41 56 50 rrcurveto
          -107 23 29 -46 69 -92 callgsubr
          hintmask 1010101010000000
          -25 callgsubr
          -288 -334 rmoveto
          -70 -36 -27 -51 vhcurveto
          hintmask 1101010010000000
          -83 callgsubr
          hintmask 1100110010000000
          -59 callgsubr
          hintmask 1101001010000000
          6 callsubr
          endchar
        </CharString>
        <CharString name="s_z">
          182 -6 75 -75 150 -123 -21 446 54 31 -20 hstemhm
          -15 -76 callgsubr
          37 -21 callgsubr
          hintmask 1001101001110000
          5 callgsubr
          hintmask 1001101010110000
          66 -12 41 -13 257 vhcurveto
          -80 -365 rmoveto
          -70 -36 -27 -51 vhcurveto
          hintmask 1001110100110000
          -83 callgsubr
          hintmask 1001101100110000
          -59 callgsubr
          hintmask 0011110010110000
          6 callsubr
          410 -81 -106 callgsubr
          -78 callsubr
          hvcurveto
          -65 callgsubr
          hintmask 0101110100110000
          -98 callsubr
          endchar
        </CharString>
        <CharString name="sacute">
          -166 -6 75 681 -20 hstemhm
          -15 -76 callgsubr
          hintmask 11100010
          359 179 rmoveto
          -20 -15 -25 -17 -25 -14 rrcurveto
          1 10 1 12 12 vvcurveto
          hintmask 11010100
          -33 callsubr
          46 60 21 58 32 vhcurveto
          41 25 46 32 45 49 rrcurveto
          -215 -13 rmoveto
          -70 -36 -27 -51 vhcurveto
          hintmask 11101000
          -83 callgsubr
          hintmask 11011000
          -59 callgsubr
          hintmask 11100100
          6 callsubr
          9 395 -102 callsubr
          endchar
        </CharString>
        <CharString name="scaron">
          -166 -6 75 0 60 613 -75 callgsubr
          -28 576 -73 callgsubr
        </CharString>
        <CharString name="section">
          12 -54 38 170 46 374 176 -27 27 hstemhm
          -10 84 -10 76 23 95 16 96 43 73 -38 38 -38 57 hintmask 1101011100100000
          505 652 rmoveto
          91 -91 7 -37 -103 -111 -55 -115 -16 2 -15 4 -13 vhcurveto
          -61 -24 -44 -50 -61 -133 210 -17 -152 vvcurveto
          -84 -63 -31 -49 vhcurveto
          hintmask 1101101101000000
          -47 -41 28 65 50 25 23 53 4 hvcurveto
          24 -17 -18 22 -33 hhcurveto
          -51 -43 -50 -74 -116 105 -14 59 134 82 74 111 hvcurveto
          6 vlineto
          74 15 42 76 73 170 -228 10 125 vvcurveto
          61 54 56 67 50 19 -31 -32 -27 -14 -30 -22 -13 vhcurveto
          hintmask 1110101100100000
          -13 12 13 -3 11 hhcurveto
          36 21 35 43 hvcurveto
          hintmask 1110011110000000
          -92 -402 rmoveto
          -40 -20 -27 -27 -12 vhcurveto
          -30 151 -196 41 89 vvcurveto
          27 18 15 24 10 vhcurveto
          58 -106 173 -31 -117 vvcurveto
          endchar
        </CharString>
        <CharString name="semicolon">
          -259 -22 -21 254 109 0 133 hstemhm
          16 139 -99 99 -85 133 hintmask 11001000
          22 144 rmoveto
          17 callsubr
          hintmask 11010000
          -50 callgsubr
          74 48 56 102 37 vvcurveto
          44 -33 23 -34 -33 -33 -23 -44 vhcurveto
          hintmask 10100100
          48 242 rmoveto
          -102 callgsubr
          endchar
        </CharString>
        <CharString name="seven">
          -11 12 -21 597 161 -84 59 hstemhm
          83 174 -128 128 190 131 hintmask 10110100
          578 732 rmoveto
          -6 -29 -27 -2 -26 hhcurveto
          hintmask 11010100
          -90 -119 25 -86 hhcurveto
          -65 -53 -13 -67 -47 26 -33 36 -1 hvcurveto
          hintmask 10101100
          60 5 55 17 61 hhcurveto
          56 86 -11 -8 39 hvcurveto
          -93 -318 -230 -198 vvcurveto
          -84 27 -50 55 18 22 5 11 23 vhcurveto
          -12 49 -5 25 38 254 321 283 76 vvcurveto
          endchar
        </CharString>
        <CharString name="six">
          33 -6 76 222 161 -67 67 143 154 -46 46 hstemhm
          41 106 57 47 163 80 -35 71 hintmask 1101011100000000
          254 292 rmoveto
          -2 9 -1 8 8 vvcurveto
          hintmask 1010111100000000
          45 33 24 48 45 37 -41 -69 -78 -53 -128 -101 -76 -37 42 115 204 112 273 141 vhcurveto
          hintmask 1101011010000000
          33 26 -25 -37 -15 -7 -17 -11 -10 hvcurveto
          -2 9 6 -2 9 hhcurveto
          45 20 43 29 41 -43 41 -89 -226 -131 -280 -261 -132 38 -83 148 hvcurveto
          hintmask 1101011100000000
          164 103 147 141 88 -47 83 -103 -92 -48 -66 -51 -19 8 -25 42 hvcurveto
          endchar
        </CharString>
        <CharString name="slash">
          -313 41 callsubr
          214 750 rmoveto
          -50 hlineto
          -212 -1000 rlineto
          50 hlineto
          endchar
        </CharString>
        <CharString name="space">
          -293 endchar
        </CharString>
        <CharString name="sterling">
          -42 21 -21 332 70 339 -20 hstem
          317 hmoveto
          44 32 46 72 8 hvcurveto
          -127 -74 -52 41 -91 -27 69 282 rcurveline
          -5 17 18 -3 20 hhcurveto
          68 67 47 43 10 hvcurveto
          -5 hlineto
          -13 -13 -22 -7 -22 hhcurveto
          -43 -28 19 7 -45 hvcurveto
          76 313 -102 -22 -72 -299 -37 -14 -29 -25 -19 -38 rlinecurve
          5 -2 rlineto
          16 17 19 8 24 hhcurveto
          6 hlineto
          -88 -365 rlineto
          endchar
        </CharString>
        <CharString name="t">
          -272 -6 76 395 35 152 -20 hstem
          7 98 vstem
          44 465 rmoveto
          33 62 callgsubr
          -4 -20 -5 -28 -25 vvcurveto
          -57 20 -55 74 49 71 38 147 69 vhcurveto
          -37 hlineto
          -68 -33 -41 -41 -36 hhcurveto
          -30 -8 23 24 15 5 17 2 11 hvcurveto
          65 305 rlineto
          78 hlineto
          7 35 rlineto
          -77 hlineto
          33 152 -104 -14 -30 -138 rlineto
          -33 hlineto
          endchar
        </CharString>
        <CharString name="t.end">
          -270 -6 76 395 35 152 -20 hstem
          10 98 vstem
          44 465 rmoveto
          34 62 callgsubr
          -5 -21 -2 -21 -19 vvcurveto
          -34 callgsubr
        </CharString>
        <CharString name="t_x">
          63 -6 76 387 43 -43 100 95 -20 hstemhm
          8 101 359 109 hintmask 10111100
          44 465 rmoveto
          33 hlineto
          -60 -286 -6 callsubr
          -96 23 29 -42 66 -92 callgsubr
          hintmask 11011100
          -25 callgsubr
          -186 hlineto
          33 152 -104 -14 -29 -138 rlineto
          -34 hlineto
          108 -430 rmoveto
          -29 -21 -48 callsubr
          65 305 rlineto
          85 hlineto
          52 -281 rlineto
          -64 -32 -74 -50 -50 hhcurveto
          endchar
        </CharString>
        <CharString name="t_z">
          131 0 64 -64 -14 callgsubr
          -35 35 152 -20 hstemhm
          9 98 170 -21 callgsubr
          hintmask 1001001111000000
          545 85 -106 callgsubr
          -78 callsubr
          hvcurveto
          -53 callsubr
          hintmask 1000101111000000
          -103 callgsubr
          hintmask 0100011111000000
          -98 callsubr
          -502 380 rmoveto
          34 62 callgsubr
          -5 -21 -2 -21 -19 vvcurveto
          hintmask 0010011111000000
          -34 callgsubr
        </CharString>
        <CharString name="thorn">
          -35 -229 -21 244 64 382 65 195 -20 hstem
          93 86 131 99 vstem
          -75 -250 rmoveto
          107 26 56 266 rlineto
          -29 18 27 -19 35 hhcurveto
          186 55 215 129 122 -50 45 -70 -45 -38 -19 -27 -31 hvcurveto
          3 17 1 17 15 vvcurveto
          113 -52 43 -54 36 vhcurveto
          -23 hlineto
          30 -40 13 -36 -46 vvcurveto
          -26 -4 -31 -8 -36 vhcurveto
          160 -45 52 callsubr
          -22 10 24 -15 hvcurveto
          64 301 rlineto
          29 23 26 18 29 hhcurveto
          endchar
        </CharString>
        <CharString name="three">
          27 -6 70 193 48 210 234 -50 50 hstemhm
          6 91 20 89 156 125 -87 87 hintmask 11101101
          185 257 rmoveto
          41 -8 -35 7 -24 hhcurveto
          -67 -45 -57 -85 -151 141 -18 59 160 121 126 117 72 -37 69 -89 39 hvcurveto
          85 38 52 74 74 vvcurveto
          98 -87 48 -91 -100 -103 -52 -102 -51 26 -29 35 20 24 10 21 23 vhcurveto
          -27 20 -12 26 24 vvcurveto
          hintmask 11011101
          43 37 40 66 58 33 -41 -52 -70 -68 -87 -133 -31 vhcurveto
          hintmask 11101110
          114 -11 49 -77 -82 vvcurveto
          -85 -52 -99 -114 -44 -55 15 80 43 16 51 72 4 vhcurveto
          endchar
        </CharString>
        <CharString name="threequarters">
          290 1 180 -160 -21 150 31 118 66 callsubr
          44 -20 hstemhm
          46 54 4 54 93 68 -44 44 252 46 hintmask 0110110111011000
          662 -23 callsubr
          -126 445 -40 callgsubr
          hintmask 1001001111011000
          46 callsubr
          hintmask 1001010111101000
          24 callsubr
          547 -47 rmoveto
          14 callgsubr
          hintmask 0111010111101000
          -79 -61 -85 -20 -59 vhcurveto
          151 hlineto
          hintmask 1001010111101000
          -34 -149 rlineto
          61 hlineto
          hintmask 0111010111101000
          37 callgsubr
          endchar
        </CharString>
        <CharString name="threesuperior">
          -161 342 66 callsubr
          hstemhm
          67 54 4 54 93 68 -44 44 hintmask 01101101
          171 488 -40 callgsubr
          hintmask 10011101
          46 callsubr
          hintmask 10101110
          24 callsubr
          endchar
        </CharString>
        <CharString name="tilde">
          -105 575 70 -37 66 hstemhm
          hintmask 10000000
          400 665 -11 callsubr
          hintmask 01000000
          -76 callsubr
          hintmask 10000000
          -56 callgsubr
        </CharString>
        <CharString name="trademark">
          -25 433 218 -29 29 7 -20 hstemhm
          106 21 222 35 hintmask 10011000
          296 433 rmoveto
          57 154 -7 -154 rlineto
          32 hlineto
          65 156 -22 -156 rlineto
          35 hlineto
          31 221 rlineto
          -34 hlineto
          -73 -175 8 175 -30 -3 -80 -218 rlineto
          hintmask 01011000
          3 189 rmoveto
          25 13 11 24 hvcurveto
          -3 -8 -12 -3 -16 hhcurveto
          hintmask 00111000
          -25 -17 7 -32 hhcurveto
          -75 -28 -38 -38 -24 11 -7 16 hvcurveto
          -3 4 -3 6 15 vvcurveto
          46 23 13 40 4 4 0 -1 4 vhcurveto
          hintmask 10011000
          -43 -201 rlineto
          33 hlineto
          41 196 rlineto
          hintmask 01011000
          -3 17 16 -4 15 hhcurveto
          endchar
        </CharString>
        <CharString name="two">
          13 -11 89 -53 53 -53 71 416 237 -49 49 hstemhm
          91 90 180 89 -89 114 hintmask 00110101
          123 96 rmoveto
          -13 -12 -1 -3 -11 hvcurveto
          48 158 340 93 245 vvcurveto
          97 -53 64 -137 -143 -51 -78 -73 -58 35 -28 34 22 18 11 23 19 vhcurveto
          -29 9 -9 35 23 vvcurveto
          hintmask 01001110
          59 50 28 40 49 41 -30 -76 vhcurveto
          -226 -359 -128 -210 vvcurveto
          -11 0 -11 2 -11 vhcurveto
          7 20 36 21 23 hhcurveto
          hintmask 10010110
          100 44 -36 100 hhcurveto
          103 20 38 76 14 0 13 -1 17 hvcurveto
          -47 -38 -27 -22 -73 hhcurveto
          hintmask 00110110
          -66 -65 18 -57 hhcurveto
          endchar
        </CharString>
        <CharString name="twosuperior">
          -164 340 55 callgsubr
          hstemhm
          116 54 110 46 -46 60 hintmask 00110101
          126 406 -7 callsubr
          hintmask 01001110
          2 callsubr
          hintmask 10010110
          22 callgsubr
          hintmask 00110110
          -34 -36 12 -42 hhcurveto
          endchar
        </CharString>
        <CharString name="u">
          -54 -26 callgsubr
          hstem
          10 98 146 91 vstem
          322 500 rmoveto
          -31 callsubr
          5 32 -28 43 hhcurveto
          44 65 18 167 65 hvcurveto
          -105 callgsubr
          -72 callgsubr
          endchar
        </CharString>
        <CharString name="u.end">
          -42 -6 76 430 -64 callgsubr
          endchar
        </CharString>
        <CharString name="u_v">
          344 2 callgsubr
          500 -20 38 -20 hstemhm
          10 98 352 101 154 118 hintmask 10101110
          84 -47 callsubr
          -75 callsubr
          35 38 17 39 33 vhcurveto
          hintmask 01101110
          -10 -50 rlineto
          101 hlineto
          106 500 rlineto
          -101 hlineto
          11 callsubr
          hintmask 10101110
          -54 callsubr
          -25 -20 -70 callgsubr
          648 -67 rmoveto
          hintmask 10011110
          54 -24 28 callsubr
          hintmask 10101110
          6 callgsubr
          -124 hlineto
          -9 -39 22 -11 -61 -290 22 callsubr
        </CharString>
        <CharString name="u_x">
          300 42 callgsubr
          hstemhm
          10 98 597 109 hintmask 10111000
          494 -89 callgsubr
          -31 callsubr
          7 38 -28 64 callsubr
          30 -41 65 -87 callgsubr
          -19 callgsubr
          111 122 -32 callsubr
          hintmask 11011000
          -96 callsubr
          hintmask 10111000
          70 callsubr
        </CharString>
        <CharString name="u_x.end">
          308 42 callgsubr
          hstemhm
          10 98 597 109 hintmask 10111000
          494 -89 callgsubr
          -31 callsubr
          7 38 -28 64 callsubr
          29 -41 59 40 callgsubr
          -51 callsubr
          hintmask 11011000
          -96 callsubr
          hintmask 10111000
          70 callsubr
        </CharString>
        <CharString name="uacute">
          -54 -26 callgsubr
          270 -20 hstem
          10 98 146 91 vstem
          322 500 rmoveto
          -31 callsubr
          5 32 -28 43 hhcurveto
          44 65 18 167 65 hvcurveto
          -105 callgsubr
          -72 callgsubr
          -196 61 -102 callsubr
          endchar
        </CharString>
        <CharString name="uacute.end">
          -42 -26 callgsubr
          270 -64 callgsubr
          -196 61 -102 callsubr
          endchar
        </CharString>
        <CharString name="ucircumflex">
          -54 -26 callgsubr
          248 -20 hstem
          10 98 146 91 vstem
          322 500 rmoveto
          -31 callsubr
          5 32 -28 43 hhcurveto
          44 65 18 167 65 hvcurveto
          -105 callgsubr
          -72 callgsubr
          -11 61 -96 callgsubr
        </CharString>
        <CharString name="udieresis">
          -54 -26 callgsubr
          110 105 hstemhm
          10 98 35 105 6 91 -38 105 hintmask 11111100
          322 500 rmoveto
          -31 callsubr
          5 32 -28 43 hhcurveto
          44 65 18 167 65 hvcurveto
          -105 callgsubr
          -72 callgsubr
          hintmask 11111010
          -116 142 -82 callsubr
        </CharString>
        <CharString name="ugrave">
          -54 -26 callgsubr
          270 -20 hstem
          10 98 146 91 vstem
          322 500 rmoveto
          -31 callsubr
          5 32 -28 43 hhcurveto
          44 65 18 167 65 hvcurveto
          -105 callgsubr
          -72 callgsubr
          -179 250 -63 callsubr
        </CharString>
        <CharString name="uhungarumlaut">
          -54 -26 callgsubr
          81 189 hstem
          10 98 146 91 vstem
          322 500 rmoveto
          -31 callsubr
          5 32 -28 43 hhcurveto
          44 65 18 167 65 hvcurveto
          -105 callgsubr
          -72 callgsubr
          -132 61 -102 callsubr
          -221 -189 -102 callsubr
          endchar
        </CharString>
        <CharString name="underscore">
          -67 0 70 hstem
          344 70 -1 callsubr
        </CharString>
        <CharString name="uni00AD">
          19 callgsubr
        </CharString>
        <CharString name="v">
          -109 -26 callgsubr
          38 -20 hstemhm
          7 101 154 118 hintmask 10111000
          380 433 rmoveto
          54 -24 28 callsubr
          hintmask 11011000
          6 callgsubr
          -100 hlineto
          -72 -340 22 callsubr
        </CharString>
        <CharString name="w">
          115 -26 callgsubr
          38 -20 hstemhm
          10 98 384 114 -49 49 hintmask 11011000
          84 -47 callsubr
          -75 callsubr
          43 47 26 59 38 vhcurveto
          -57 11 44 -28 65 hhcurveto
          138 100 263 176 hvcurveto
          hintmask 10111000
          54 -20 28 callsubr
          hintmask 11010100
          8 18 0 8 9 hvcurveto
          -104 -56 -251 -112 -30 -13 24 33 -26 callsubr
          vhcurveto
          72 -46 callgsubr
          52 callgsubr
          -25 -20 -70 callgsubr
          endchar
        </CharString>
        <CharString name="x">
          -10 20 callsubr
          53 -8 -20 66 -50 hhcurveto
          -132 -41 -180 -148 -61 hvcurveto
          37 hlineto
          165 55 48 88 38 hhcurveto
          18 10 -23 -67 13 callgsubr
          50 hhcurveto
          56 86 27 155 42 hvcurveto
          -30 hlineto
          -50 -15 -47 -56 -39 hhcurveto
          -35 -12 43 65 -10 hvcurveto
          -7 46 rlineto
          110 121 43 66 69 vvcurveto
          53 -23 24 -33 -33 -20 -14 -30 -31 10 -25 35 5 6 1 1 6 vhcurveto
          -2 -43 -39 -58 -73 -82 rrcurveto
          endchar
        </CharString>
        <CharString name="x.end">
          3 20 callsubr
          58 -9 -15 61 -64 hhcurveto
          -119 -56 -208 -120 -49 hvcurveto
          37 hlineto
          168 56 48 85 36 hhcurveto
          18 11 -20 -70 13 callgsubr
          60 hhcurveto
          34 37 17 65 10 hvcurveto
          -3 -5 -15 -3 -12 hhcurveto
          -42 -10 38 70 -11 hvcurveto
          -7 46 rlineto
          110 121 43 65 72 vvcurveto
          -106 callsubr
          -43 -39 -58 -73 -82 rrcurveto
          endchar
        </CharString>
        <CharString name="y">
          -54 -49 callsubr
          13 64 92 22 57 33 47 140 rlinecurve
          -37 hlineto
          -34 -100 -44 -36 -73 -23 102 480 rcurveline
          52 callgsubr
          hintmask 11110000
          -25 -20 -70 callgsubr
          -56 -698 rmoveto
          hintmask 11101000
          -78 callgsubr
          endchar
        </CharString>
        <CharString name="y.end">
          -79 -49 callsubr
          123 580 rlineto
          52 callgsubr
          hintmask 11110000
          -25 -20 -70 callgsubr
          -56 -698 rmoveto
          hintmask 11101000
          -78 callgsubr
          endchar
        </CharString>
        <CharString name="y_p">
          370 -250 52 192 64 -64 76 370 65 -65 97 -37 -20 hstemhm
          10 98 -54 39 672 99 hintmask 1011001010000000
          624 -6 rmoveto
          12 callsubr
          -101 hlineto
          69 callsubr
          hintmask 1010011010000000
          97 456 rlineto
          -100 hlineto
          -72 -335 rlineto
          -66 -14 -49 -29 -34 hhcurveto
          -25 -21 -40 callsubr
          35 39 17 40 33 vhcurveto
          -9 -44 rlineto
          hintmask 1011000110000000
          -21 callsubr
          73 446 rmoveto
          33 35 -22 -87 hvcurveto
          hintmask 1101000110000000
          54 callsubr
          vhcurveto
          68 callgsubr
          -568 -638 19 callsubr
        </CharString>
        <CharString name="y_x">
          299 -250 52 192 53 callgsubr
          hstemhm
          10 98 -55 39 612 109 hintmask 11011010
          493 -10 callgsubr
          -72 -337 rlineto
          -59 -18 -44 -34 -35 hhcurveto
          -25 -20 17 40 9 1 12 -51 callgsubr
          35 38 17 38 33 vhcurveto
          -14 -62 rlineto
          hintmask 11100110
          -75 -30 -84 -49 -74 vvcurveto
          -56 48 -28 64 60 callgsubr
          13 65 84 23 92 28 73 98 rlinecurve
          -98 22 30 -42 66 -92 callgsubr
          hintmask 11010110
          -25 callgsubr
          -479 -698 20 callgsubr
        </CharString>
        <CharString name="y_z">
          326 -250 52 198 -29 callsubr
          hstemhm
          10 98 -55 39 380 -21 callgsubr
          hintmask 1001101011000000
          84 -47 callsubr
          -75 callsubr
          35 38 17 39 33 vhcurveto
          -13 -63 rlineto
          hintmask 1100100111000000
          -75 -30 -85 -88 callgsubr
          123 580 rlineto
          54 callgsubr
          -74 -16 -49 -35 -36 hhcurveto
          hintmask 1100101011000000
          -25 -20 -70 callgsubr
          555 -415 -106 callgsubr
          -78 callsubr
          hvcurveto
          -53 callsubr
          hintmask 1100011011000000
          -103 callgsubr
          hintmask 1010100111000000
          -98 callsubr
          -611 -283 rmoveto
          -78 callgsubr
          endchar
        </CharString>
        <CharString name="yacute">
          67 callgsubr
          270 -20 hstemhm
          10 98 -55 39 hintmask 11111000
          84 -47 callsubr
          -75 callsubr
          35 38 17 39 33 vhcurveto
          -13 -63 rlineto
          hintmask 11110100
          -28 callgsubr
          -74 -16 -49 -35 -36 hhcurveto
          hintmask 11111000
          -25 -20 -70 callgsubr
          41 61 -102 callsubr
          -188 -948 rmoveto
          hintmask 11110100
          -78 callgsubr
          endchar
        </CharString>
        <CharString name="ydieresis">
          67 callgsubr
          110 105 hstemhm
          10 98 -55 39 54 105 59 105 hintmask 11111011
          84 -47 callsubr
          -75 callsubr
          35 38 17 39 33 vhcurveto
          -13 -63 rlineto
          hintmask 11110111
          -28 callgsubr
          -69 -14 -49 -40 -38 hhcurveto
          hintmask 11111011
          -25 -20 -70 callgsubr
          -56 -698 rmoveto
          hintmask 11110111
          -78 callgsubr
          17 840 -82 callgsubr
        </CharString>
        <CharString name="yen">
          14 0 192 -35 35 80 35 438 -20 hstemhm
          hintmask 01110000
          70 192 rmoveto
          -10 -35 rlineto
          128 hlineto
          hintmask 10110000
          -33 -157 rlineto
          109 hlineto
          hintmask 01110000
          33 157 69 callgsubr
          17 80 69 callgsubr
          194 438 rlineto
          -46 hlineto
          -161 -386 -94 386 rlineto
          -114 hlineto
          112 -438 rlineto
          -126 hlineto
          -10 -35 rlineto
          128 hlineto
          -17 -80 rlineto
          endchar
        </CharString>
        <CharString name="z">
          -94 0 -22 callgsubr
          hstemhm
          52 -21 callgsubr
          hintmask 10101100
          320 85 -106 callgsubr
          -78 callsubr
          hvcurveto
          -53 callsubr
          hintmask 10011100
          -103 callgsubr
          hintmask 01101100
          -98 callsubr
          endchar
        </CharString>
        <CharString name="zacute">
          -94 0 -22 callgsubr
          250 -20 hstemhm
          52 -21 callgsubr
          hintmask 10101110
          320 85 -106 callgsubr
          -78 callsubr
          hvcurveto
          -53 callsubr
          hintmask 10011110
          -103 callgsubr
          hintmask 01101110
          -98 callsubr
          -76 476 -102 callsubr
          endchar
        </CharString>
        <CharString name="zcaron">
          -94 0 -22 callgsubr
          242 -20 hstemhm
          52 -21 callgsubr
          hintmask 10101110
          320 85 -106 callgsubr
          -78 callsubr
          hvcurveto
          -53 callsubr
          hintmask 10011110
          -103 callgsubr
          hintmask 01101110
          -98 callsubr
          -91 657 -73 callgsubr
        </CharString>
        <CharString name="zdotaccent">
          -94 0 -22 callgsubr
          73 122 hstemhm
          52 94 69 122 -30 95 hintmask 10101110
          337 634 30 callsubr
          -17 -549 -106 callgsubr
          -78 callsubr
          hvcurveto
          -53 callsubr
          hintmask 10011101
          -103 callgsubr
          hintmask 01101101
          -98 callsubr
          endchar
        </CharString>
        <CharString name="zero">
          80 -6 75 631 50 hstem
          49 120 294 99 vstem
          383 750 rmoveto
          -202 -132 -224 -277 -141 34 -114 146 238 95 297 210 156 -51 93 -128 hvcurveto
          -214 -530 rmoveto
          237 99 243 118 65 12 -63 -81 -236 -83 -251 -118 -75 -18 79 72 vhcurveto
          endchar
        </CharString>
      <CharString index="0">
        469 656 rmoveto
        6 -18 -18 2 -15 hhcurveto
        -182 -90 -307 -162 -146 73 -55 109 258 108 307 196 148 -62 105 -180 -99 callgsubr
        return
      </CharString>
      <CharString index="1">
        rmoveto
        -12 -4 -17 -9 -24 hhcurveto
        -27 -74 5 1 -17 hvcurveto
        249 430 rlineto
        -238 -53 callgsubr
        return
      </CharString>
      <CharString index="2">
        -37 hlineto
        -68 -29 -34 -41 -32 -97 callsubr
        return
      </CharString>
      <CharString index="3">
        36 66 23 80 3 vhcurveto
        -92 -157 -63 -171 -93 vvcurveto
        -92 63 -14 50 vhcurveto
        -6 19 -3 22 27 vvcurveto
        119 58 182 77 154 vhcurveto
        65 -7 69 -18 45 -25 -76 -359 rcurveline
        -86 442 rmoveto
        75 143 90 113 69 3 -66 -311 rcurveline
        -40 21 -63 20 -65 11 rrcurveto
        return
      </CharString>
      <CharString index="4">
        14 29 2 31 vhcurveto
        76 hlineto
        -255 -446 rlineto
        252 hlineto
        77 56 52 42 hvcurveto
        return
      </CharString>
      <CharString index="5">
        -37 29 -29 37 36 31 29 37 36 -31 31 -36 -37 -29 -31 -36 vhcurveto
        return
      </CharString>
      <CharString index="6">
        487 hmoveto
        157 736 rlineto
        10 -24 -33 4 -20 hhcurveto
        -120 -130 -136 -162 -102 hvcurveto
        1 -14 -14 1 -13 hhcurveto
        -118 -95 -44 -72 -39 27 -13 28 23 26 9 31 8 -2 11 -18 6 hvcurveto
        return
      </CharString>
      <CharString index="7">
        -6 75 -75 150 -123 -21 129 89 77 210 -136 53 callsubr
        270 -20 hstemhm
        8 110 176 87 21 -76 callgsubr
        36 -21 callgsubr
        hintmask 100110001110100111000000
        -39 callsubr
        hintmask 100101001111010011000000
        -101 callsubr
        hintmask 100110001110101011000000
        -71 callsubr
        hintmask 100110001111010011000000
        -83 callgsubr
        hintmask 100100011110110011000000
        19 22 18 32 13 -13 26 -30 -47 -24 -59 -37 hvcurveto
        610 -37 -106 callgsubr
        hvcurveto
        hintmask 001101001111010011000000
        -77 callgsubr
        hintmask 010000101111010011000000
        -98 callsubr
        -810 -15 -41 callsubr
        100 56 180 101 31 21 -15 -41 7 hvcurveto
        -25 -8 -15 -26 -23 vvcurveto
        hintmask 100110001111010011000000
        -21 12 -19 26 -2 -69 callgsubr
        24 491 -102 callsubr
        endchar
      </CharString>
      <CharString index="8">
        -203 -195 -133 -140 -61 34 -23 57 hvcurveto
        -8 10 -2 11 34 vvcurveto
        164 144 102 149 117 36 -51 -124 -223 -118 -246 -109 -65 -23 45 76 154 97 256 106 55 vhcurveto
        return
      </CharString>
      <CharString index="9">
        -29 23 -23 29 29 24 23 29 29 -24 24 -29 -29 -23 -24 -29 vhcurveto
        return
      </CharString>
      <CharString index="10">
        -19 callgsubr
        111 122 -32 callsubr
        -107 callsubr
        return
      </CharString>
      <CharString index="11">
        rmoveto
        -61 167 rlineto
        -21 hlineto
        -201 -167 rlineto
        34 hlineto
        162 101 65 -101 rlineto
        endchar
      </CharString>
      <CharString index="12">
        -19 14 16 -8 17 hhcurveto
        40 34 44 60 82 -64 43 -79 -128 -91 -112 -103 -45 18 -44 43 -31 hvcurveto
        -115 -47 -70 -107 -105 vvcurveto
        -94 56 -82 128 return
      </CharString>
      <CharString index="13">
        447 748 rmoveto
        1 -13 -13 1 -15 hhcurveto
        -166 -184 61 callsubr
        15 callgsubr
        -12 13 -12 17 46 vvcurveto
        116 75 79 111 28 vhcurveto
        -147 -692 rlineto
        return
      </CharString>
      <CharString index="14">
        hhcurveto
        -64 -23 31 68 10 0 10 1 11 hvcurveto
        155 16 95 74 112 vvcurveto
        -98 54 rmoveto
        32 5 -21 -23 -90 -73 -66 -111 -17 hvcurveto
        103 18 55 114 74 hhcurveto
        return
      </CharString>
      <CharString index="15">
        -87 callgsubr
        -103 callsubr
        return
      </CharString>
      <CharString index="16">
        -20 hstemhm
        12 117 7 94 205 63 hintmask 10111110
        466 180 rmoveto
        -63 -37 -80 -56 -84 callsubr
        hintmask 11011110
        -95 callgsubr
        119 122 70 118 52 vhcurveto
        return
      </CharString>
      <CharString index="17">
        -122 -574 -77 callsubr
        -37 callsubr
        return
      </CharString>
      <CharString index="18">
        -47 callsubr
        58 -316 rlineto
        -64 -32 -74 -50 -50 hhcurveto
        -29 -21 -48 callsubr
        -72 callgsubr
        -101 hlineto
        return
      </CharString>
      <CharString index="19">
        -51 -66 vvcurveto
        -65 49 -25 61 66 40 27 143 30 vhcurveto
        return
      </CharString>
      <CharString index="20">
        hhcurveto
        43 -80 callsubr
        return
      </CharString>
      <CharString index="21">
        -88 callgsubr
        13 64 92 22 57 33 47 140 rlinecurve
        -37 hlineto
        -34 -100 -44 -36 -73 -23 102 480 rcurveline
        return
      </CharString>
      <CharString index="22">
        hintmask 1111110010000000
        -90 callsubr
        hintmask 1111110001000000
        -71 callsubr
        hintmask 1111101010000000
        -83 callgsubr
        hintmask 1111100110000000
        19 22 18 32 13 -13 26 -30 -47 -24 -59 -37 hvcurveto
        -108 215 rmoveto
        hintmask 1111110010000000
        -79 callgsubr
      </CharString>
      <CharString index="23">
        -20 hstemhm
        45 121 326 69 hintmask 10111100
        526 180 rmoveto
        -81 -52 -61 -39 -91 hhcurveto
        -136 -20 88 93 201 93 272 159 46 28 -23 -44 -49 -25 -45 -18 -11 hvcurveto
        hintmask 11011100
        -12 9 17 -6 16 hhcurveto
        51 19 40 50 99 -74 37 -89 -269 -84 -340 -181 -171 75 -74 131 123 121 66 120 54 hvcurveto
        return
      </CharString>
      <CharString index="24">
        -44 -21 27 47 hvcurveto
        -10 6 8 -4 10 hhcurveto
        return
      </CharString>
      <CharString index="25">
        -74 callsubr
        29 24 23 29 29 -24 24 -29 -29 -23 -24 -29 vhcurveto
        endchar
      </CharString>
      <CharString index="26">
        -75 -30 -85 -86 callgsubr
        return
      </CharString>
      <CharString index="27">
        vvcurveto
        -64 27 -49 69 41 65 17 168 63 callsubr
        -72 -31 -31 -37 -32 hhcurveto
        -24 -6 21 28 hvcurveto
        return
      </CharString>
      <CharString index="28">
        -14 6 -14 12 -8 vhcurveto
        -120 -9 -65 -118 -83 hhcurveto
        -33 -17 18 34 12 2 12 3 14 hvcurveto
        59 263 rlineto
        20 24 22 14 26 hhcurveto
        36 23 -27 -46 9 hvcurveto
        -10 -12 -5 -15 -13 vvcurveto
        endchar
      </CharString>
      <CharString index="29">
        32 callgsubr
        41 74 32 hvcurveto
        -7 -32 rlineto
        -69 -15 -17 -47 -37 hhcurveto
        return
      </CharString>
      <CharString index="30">
        -38 15 -21 28 27 24 19 14 vhcurveto
        -65 callgsubr
        return
      </CharString>
      <CharString index="31">
        49 -49 114 66 101 -80 80 -80 105 return
      </CharString>
      <CharString index="32">
        -20 hstemhm
        -15 -76 callgsubr
        hintmask 10110001
        359 179 rmoveto
        -20 -15 -25 -17 -25 -14 rrcurveto
        1 10 1 12 12 vvcurveto
        hintmask 10101010
        -33 callsubr
        46 60 21 58 32 vhcurveto
        41 25 46 32 45 49 rrcurveto
        -215 -13 rmoveto
        -70 -36 -27 -51 vhcurveto
        hintmask 01110100
        -83 callgsubr
        hintmask 10101100
        -59 callgsubr
        hintmask 10110010
        6 callsubr
        return
      </CharString>
      <CharString index="33">
        65 18 167 65 return
      </CharString>
      <CharString index="34">
        rmoveto
        61 -167 rlineto
        21 hlineto
        201 167 rlineto
        -34 hlineto
        -162 -101 -65 101 rlineto
        endchar
      </CharString>
      <CharString index="35">
        73 -46 callgsubr
        return
      </CharString>
      <CharString index="36">
        -90 callgsubr
        -30 callgsubr
        -293 -48 callgsubr
        return
      </CharString>
      <CharString index="37">
        18 39 -26 callsubr
        hvcurveto
        -72 callgsubr
        return
      </CharString>
      <CharString index="38">
        vhcurveto
        -141 -14 -56 -84 -60 hhcurveto
        return
      </CharString>
      <CharString index="39">
        -38 callsubr
        -60 21 -51 68 return
      </CharString>
      <CharString index="40">
        -13 7 10 -8 16 hhcurveto
        34 19 38 46 65 -37 30 -68 -193 -66 -238 return
      </CharString>
      <CharString index="41">
        10 -21 -23 4 -23 hhcurveto
        -151 -128 -140 -120 -72 34 -25 63 hvcurveto
        -10 13 -14 17 46 vvcurveto
        122 63 72 97 28 vhcurveto
        -157 -691 rlineto
        75 hlineto
        124 539 126 -539 rlineto
        128 hlineto
        return
      </CharString>
      <CharString index="42">
        -53 callsubr
        -103 callgsubr
        return
      </CharString>
      <CharString index="43">
        -20 hstem
        10 98 146 92 vstem
        322 500 rmoveto
        -31 callsubr
        5 32 -28 43 hhcurveto
        36 27 19 63 16 hvcurveto
        -94 callsubr
        -72 callgsubr
        return
      </CharString>
</ttFont>
